<?xml version="1.0" encoding="UTF-8" standalone="no"?>
<svg
   class="main-svg"
   width="942.30072"
   height="733.26636"
   viewBox="0 0 942.30071 733.26638"
   version="1.1"
   id="svg140"
   sodipodi:docname="embedding_clusters_qwen.svg"
   inkscape:version="1.4.2 (ebf0e940d0, 2025-05-08)"
   xmlns:inkscape="http://www.inkscape.org/namespaces/inkscape"
   xmlns:sodipodi="http://sodipodi.sourceforge.net/DTD/sodipodi-0.dtd"
   xmlns="http://www.w3.org/2000/svg"
   xmlns:svg="http://www.w3.org/2000/svg">
  <sodipodi:namedview
     id="namedview140"
     pagecolor="#ffffff"
     bordercolor="#000000"
     borderopacity="0.25"
     inkscape:showpageshadow="2"
     inkscape:pageopacity="0.0"
     inkscape:pagecheckerboard="0"
     inkscape:deskcolor="#d1d1d1"
     inkscape:zoom="0.98749999"
     inkscape:cx="464.81013"
     inkscape:cy="530.12659"
     inkscape:window-width="2560"
     inkscape:window-height="1371"
     inkscape:window-x="0"
     inkscape:window-y="0"
     inkscape:window-maximized="1"
     inkscape:current-layer="svg140"
     showguides="true" />
  <rect
     x="0"
     y="0"
     width="942.30072"
     height="733.26636"
     style="fill:#ffffff;fill-opacity:1;stroke-width:1.19979"
     id="rect1" />
  <defs
     id="defs-356ca6">
    <marker
       style="overflow:visible"
       id="marker10"
       refX="0"
       refY="0"
       orient="auto-start-reverse"
       inkscape:stockid="Wide arrow"
       markerWidth="1"
       markerHeight="1"
       viewBox="0 0 1 1"
       inkscape:isstock="true"
       inkscape:collect="always"
       preserveAspectRatio="xMidYMid">
      <path
         style="fill:none;stroke:context-stroke;stroke-width:1;stroke-linecap:butt"
         d="M 3,-3 0,0 3,3"
         transform="rotate(180,0.125,0)"
         sodipodi:nodetypes="ccc"
         id="path10" />
    </marker>
    <marker
       style="overflow:visible"
       id="ArrowWide"
       refX="0"
       refY="0"
       orient="auto-start-reverse"
       inkscape:stockid="Wide arrow"
       markerWidth="1"
       markerHeight="1"
       viewBox="0 0 1 1"
       inkscape:isstock="true"
       inkscape:collect="always"
       preserveAspectRatio="xMidYMid">
      <path
         style="fill:none;stroke:context-stroke;stroke-width:1;stroke-linecap:butt"
         d="M 3,-3 0,0 3,3"
         transform="rotate(180,0.125,0)"
         sodipodi:nodetypes="ccc"
         id="path1" />
    </marker>
    <inkscape:path-effect
       effect="bspline"
       id="path-effect7"
       is_visible="true"
       lpeversion="1.3"
       weight="33.333333"
       steps="2"
       helper_size="0"
       apply_no_weight="true"
       apply_with_weight="true"
       only_selected="false"
       uniform="false" />
    <g
       class="clips"
       id="g5">
      <clipPath
         id="clip356ca6xyplot"
         class="plotclip">
        <rect
           width="598"
           height="420"
           id="rect2"
           x="0"
           y="0" />
      </clipPath>
      <clipPath
         class="axesclip"
         id="clip356ca6x">
        <rect
           x="80"
           y="0"
           width="598"
           height="600"
           id="rect3" />
      </clipPath>
      <clipPath
         class="axesclip"
         id="clip356ca6y">
        <rect
           x="0"
           y="100"
           width="800"
           height="420"
           id="rect4" />
      </clipPath>
      <clipPath
         class="axesclip"
         id="clip356ca6xy">
        <rect
           x="80"
           y="100"
           width="598"
           height="420"
           id="rect5" />
      </clipPath>
    </g>
    <g
       class="gradients"
       id="g6" />
    <g
       class="patterns"
       id="g7" />
    <clipPath
       clipPathUnits="userSpaceOnUse"
       id="clipPath142">
      <rect
         width="98"
         height="67"
         x="2.1972657e-05"
         y="-32.700001"
         id="rect143" />
    </clipPath>
    <clipPath
       clipPathUnits="userSpaceOnUse"
       id="clipPath144">
      <rect
         width="98"
         height="67"
         x="2.1972657e-05"
         y="-51.700001"
         id="rect145" />
    </clipPath>
  </defs>
  <g
     class="layer-subplot"
     id="g14"
     transform="translate(62.971362,95.283757)">
    <g
       class="shapelayer"
       id="g12" />
    <g
       class="imagelayer"
       id="g13" />
  </g>
  <g
     class="minor-gridlayer"
     id="g17"
     transform="translate(62.971362,95.283757)">
    <g
       class="x"
       id="g15" />
    <g
       class="y"
       id="g16" />
  </g>
  <g
     class="layer-between"
     id="g32"
     transform="translate(62.971362,95.283757)">
    <g
       class="shapelayer"
       id="g30" />
    <g
       class="imagelayer"
       id="g31" />
  </g>
  <path
     class="xlines-below"
     id="path32"
     d="" />
  <path
     class="ylines-below"
     id="path33"
     d="" />
  <g
     class="overlines-below"
     id="g33"
     transform="translate(62.971362,95.283757)" />
  <g
     class="xaxislayer-below"
     id="g34"
     transform="translate(62.971362,95.283757)" />
  <g
     class="yaxislayer-below"
     id="g35"
     transform="translate(62.971362,95.283757)" />
  <g
     class="overaxes-below"
     id="g36"
     transform="translate(62.971362,95.283757)" />
  <g
     class="zerolinelayer-above"
     id="g88"
     transform="translate(62.971362,95.283757)" />
  <path
     class="xlines-above crisp"
     d="M 62.971362,95.283757"
     style="fill:none"
     id="path88" />
  <path
     class="ylines-above crisp"
     d="M 62.971362,95.283757"
     style="fill:none"
     id="path89" />
  <g
     class="overlines-above"
     id="g89"
     transform="translate(62.971362,95.283757)" />
  <rect
     class="bg"
     x="176.03777"
     y="178.70174"
     width="598"
     height="420"
     style="fill:#e5ecf6;fill-opacity:1;stroke-width:0"
     id="rect7" />
  <g
     class="gridlayer"
     id="g28"
     transform="translate(96.037772,78.701727)">
    <g
       class="x"
       id="g21">
      <path
         class="xgrid crisp"
         transform="translate(167.54)"
         d="M 0,100 V 520"
         style="stroke:#ffffff;stroke-width:1px;stroke-opacity:1"
         id="path17" />
      <path
         class="xgrid crisp"
         transform="translate(280.94)"
         d="M 0,100 V 520"
         style="stroke:#ffffff;stroke-width:1px;stroke-opacity:1"
         id="path18" />
      <path
         class="xgrid crisp"
         transform="translate(394.35)"
         d="M 0,100 V 520"
         style="stroke:#ffffff;stroke-width:1px;stroke-opacity:1"
         id="path19" />
      <path
         class="xgrid crisp"
         transform="translate(507.75)"
         d="M 0,100 V 520"
         style="stroke:#ffffff;stroke-width:1px;stroke-opacity:1"
         id="path20" />
      <path
         class="xgrid crisp"
         transform="translate(621.16)"
         d="M 0,100 V 520"
         style="stroke:#ffffff;stroke-width:1px;stroke-opacity:1"
         id="path21" />
    </g>
    <g
       class="y"
       id="g27">
      <path
         class="ygrid crisp"
         transform="translate(0,489.8)"
         d="M 80,0 H 678"
         style="stroke:#ffffff;stroke-width:1px;stroke-opacity:1"
         id="path22" />
      <path
         class="ygrid crisp"
         transform="translate(0,432.09)"
         d="M 80,0 H 678"
         style="stroke:#ffffff;stroke-width:1px;stroke-opacity:1"
         id="path23" />
      <path
         class="ygrid crisp"
         transform="translate(0,374.38)"
         d="M 80,0 H 678"
         style="stroke:#ffffff;stroke-width:1px;stroke-opacity:1"
         id="path24" />
      <path
         class="ygrid crisp"
         transform="translate(0,316.67)"
         d="M 80,0 H 678"
         style="stroke:#ffffff;stroke-width:1px;stroke-opacity:1"
         id="path25" />
      <path
         class="ygrid crisp"
         transform="translate(0,258.96)"
         d="M 80,0 H 678"
         style="stroke:#ffffff;stroke-width:1px;stroke-opacity:1"
         id="path26" />
      <path
         class="ygrid crisp"
         transform="translate(0,143.54)"
         d="M 80,0 H 678"
         style="stroke:#ffffff;stroke-width:1px;stroke-opacity:1"
         id="path27" />
    </g>
  </g>
  <g
     class="zerolinelayer"
     id="g29"
     transform="translate(96.037772,78.701727)">
    <path
       class="yzl zl crisp"
       transform="translate(0,201.25)"
       d="M 80,0 H 678"
       style="stroke:#ffffff;stroke-width:2px;stroke-opacity:1"
       id="path28" />
  </g>
  <g
     class="xtick"
     id="g91"
     style="fill:#000000"
     transform="translate(96.037772,78.701727)">
    <text
       text-anchor="middle"
       x="0"
       y="533"
       style="font-size:12px;font-family:'Open Sans', verdana, arial, sans-serif;white-space:pre;fill:#000000;fill-opacity:1"
       transform="translate(280.94)"
       id="text90">11.5</text>
  </g>
  <g
     class="xtick"
     id="g92"
     style="fill:#000000"
     transform="translate(96.037772,78.701727)">
    <text
       text-anchor="middle"
       x="0"
       y="533"
       style="font-size:12px;font-family:'Open Sans', verdana, arial, sans-serif;white-space:pre;fill:#000000;fill-opacity:1"
       transform="translate(394.35)"
       id="text91">12</text>
  </g>
  <g
     class="xtick"
     id="g93"
     style="fill:#000000"
     transform="translate(96.037772,78.701727)">
    <text
       text-anchor="middle"
       x="0"
       y="533"
       style="font-size:12px;font-family:'Open Sans', verdana, arial, sans-serif;white-space:pre;fill:#000000;fill-opacity:1"
       transform="translate(507.75)"
       id="text92">12.5</text>
  </g>
  <g
     class="xtick"
     id="g94"
     style="fill:#000000"
     transform="translate(96.037772,78.701727)">
    <text
       text-anchor="middle"
       x="0"
       y="533"
       style="font-size:12px;font-family:'Open Sans', verdana, arial, sans-serif;white-space:pre;fill:#000000;fill-opacity:1"
       transform="translate(621.16)"
       id="text93">13</text>
  </g>
  <g
     class="yaxislayer-above"
     id="g103"
     style="fill:#000000"
     transform="translate(96.037772,78.701727)">
    <g
       class="ytick"
       id="g96"
       style="fill:#000000">
      <text
         text-anchor="end"
         x="79"
         y="4.1999998"
         transform="translate(0,489.8)"
         style="font-size:12px;font-family:'Open Sans', verdana, arial, sans-serif;white-space:pre;fill:#000000;fill-opacity:1"
         id="text95">−2.5</text>
    </g>
    <g
       class="ytick"
       id="g97"
       style="fill:#000000">
      <text
         text-anchor="end"
         x="79"
         y="4.1999998"
         style="font-size:12px;font-family:'Open Sans', verdana, arial, sans-serif;white-space:pre;fill:#000000;fill-opacity:1"
         transform="translate(0,432.09)"
         id="text96">−2</text>
    </g>
    <g
       class="ytick"
       id="g98"
       style="fill:#000000">
      <text
         text-anchor="end"
         x="79"
         y="4.1999998"
         style="font-size:12px;font-family:'Open Sans', verdana, arial, sans-serif;white-space:pre;fill:#000000;fill-opacity:1"
         transform="translate(0,374.38)"
         id="text97">−1.5</text>
    </g>
    <g
       class="ytick"
       id="g99"
       style="fill:#000000">
      <text
         text-anchor="end"
         x="79"
         y="4.1999998"
         style="font-size:12px;font-family:'Open Sans', verdana, arial, sans-serif;white-space:pre;fill:#000000;fill-opacity:1"
         transform="translate(0,316.67)"
         id="text98">−1</text>
    </g>
    <g
       class="ytick"
       id="g100"
       style="fill:#000000">
      <text
         text-anchor="end"
         x="79"
         y="4.1999998"
         style="font-size:12px;font-family:'Open Sans', verdana, arial, sans-serif;white-space:pre;fill:#000000;fill-opacity:1"
         transform="translate(0,258.96)"
         id="text99">−0.5</text>
    </g>
    <g
       class="ytick"
       id="g101"
       style="fill:#000000">
      <text
         text-anchor="end"
         x="79"
         y="4.1999998"
         style="font-size:12px;font-family:'Open Sans', verdana, arial, sans-serif;white-space:pre;fill:#000000;fill-opacity:1"
         transform="translate(0,201.25)"
         id="text100">0</text>
    </g>
    <g
       class="ytick"
       id="g102"
       style="fill:#000000">
      <text
         text-anchor="end"
         x="79"
         y="4.1999998"
         style="font-size:12px;font-family:'Open Sans', verdana, arial, sans-serif;white-space:pre;fill:#000000;fill-opacity:1"
         transform="translate(0,143.54)"
         id="text101">0.5</text>
    </g>
  </g>
  <g
     class="overaxes-above"
     id="g104"
     transform="translate(62.971362,95.283757)" />
  <defs
     id="topdefs-356ca6">
    <g
       class="clips"
       id="g117" />
  </defs>
  <rect
     class="scrollbar"
     rx="20"
     ry="3"
     width="0"
     height="0"
     style="fill:#808ba4;fill-opacity:1"
     x="752.9314"
     y="195.28377"
     id="rect135" />
  <g
     class="g-gtitle"
     id="g137"
     style="fill:#000000"
     transform="translate(214.23162,95.283757)">
    <text
       class="gtitle"
       x="40"
       y="50"
       text-anchor="start"
       dy="0em"
       style="font-size:17px;font-family:'Open Sans', verdana, arial, sans-serif;white-space:pre;opacity:1;fill:#000000;fill-opacity:1"
       id="text136"><tspan
         style="font-weight:bold"
         id="tspan145">2D visualization of query embeddings using t-SNE</tspan></text>
  </g>
  <g
     class="g-xtitle"
     id="g138"
     style="fill:#000000"
     transform="translate(85.406912,95.283757)">
    <text
       class="xtitle"
       x="379"
       y="561.29999"
       text-anchor="middle"
       style="font-size:14px;font-family:'Open Sans', verdana, arial, sans-serif;white-space:pre;opacity:1;fill:#000000;fill-opacity:1"
       id="text137">t-SNE component 1</text>
  </g>
  <g
     class="g-ytitle"
     id="g139"
     style="fill:#000000"
     transform="translate(62.971362,85.010327)">
    <text
       class="ytitle"
       transform="rotate(-90,35.85,310)"
       x="35.849998"
       y="310"
       text-anchor="middle"
       style="font-size:14px;font-family:'Open Sans', verdana, arial, sans-serif;white-space:pre;opacity:1;fill:#000000;fill-opacity:1"
       id="text138">t-SNE component 2</text>
  </g>
  <rect
     style="fill:#ffffff;fill-opacity:1;stroke-width:1.81796;stroke-linecap:round"
     id="rect146"
     width="110.63291"
     height="58.987339"
     x="193.04942"
     y="198.36263" />
  <g
     id="g148"
     transform="translate(-687.45689,144.74448)">
    <g
       id="g146">
      <text
         class="legendtext"
         text-anchor="start"
         x="915.41888"
         y="76.515114"
         style="font-size:12px;font-family:'Open Sans', verdana, arial, sans-serif;white-space:pre;fill:#000000;fill-opacity:1"
         id="text121">Space</text>
      <g
         class="layers"
         id="g125"
         transform="translate(875.41889,71.835113)"
         clip-path="url(#clipPath142)">
        <g
           class="legendfill"
           id="g121" />
        <g
           class="legendlines"
           id="g122" />
        <g
           class="legendsymbols"
           id="g124">
          <g
             class="legendpoints"
             id="g123">
            <path
               class="scatterpts"
               transform="translate(20)"
               d="M 3,0 A 3,3 0 1 1 0,-3 3,3 0 0 1 3,0 Z"
               style="opacity:0.7;fill:#636efa;fill-opacity:1;stroke-width:0px"
               id="path122" />
          </g>
        </g>
      </g>
    </g>
    <g
       id="g147">
      <text
         class="legendtext"
         text-anchor="start"
         x="915.41888"
         y="95.515114"
         style="font-size:12px;font-family:'Open Sans', verdana, arial, sans-serif;white-space:pre;fill:#000000;fill-opacity:1"
         id="text127">Cooking</text>
      <g
         class="layers"
         id="g132"
         transform="translate(875.41889,90.835113)"
         clip-path="url(#clipPath144)">
        <g
           class="legendfill"
           id="g128" />
        <g
           class="legendlines"
           id="g129" />
        <g
           class="legendsymbols"
           id="g131">
          <g
             class="legendpoints"
             id="g130">
            <path
               class="scatterpts"
               transform="translate(20)"
               d="M 3,0 A 3,3 0 1 1 0,-3 3,3 0 0 1 3,0 Z"
               style="opacity:0.7;fill:#ef553b;fill-opacity:1;stroke-width:0px"
               id="path129" />
          </g>
        </g>
      </g>
    </g>
  </g>
  <rect
     style="fill:#e5ecf6;fill-opacity:1;stroke-width:2;stroke-linecap:round"
     id="rect6"
     width="347.34177"
     height="52.658226"
     x="4.5648894"
     y="677.05597" />
  <path
     d="m 14.495611,708.922 v -16.13791 h 1.949545 v 7.00753 h 8.599664 v -7.00753 h 1.949546 V 708.922 H 25.04482 v -7.39745 h -8.599664 v 7.39745 z m 20.18863,0.25994 q -1.581298,0 -2.783518,-0.75816 -1.19139,-0.76899 -1.8629,-2.11201 -0.660679,-1.34302 -0.660679,-3.08678 0,-1.75459 0.660679,-3.10844 0.67151,-1.35385 1.8629,-2.12284 1.20222,-0.76899 2.783518,-0.76899 1.592129,0 2.783518,0.76899 1.191389,0.76899 1.852069,2.12284 0.67151,1.35385 0.67151,3.10844 0,1.74376 -0.67151,3.08678 -0.66068,1.34302 -1.852069,2.11201 -1.191389,0.75816 -2.783518,0.75816 z m 0,-1.66795 q 1.083081,0 1.852068,-0.53071 0.768988,-0.53071 1.180559,-1.49465 0.41157,-0.97477 0.41157,-2.26364 0,-1.31053 -0.41157,-2.27447 -0.411571,-0.97477 -1.180559,-1.51631 -0.768987,-0.54154 -1.852068,-0.54154 -1.07225,0 -1.852069,0.54154 -0.768987,0.53071 -1.180558,1.50548 -0.411571,0.97477 -0.411571,2.2853 0,1.2997 0.411571,2.26364 0.411571,0.96394 1.180558,1.49465 0.768988,0.53071 1.852069,0.53071 z m 9.563604,1.40801 -3.552506,-11.43734 h 1.927884 l 1.440498,5.0255 q 0.335755,1.15889 0.639018,2.37194 0.314093,1.21306 0.628187,2.38278 h -0.259939 q 0.314093,-1.16972 0.628187,-2.38278 0.314093,-1.21305 0.649848,-2.37194 l 1.451329,-5.0255 h 1.819576 l 1.429667,5.0255 q 0.335755,1.15889 0.639018,2.37194 0.314093,1.21306 0.628187,2.38278 h -0.292432 q 0.324924,-1.16972 0.639018,-2.38278 0.324924,-1.21305 0.660679,-2.37194 l 1.47299,-5.0255 h 1.927884 L 53.172433,708.922 h -1.927885 l -1.505482,-5.19879 q -0.216616,-0.77982 -0.433233,-1.5813 -0.205785,-0.80148 -0.41157,-1.60296 -0.205786,-0.81231 -0.422402,-1.59213 h 0.487386 q -0.216616,0.77982 -0.433232,1.59213 -0.205785,0.80148 -0.422402,1.60296 -0.205785,0.80148 -0.433232,1.5813 l -1.537975,5.19879 z m 24.705078,-11.43734 v 1.5813 H 62.7577 v -1.5813 z M 64.793892,708.922 v -13.47353 q 0,-0.82314 0.368248,-1.41884 0.368247,-0.59569 1.039758,-0.92062 0.682341,-0.32492 1.60296,-0.32492 0.379078,0 0.714833,0 0.335755,0 0.433232,0 v 1.5813 q -0.09748,0 -0.444063,0 -0.335755,0 -0.530709,0 -0.725665,0 -1.039758,0.31409 -0.303263,0.3141 -0.303263,1.05059 V 708.922 Z m 9.097881,0.17329 q -1.137235,0 -2.036192,-0.38991 -0.898958,-0.38991 -1.429667,-1.1589 -0.519879,-0.77981 -0.519879,-1.91705 0,-0.9856 0.379078,-1.60296 0.389909,-0.61736 1.028927,-0.96394 0.649849,-0.35742 1.46216,-0.54154 0.823141,-0.18413 1.678775,-0.29243 1.093912,-0.15164 1.722099,-0.22745 0.628187,-0.0758 0.888126,-0.24911 0.270771,-0.17329 0.270771,-0.60652 v -0.10831 q 0,-0.62819 -0.303263,-1.10475 -0.292432,-0.48738 -0.866465,-0.75815 -0.563202,-0.2816 -1.364682,-0.2816 -0.790649,0 -1.408005,0.27077 -0.606526,0.25994 -0.974773,0.71483 -0.357417,0.45489 -0.40074,1.02893 h -1.87373 q 0.05415,-1.05059 0.649848,-1.8629 0.595695,-0.82314 1.624622,-1.2997 1.028927,-0.47655 2.382778,-0.47655 0.996435,0 1.797915,0.27077 0.81231,0.27077 1.375512,0.76898 0.574033,0.49822 0.877296,1.19139 0.303263,0.69317 0.303263,1.53798 v 7.88483 h -1.819576 v -1.62462 h -0.04332 q -0.205785,0.41157 -0.606525,0.83397 -0.40074,0.41157 -1.083081,0.69317 -0.67151,0.27077 -1.711268,0.27077 z m 0.259939,-1.64628 q 1.126405,0 1.830407,-0.40074 0.704003,-0.41157 1.028927,-1.06142 0.324925,-0.64985 0.324925,-1.39718 v -1.42966 q -0.108308,0.0975 -0.40074,0.18412 -0.281601,0.0867 -0.704003,0.17329 -0.411571,0.0758 -0.898957,0.15163 -0.476556,0.0758 -0.963942,0.1408 -0.66068,0.0866 -1.256374,0.30327 -0.584864,0.20578 -0.953112,0.59569 -0.368247,0.37908 -0.368247,1.02893 0,0.53071 0.281601,0.92062 0.292432,0.37908 0.823141,0.58486 0.53071,0.20579 1.256374,0.20579 z m 7.7332,1.47299 v -11.43734 h 1.754591 v 1.79792 h 0.04332 q 0.314094,-0.88813 0.996435,-1.42967 0.682341,-0.54154 1.754591,-0.54154 0.249109,0 0.454894,0.0217 0.216616,0.0217 0.324924,0.0433 v 1.84124 q -0.108308,-0.0325 -0.422401,-0.0758 -0.303263,-0.0542 -0.704003,-0.0542 -0.628187,0 -1.169728,0.29243 -0.54154,0.29244 -0.866464,0.90979 -0.324925,0.61736 -0.324925,1.59213 v 7.04003 z m 12.69371,0 V 697.48466 H 96.41986 V 708.922 Z m 0.920619,-13.66849 q -0.519879,0 -0.888127,-0.36824 -0.368247,-0.36825 -0.368247,-0.88813 0,-0.51988 0.368247,-0.88813 0.368248,-0.36824 0.888127,-0.36824 0.519879,0 0.888126,0.36824 0.368248,0.36825 0.368248,0.88813 0,0.51988 -0.368248,0.88813 -0.368247,0.36824 -0.888126,0.36824 z m 7.635719,13.92843 q -1.22388,0 -2.22031,-0.40074 -0.996438,-0.40074 -1.613794,-1.21305 -0.617357,-0.82315 -0.693172,-2.06869 h 1.819576 q 0.0975,1.0181 0.77982,1.55964 0.68234,0.54154 1.88456,0.54154 1.19139,0 1.87373,-0.49822 0.69317,-0.49822 0.69317,-1.25637 0,-0.64985 -0.47655,-1.03976 -0.47656,-0.38991 -1.24555,-0.5632 l -1.84124,-0.43324 q -1.59212,-0.37907 -2.415266,-1.19138 -0.812311,-0.81232 -0.812311,-2.05786 0,-0.97477 0.519879,-1.7221 0.53071,-0.75815 1.462158,-1.18056 0.94228,-0.43323 2.16616,-0.43323 1.19139,0 2.13367,0.4549 0.95311,0.44406 1.50549,1.2672 0.5632,0.82314 0.59569,1.96038 h -1.79791 q -0.0108,-0.90979 -0.67151,-1.50549 -0.66068,-0.59569 -1.76543,-0.59569 -1.05059,0 -1.67877,0.50905 -0.62819,0.50905 -0.62819,1.24554 0,0.64985 0.47656,1.05059 0.47655,0.38991 1.29969,0.58486 l 1.84124,0.43324 q 1.64628,0.38991 2.41527,1.16972 0.76899,0.76899 0.76899,2.0037 0,1.06142 -0.57403,1.81958 -0.57404,0.75816 -1.57047,1.1589 -0.9856,0.40074 -2.23115,0.40074 z m 17.08019,-11.69728 v 1.5813 h -6.19522 v -1.5813 z m -4.15903,-3.11927 h 1.84124 v 11.78392 q 0,0.66068 0.27077,0.93145 0.2816,0.25994 0.9856,0.25994 0.24911,0 0.53071,0 0.29243,0 0.53071,0 v 1.5813 q -0.2816,0 -0.61736,0 -0.33575,0 -0.61735,0 -1.47299,0 -2.19866,-0.63902 -0.72566,-0.64985 -0.72566,-1.93872 z m 7.90649,7.86317 v 6.69344 h -1.84124 v -16.13791 h 1.84124 v 7.47326 h -0.56321 q 0.56321,-1.54881 1.55964,-2.26364 1.00727,-0.72566 2.36112,-0.72566 1.1589,0 2.11201,0.50904 0.95311,0.49822 1.51631,1.50549 0.57403,1.00726 0.57403,2.53441 v 7.10501 h -1.84124 v -6.97504 q 0,-1.48383 -0.71483,-2.23115 -0.704,-0.75816 -1.99287,-0.75816 -0.83397,0 -1.51631,0.33576 -0.68234,0.33575 -1.09391,1.06142 -0.40074,0.71483 -0.40074,1.87373 z m 15.0115,6.95338 q -1.67877,0 -2.87016,-0.76899 -1.18056,-0.76899 -1.80875,-2.11201 -0.62819,-1.35385 -0.62819,-3.07595 0,-1.74376 0.66068,-3.09761 0.66068,-1.35385 1.83041,-2.12284 1.16973,-0.77982 2.68604,-0.77982 1.19139,0 2.1445,0.43323 0.96394,0.43324 1.64628,1.23472 0.68235,0.80148 1.03976,1.90622 0.36825,1.09391 0.36825,2.4261 v 0.50905 h -9.40114 v -1.5813 h 8.37221 l -0.79065,0.55237 q 0,-1.16973 -0.4224,-2.02536 -0.41157,-0.86646 -1.16972,-1.33219 -0.75816,-0.47655 -1.78709,-0.47655 -1.01809,0 -1.77625,0.47655 -0.74733,0.46573 -1.16973,1.33219 -0.41157,0.85563 -0.41157,2.02536 v 0.77982 q 0,1.18056 0.40074,2.09035 0.41157,0.90978 1.19139,1.42966 0.77982,0.50905 1.89539,0.50905 0.81231,0 1.42967,-0.24911 0.61735,-0.25994 1.01809,-0.71483 0.41157,-0.45489 0.58487,-1.05059 h 1.84124 q -0.21662,1.09391 -0.89896,1.92789 -0.68234,0.82314 -1.71127,1.28886 -1.0181,0.46573 -2.26364,0.46573 z m 11.5673,-0.25994 5.95695,-16.13791 h 2.20948 l 5.89196,16.13791 h -2.07951 l -3.39005,-9.72607 q -0.33575,-0.96394 -0.75815,-2.19866 -0.41157,-1.24554 -1.05059,-3.26007 h 0.5632 q -0.63902,2.01453 -1.06142,3.26007 -0.41157,1.23472 -0.75816,2.19866 l -3.48752,9.72607 z m 3.07595,-4.52728 v -1.73293 h 7.90649 v 1.73293 z m 14.40498,-2.16616 v 6.69344 h -1.84124 v -11.43734 h 1.79791 v 2.77269 h -0.51987 q 0.5632,-1.54881 1.55963,-2.26364 1.00727,-0.72566 2.36112,-0.72566 1.1589,0 2.11201,0.50904 0.95311,0.49822 1.51631,1.50549 0.57403,1.00726 0.57403,2.53441 v 7.10501 h -1.84123 v -6.97504 q 0,-1.48383 -0.71484,-2.23115 -0.704,-0.75816 -1.99287,-0.75816 -0.83397,0 -1.51631,0.33576 -0.68234,0.33575 -1.09391,1.06142 -0.40074,0.71483 -0.40074,1.87373 z m 14.66492,6.91005 q -1.48383,0 -2.61023,-0.74732 -1.11557,-0.75816 -1.73293,-2.09035 -0.61736,-1.34302 -0.61736,-3.09761 0,-1.76542 0.61736,-3.09761 0.61736,-1.34302 1.73293,-2.09035 1.1264,-0.74732 2.61023,-0.74732 0.74732,0 1.41883,0.21661 0.68234,0.20579 1.23471,0.62819 0.55238,0.4224 0.92062,1.06142 h 0.0217 v -6.39018 h 1.84124 V 708.922 h -1.79791 v -1.73293 h -0.0217 q -0.41157,0.66068 -0.97478,1.09391 -0.5632,0.43323 -1.23471,0.63902 -0.66068,0.21661 -1.408,0.21661 z m 0.2816,-1.65711 q 1.06142,0 1.84123,-0.53071 0.77982,-0.53071 1.20222,-1.49465 0.42241,-0.96394 0.42241,-2.25281 0,-1.2997 -0.42241,-2.26364 -0.4224,-0.96394 -1.20222,-1.49465 -0.77981,-0.53071 -1.84123,-0.53071 -0.98561,0 -1.75459,0.48738 -0.75816,0.48739 -1.19139,1.4405 -0.43324,0.95311 -0.43324,2.36112 0,1.39717 0.43324,2.35029 0.43323,0.95311 1.19139,1.44049 0.76898,0.48739 1.75459,0.48739 z m 7.88483,1.4405 v -11.43734 h 1.75459 v 1.79792 h 0.0433 q 0.31409,-0.88813 0.99643,-1.42967 0.68234,-0.54154 1.75459,-0.54154 0.24911,0 0.4549,0.0217 0.21661,0.0217 0.32492,0.0433 v 1.84124 q -0.10831,-0.0325 -0.4224,-0.0758 -0.30326,-0.0542 -0.704,-0.0542 -0.62819,0 -1.16973,0.29243 -0.54154,0.29244 -0.86647,0.90979 -0.32492,0.61736 -0.32492,1.59213 v 7.04003 z m 11.65395,0.25994 q -1.5813,0 -2.78352,-0.75816 -1.19139,-0.76899 -1.8629,-2.11201 -0.66067,-1.34302 -0.66067,-3.08678 0,-1.75459 0.66067,-3.10844 0.67151,-1.35385 1.8629,-2.12284 1.20222,-0.76899 2.78352,-0.76899 1.59213,0 2.78352,0.76899 1.19139,0.76899 1.85207,2.12284 0.67151,1.35385 0.67151,3.10844 0,1.74376 -0.67151,3.08678 -0.66068,1.34302 -1.85207,2.11201 -1.19139,0.75816 -2.78352,0.75816 z m 0,-1.66795 q 1.08308,0 1.85207,-0.53071 0.76899,-0.53071 1.18056,-1.49465 0.41157,-0.97477 0.41157,-2.26364 0,-1.31053 -0.41157,-2.27447 -0.41157,-0.97477 -1.18056,-1.51631 -0.76899,-0.54154 -1.85207,-0.54154 -1.07225,0 -1.85207,0.54154 -0.76898,0.53071 -1.18055,1.50548 -0.41158,0.97477 -0.41158,2.2853 0,1.2997 0.41158,2.26364 0.41157,0.96394 1.18055,1.49465 0.76899,0.53071 1.85207,0.53071 z m 7.4516,1.40801 v -11.43734 h 1.79791 v 2.33946 h -0.22745 q 0.33576,-0.83398 0.8773,-1.39718 0.55237,-0.57403 1.25637,-0.86646 0.70401,-0.29243 1.48383,-0.29243 1.34302,0 2.27447,0.76898 0.94228,0.75816 1.16972,1.78709 h -0.37908 q 0.24911,-0.70401 0.77982,-1.27804 0.53071,-0.58486 1.2997,-0.93145 0.77982,-0.34658 1.74376,-0.34658 1.05059,0 1.90622,0.45489 0.86647,0.45489 1.37552,1.37551 0.51987,0.92062 0.51987,2.32863 v 7.49492 h -1.84123 v -7.49492 q 0,-1.33219 -0.74733,-1.8954 -0.74732,-0.57403 -1.73293,-0.57403 -0.83397,0 -1.4405,0.34659 -0.60652,0.34658 -0.93145,0.95311 -0.32492,0.60652 -0.32492,1.38634 v 7.27831 h -1.84124 v -7.68988 q 0,-1.02893 -0.69317,-1.64628 -0.68234,-0.62819 -1.7221,-0.62819 -0.71483,0 -1.35385,0.33576 -0.62819,0.33575 -1.0181,1.00726 -0.38991,0.66068 -0.38991,1.64629 v 6.97504 z m 23.32956,0.25994 q -1.67877,0 -2.87016,-0.76899 -1.18056,-0.76899 -1.80875,-2.11201 -0.62819,-1.35385 -0.62819,-3.07595 0,-1.74376 0.66068,-3.09761 0.66068,-1.35385 1.83041,-2.12284 1.16973,-0.77982 2.68604,-0.77982 1.19139,0 2.1445,0.43323 0.96394,0.43324 1.64628,1.23472 0.68235,0.80148 1.03976,1.90622 0.36825,1.09391 0.36825,2.4261 v 0.50905 h -9.40114 v -1.5813 h 8.37221 l -0.79065,0.55237 q 0,-1.16973 -0.4224,-2.02536 -0.41157,-0.86646 -1.16973,-1.33219 -0.75815,-0.47655 -1.78708,-0.47655 -1.0181,0 -1.77625,0.47655 -0.74733,0.46573 -1.16973,1.33219 -0.41157,0.85563 -0.41157,2.02536 v 0.77982 q 0,1.18056 0.40074,2.09035 0.41157,0.90978 1.19139,1.42966 0.77982,0.50905 1.89539,0.50905 0.81231,0 1.42967,-0.24911 0.61735,-0.25994 1.01809,-0.71483 0.41157,-0.45489 0.58487,-1.05059 h 1.84124 q -0.21662,1.09391 -0.89896,1.92789 -0.68234,0.82314 -1.71127,1.28886 -1.0181,0.46573 -2.26364,0.46573 z m 11.54566,-0.0433 q -1.48382,0 -2.61023,-0.74732 -1.11557,-0.75816 -1.73293,-2.09035 -0.61735,-1.34302 -0.61735,-3.09761 0,-1.76542 0.61735,-3.09761 0.61736,-1.34302 1.73293,-2.09035 1.12641,-0.74732 2.61023,-0.74732 0.74732,0 1.41883,0.21661 0.68234,0.20579 1.23472,0.62819 0.55237,0.4224 0.92061,1.06142 h 0.0217 v -6.39018 h 1.84123 V 708.922 h -1.79791 v -1.73293 h -0.0217 q -0.41157,0.66068 -0.97478,1.09391 -0.5632,0.43323 -1.23471,0.63902 -0.66068,0.21661 -1.408,0.21661 z m 0.2816,-1.65711 q 1.06142,0 1.84124,-0.53071 0.77981,-0.53071 1.20222,-1.49465 0.4224,-0.96394 0.4224,-2.25281 0,-1.2997 -0.4224,-2.26364 -0.42241,-0.96394 -1.20222,-1.49465 -0.77982,-0.53071 -1.84124,-0.53071 -0.98561,0 -1.75459,0.48738 -0.75816,0.48739 -1.19139,1.4405 -0.43323,0.95311 -0.43323,2.36112 0,1.39717 0.43323,2.35029 0.43323,0.95311 1.19139,1.44049 0.76898,0.48739 1.75459,0.48739 z m 11.37234,1.61379 q -1.13724,0 -2.03619,-0.38991 -0.89896,-0.38991 -1.42967,-1.1589 -0.51988,-0.77981 -0.51988,-1.91705 0,-0.9856 0.37908,-1.60296 0.38991,-0.61736 1.02893,-0.96394 0.64985,-0.35742 1.46216,-0.54154 0.82314,-0.18413 1.67877,-0.29243 1.09391,-0.15164 1.7221,-0.22745 0.62819,-0.0758 0.88813,-0.24911 0.27077,-0.17329 0.27077,-0.60652 v -0.10831 q 0,-0.62819 -0.30327,-1.10475 -0.29243,-0.48738 -0.86646,-0.75815 -0.5632,-0.2816 -1.36468,-0.2816 -0.79065,0 -1.40801,0.27077 -0.60652,0.25994 -0.97477,0.71483 -0.35742,0.45489 -0.40074,1.02893 h -1.87373 q 0.0541,-1.05059 0.64985,-1.8629 0.59569,-0.82314 1.62462,-1.2997 1.02893,-0.47655 2.38278,-0.47655 0.99643,0 1.79791,0.27077 0.81231,0.27077 1.37551,0.76898 0.57404,0.49822 0.8773,1.19139 0.30326,0.69317 0.30326,1.53798 v 7.88483 h -1.81957 v -1.62462 h -0.0433 q -0.20578,0.41157 -0.60652,0.83397 -0.40074,0.41157 -1.08308,0.69317 -0.67151,0.27077 -1.71127,0.27077 z m 0.25994,-1.64628 q 1.1264,0 1.83041,-0.40074 0.704,-0.41157 1.02892,-1.06142 0.32493,-0.64985 0.32493,-1.39718 v -1.42966 q -0.10831,0.0975 -0.40074,0.18412 -0.2816,0.0867 -0.70401,0.17329 -0.41157,0.0758 -0.89895,0.15163 -0.47656,0.0758 -0.96395,0.1408 -0.66067,0.0866 -1.25637,0.30327 -0.58486,0.20578 -0.95311,0.59569 -0.36825,0.37908 -0.36825,1.02893 0,0.53071 0.2816,0.92062 0.29244,0.37908 0.82314,0.58486 0.53071,0.20579 1.25638,0.20579 z m 18.06579,6.1519 q -1.28887,0 -2.32863,-0.40074 -1.02892,-0.38991 -1.6896,-1.16973 -0.64985,-0.76899 -0.79065,-1.89539 h 1.88456 q 0.16246,0.61735 0.57403,1.01809 0.41157,0.41157 1.00727,0.61736 0.60652,0.20579 1.34302,0.20579 1.49465,0 2.35028,-0.80148 0.85564,-0.79065 0.85564,-2.25281 v -1.73293 h -0.0108 q -0.4224,0.66068 -0.97478,1.09391 -0.55237,0.43323 -1.21305,0.63902 -0.66068,0.21661 -1.41883,0.21661 -1.48382,0 -2.61023,-0.74732 -1.11557,-0.75816 -1.73293,-2.09035 -0.61735,-1.34302 -0.61735,-3.09761 0,-1.76542 0.61735,-3.09761 0.61736,-1.34302 1.73293,-2.09035 1.12641,-0.74732 2.61023,-0.74732 0.74732,0 1.41883,0.20578 0.68234,0.20579 1.24555,0.64985 0.57403,0.44406 0.96394,1.14807 h 0.0108 v -1.78709 h 1.79791 V 708.922 q 0,1.6896 -0.704,2.71853 -0.69317,1.02893 -1.84124,1.49465 -1.14806,0.46573 -2.48025,0.46573 z m -0.12997,-6.11941 q 1.06142,0 1.84124,-0.53071 0.77981,-0.53071 1.20222,-1.49465 0.4224,-0.96394 0.4224,-2.25281 0,-1.2997 -0.4224,-2.26364 -0.42241,-0.96394 -1.20222,-1.49465 -0.77982,-0.53071 -1.84124,-0.53071 -0.98561,0 -1.75459,0.48738 -0.75816,0.48739 -1.19139,1.4405 -0.43323,0.95311 -0.43323,2.36112 0,1.39717 0.43323,2.35029 0.43323,0.95311 1.19139,1.44049 0.76898,0.48739 1.75459,0.48739 z m 11.37237,1.61379 q -1.13724,0 -2.03619,-0.38991 -0.89896,-0.38991 -1.42967,-1.1589 -0.51988,-0.77981 -0.51988,-1.91705 0,-0.9856 0.37908,-1.60296 0.38991,-0.61736 1.02893,-0.96394 0.64985,-0.35742 1.46216,-0.54154 0.82314,-0.18413 1.67877,-0.29243 1.09391,-0.15164 1.7221,-0.22745 0.62819,-0.0758 0.88813,-0.24911 0.27077,-0.17329 0.27077,-0.60652 v -0.10831 q 0,-0.62819 -0.30327,-1.10475 -0.29243,-0.48738 -0.86646,-0.75815 -0.5632,-0.2816 -1.36468,-0.2816 -0.79065,0 -1.40801,0.27077 -0.60652,0.25994 -0.97477,0.71483 -0.35742,0.45489 -0.40074,1.02893 h -1.87373 q 0.0541,-1.05059 0.64985,-1.8629 0.59569,-0.82314 1.62462,-1.2997 1.02893,-0.47655 2.38278,-0.47655 0.99643,0 1.79791,0.27077 0.81231,0.27077 1.37552,0.76898 0.57403,0.49822 0.87729,1.19139 0.30326,0.69317 0.30326,1.53798 v 7.88483 h -1.81957 v -1.62462 h -0.0433 q -0.20578,0.41157 -0.60652,0.83397 -0.40074,0.41157 -1.08308,0.69317 -0.67151,0.27077 -1.71127,0.27077 z m 0.25994,-1.64628 q 1.1264,0 1.83041,-0.40074 0.704,-0.41157 1.02892,-1.06142 0.32493,-0.64985 0.32493,-1.39718 v -1.42966 q -0.10831,0.0975 -0.40074,0.18412 -0.2816,0.0867 -0.70401,0.17329 -0.41157,0.0758 -0.89895,0.15163 -0.47656,0.0758 -0.96394,0.1408 -0.66068,0.0866 -1.25638,0.30327 -0.58486,0.20578 -0.95311,0.59569 -0.36825,0.37908 -0.36825,1.02893 0,0.53071 0.2816,0.92062 0.29244,0.37908 0.82315,0.58486 0.5307,0.20579 1.25637,0.20579 z m 9.57443,-14.66492 V 708.922 h -1.84124 v -16.13791 z m 6.21687,16.3112 q -1.13724,0 -2.03619,-0.38991 -0.89896,-0.38991 -1.42967,-1.1589 -0.51988,-0.77981 -0.51988,-1.91705 0,-0.9856 0.37908,-1.60296 0.38991,-0.61736 1.02893,-0.96394 0.64984,-0.35742 1.46216,-0.54154 0.82314,-0.18413 1.67877,-0.29243 1.09391,-0.15164 1.7221,-0.22745 0.62819,-0.0758 0.88813,-0.24911 0.27077,-0.17329 0.27077,-0.60652 v -0.10831 q 0,-0.62819 -0.30327,-1.10475 -0.29243,-0.48738 -0.86646,-0.75815 -0.5632,-0.2816 -1.36468,-0.2816 -0.79065,0 -1.40801,0.27077 -0.60652,0.25994 -0.97477,0.71483 -0.35742,0.45489 -0.40074,1.02893 h -1.87373 q 0.0541,-1.05059 0.64985,-1.8629 0.59569,-0.82314 1.62462,-1.2997 1.02893,-0.47655 2.38278,-0.47655 0.99643,0 1.79791,0.27077 0.81231,0.27077 1.37551,0.76898 0.57404,0.49822 0.8773,1.19139 0.30326,0.69317 0.30326,1.53798 v 7.88483 h -1.81957 v -1.62462 h -0.0433 q -0.20578,0.41157 -0.60652,0.83397 -0.40074,0.41157 -1.08308,0.69317 -0.67151,0.27077 -1.71127,0.27077 z m 0.25994,-1.64628 q 1.1264,0 1.83041,-0.40074 0.704,-0.41157 1.02892,-1.06142 0.32493,-0.64985 0.32493,-1.39718 v -1.42966 q -0.10831,0.0975 -0.40074,0.18412 -0.2816,0.0867 -0.70401,0.17329 -0.41157,0.0758 -0.89895,0.15163 -0.47656,0.0758 -0.96395,0.1408 -0.66068,0.0866 -1.25637,0.30327 -0.58486,0.20578 -0.95311,0.59569 -0.36825,0.37908 -0.36825,1.02893 0,0.53071 0.2816,0.92062 0.29243,0.37908 0.82314,0.58486 0.53071,0.20579 1.25638,0.20579 z m 6.69343,1.47299 4.78722,-6.54181 -0.0108,1.41883 -4.52728,-6.31436 h 2.16616 l 1.54881,2.25281 q 0.46572,0.67151 0.90979,1.34302 0.44406,0.66068 0.89895,1.34302 h -0.90978 q 0.46572,-0.68234 0.90978,-1.34302 0.4549,-0.67151 0.92062,-1.34302 l 1.57047,-2.25281 h 2.13367 l -4.53811,6.31436 v -1.42966 l 4.73306,6.55264 h -2.15533 l -1.81957,-2.5994 q -0.4549,-0.64985 -0.88813,-1.28886 -0.43323,-0.63902 -0.8773,-1.2997 h 0.92062 q -0.44406,0.66068 -0.88812,1.2997 -0.44407,0.63901 -0.89896,1.28886 l -1.84124,2.5994 z m 12.36881,4.52728 v -1.62463 h 1.1264 q 0.35742,0 0.62819,-0.15163 0.2816,-0.1408 0.50905,-0.44406 0.22744,-0.30326 0.41157,-0.77982 l 0.62818,-1.62462 -4.4298,-11.33986 h 1.99287 l 2.46943,6.58513 q 0.31409,0.82315 0.60652,1.64629 0.29243,0.82314 0.5632,1.64628 h -0.48738 q 0.27077,-0.82314 0.5632,-1.64628 0.30326,-0.82314 0.60653,-1.64629 l 2.4261,-6.58513 h 1.96037 l -5.2746,13.56018 q -0.30326,0.76898 -0.76899,1.29969 -0.46572,0.54154 -1.07225,0.82314 -0.60652,0.28161 -1.33219,0.28161 -0.2816,0 -0.5632,0 -0.2816,0 -0.5632,0 z m 14.45912,-8.85961 v -1.21305 q 0,-1.20222 0.32492,-1.84124 0.33576,-0.63901 0.90979,-1.06141 0.58486,-0.43324 1.32136,-0.96395 0.92062,-0.67151 1.27803,-1.36468 0.36825,-0.704 0.36825,-1.41884 0,-0.76898 -0.35741,-1.32135 -0.35742,-0.56321 -1.0181,-0.86647 -0.66068,-0.30326 -1.5813,-0.30326 -0.99643,0 -1.71127,0.40074 -0.71483,0.38991 -1.09391,1.1264 -0.36825,0.7365 -0.36825,1.78709 h -1.93871 q 0,-1.51632 0.63902,-2.64272 0.63901,-1.12641 1.78708,-1.75459 1.1589,-0.62819 2.68604,-0.62819 1.42967,0 2.51275,0.54154 1.09391,0.53071 1.71127,1.48382 0.61735,0.94228 0.61735,2.17699 0,1.16973 -0.59569,2.177 -0.5957,1.00726 -1.7221,1.78708 -0.72566,0.49822 -1.13724,0.8773 -0.41157,0.36824 -0.58486,0.81231 -0.16246,0.44406 -0.16246,1.16973 v 1.03975 z m 0.94228,4.51645 q -0.5632,0 -0.96394,-0.38991 -0.38991,-0.40074 -0.38991,-0.96394 0,-0.57403 0.38991,-0.96394 0.40074,-0.38991 0.96394,-0.38991 0.57403,0 0.96394,0.38991 0.38991,0.38991 0.38991,0.96394 0,0.5632 -0.38991,0.96394 -0.38991,0.38991 -0.96394,0.38991 z"
     id="text1"
     style="font-size:22.1815px;line-height:1.5;font-family:Inter;-inkscape-font-specification:Inter;text-align:center;text-anchor:middle;stroke-width:3.32725;stroke-linecap:round"
     aria-label="How far is the Andromeda galaxy?" />
  <g
     class="overplot"
     id="g87"
     transform="translate(96.037772,78.701727)">
    <g
       class="xy"
       transform="translate(80,100)"
       clip-path="url(#clip356ca6xyplot)"
       id="g86">
      <g
         class="scatterlayer mlayer"
         id="g85">
        <g
           class="trace scatter tracea93192"
           style="opacity:1;stroke-miterlimit:2"
           id="g60">
          <g
             class="fills"
             id="g37" />
          <g
             class="errorbars"
             id="g38" />
          <g
             class="lines"
             id="g39" />
          <g
             class="points"
             id="g58">
            <path
               class="point plotly-customdata"
               transform="translate(114.68,278.85)"
               d="M 3,0 A 3,3 0 1 1 0,-3 3,3 0 0 1 3,0 Z"
               style="opacity:0.7;fill:#636efa;fill-opacity:1;stroke-width:0px"
               id="path39" />
            <path
               class="point plotly-customdata"
               transform="translate(376.89,330.06)"
               d="M 3,0 A 3,3 0 1 1 0,-3 3,3 0 0 1 3,0 Z"
               style="opacity:0.7;fill:#636efa;fill-opacity:1;stroke-width:0px"
               id="path40" />
            <path
               class="point plotly-customdata"
               transform="translate(33.65,344.56)"
               d="M 3,0 A 3,3 0 1 1 0,-3 3,3 0 0 1 3,0 Z"
               style="opacity:0.7;fill:#636efa;fill-opacity:1;stroke-width:0px"
               id="path41" />
            <path
               class="point plotly-customdata"
               transform="translate(293.51,389.15)"
               d="M 3,0 A 3,3 0 1 1 0,-3 3,3 0 0 1 3,0 Z"
               style="opacity:0.7;fill:#636efa;fill-opacity:1;stroke-width:0px"
               id="path42" />
            <path
               class="point plotly-customdata"
               transform="translate(216.18,348.7)"
               d="M 3,0 A 3,3 0 1 1 0,-3 3,3 0 0 1 3,0 Z"
               style="opacity:0.7;fill:#636efa;fill-opacity:1;stroke-width:0px"
               id="path43" />
            <path
               class="point plotly-customdata"
               transform="translate(43.78,286.68)"
               d="M 3,0 A 3,3 0 1 1 0,-3 3,3 0 0 1 3,0 Z"
               style="opacity:0.7;fill:#636efa;fill-opacity:1;stroke-width:0px"
               id="path44" />
            <path
               class="point plotly-customdata"
               transform="translate(184.67,272.59)"
               d="M 3,0 A 3,3 0 1 1 0,-3 3,3 0 0 1 3,0 Z"
               style="opacity:0.7;fill:#636efa;fill-opacity:1;stroke-width:0px"
               id="path45" />
            <path
               class="point plotly-customdata"
               transform="translate(315.99,266.8)"
               d="M 3,0 A 3,3 0 1 1 0,-3 3,3 0 0 1 3,0 Z"
               style="opacity:0.7;fill:#636efa;fill-opacity:1;stroke-width:0px"
               id="path46" />
            <path
               class="point plotly-customdata"
               transform="translate(312.6,321.87)"
               d="M 3,0 A 3,3 0 1 1 0,-3 3,3 0 0 1 3,0 Z"
               style="opacity:0.7;fill:#636efa;fill-opacity:1;stroke-width:0px"
               id="path47" />
            <path
               class="point plotly-customdata"
               transform="translate(275.63,395.25)"
               d="M 3,0 A 3,3 0 1 1 0,-3 3,3 0 0 1 3,0 Z"
               style="opacity:0.7;fill:#636efa;fill-opacity:1;stroke-width:0px"
               id="path48" />
            <path
               class="point plotly-customdata"
               transform="translate(422.49,309.79)"
               d="M 3,0 A 3,3 0 1 1 0,-3 3,3 0 0 1 3,0 Z"
               style="opacity:0.7;fill:#636efa;fill-opacity:1;stroke-width:0px"
               id="path49" />
            <path
               class="point plotly-customdata"
               transform="translate(88.38,300)"
               d="M 3,0 A 3,3 0 1 1 0,-3 3,3 0 0 1 3,0 Z"
               style="opacity:0.7;fill:#636efa;fill-opacity:1;stroke-width:0px"
               id="path50" />
            <path
               class="point plotly-customdata"
               transform="translate(89.81,281.92)"
               d="M 3,0 A 3,3 0 1 1 0,-3 3,3 0 0 1 3,0 Z"
               style="opacity:0.7;fill:#636efa;fill-opacity:1;stroke-width:0px"
               id="path51" />
            <path
               class="point plotly-customdata"
               transform="translate(256.61,255.92)"
               d="M 3,0 A 3,3 0 1 1 0,-3 3,3 0 0 1 3,0 Z"
               style="opacity:0.7;fill:#636efa;fill-opacity:1;stroke-width:0px"
               id="path52" />
            <path
               class="point plotly-customdata"
               transform="translate(98.68,266.75)"
               d="M 3,0 A 3,3 0 1 1 0,-3 3,3 0 0 1 3,0 Z"
               style="opacity:0.7;fill:#636efa;fill-opacity:1;stroke-width:0px"
               id="path53" />
            <path
               class="point plotly-customdata"
               transform="translate(278.8,377.4)"
               d="M 3,0 A 3,3 0 1 1 0,-3 3,3 0 0 1 3,0 Z"
               style="opacity:0.7;fill:#636efa;fill-opacity:1;stroke-width:0px"
               id="path54" />
            <path
               class="point plotly-customdata"
               transform="translate(149.45,263.96)"
               d="M 3,0 A 3,3 0 1 1 0,-3 3,3 0 0 1 3,0 Z"
               style="opacity:0.7;fill:#636efa;fill-opacity:1;stroke-width:0px"
               id="path55" />
            <path
               class="point plotly-customdata"
               transform="translate(122.04,356.17)"
               d="M 3,0 A 3,3 0 1 1 0,-3 3,3 0 0 1 3,0 Z"
               style="opacity:0.7;fill:#636efa;fill-opacity:1;stroke-width:0px"
               id="path56" />
            <path
               class="point plotly-customdata"
               transform="translate(427.89,305.67)"
               d="M 3,0 A 3,3 0 1 1 0,-3 3,3 0 0 1 3,0 Z"
               style="opacity:0.7;fill:#636efa;fill-opacity:1;stroke-width:0px"
               id="path57" />
            <path
               class="point plotly-customdata"
               transform="translate(58.46,293.06)"
               d="M 3,0 A 3,3 0 1 1 0,-3 3,3 0 0 1 3,0 Z"
               style="opacity:0.7;fill:#636efa;fill-opacity:1;stroke-width:0px"
               id="path58" />
          </g>
          <g
             class="text"
             id="g59" />
        </g>
        <g
           class="trace scatter trace420614"
           style="opacity:1;stroke-miterlimit:2"
           id="g84">
          <g
             class="fills"
             id="g61" />
          <g
             class="errorbars"
             id="g62" />
          <g
             class="lines"
             id="g63" />
          <g
             class="points"
             id="g82">
            <path
               class="point plotly-customdata"
               transform="translate(222.02,69.46)"
               d="M 3,0 A 3,3 0 1 1 0,-3 3,3 0 0 1 3,0 Z"
               style="opacity:0.7;fill:#ef553b;fill-opacity:1;stroke-width:0px"
               id="path63" />
            <path
               class="point plotly-customdata"
               transform="translate(507.07,89)"
               d="M 3,0 A 3,3 0 1 1 0,-3 3,3 0 0 1 3,0 Z"
               style="opacity:0.7;fill:#ef553b;fill-opacity:1;stroke-width:0px"
               id="path64" />
            <path
               class="point plotly-customdata"
               transform="translate(241.99,90.55)"
               d="M 3,0 A 3,3 0 1 1 0,-3 3,3 0 0 1 3,0 Z"
               style="opacity:0.7;fill:#ef553b;fill-opacity:1;stroke-width:0px"
               id="path65" />
            <path
               class="point plotly-customdata"
               transform="translate(467.59,157.51)"
               d="M 3,0 A 3,3 0 1 1 0,-3 3,3 0 0 1 3,0 Z"
               style="opacity:0.7;fill:#ef553b;fill-opacity:1;stroke-width:0px"
               id="path66" />
            <path
               class="point plotly-customdata"
               transform="translate(486.95,30.06)"
               d="M 3,0 A 3,3 0 1 1 0,-3 3,3 0 0 1 3,0 Z"
               style="opacity:0.7;fill:#ef553b;fill-opacity:1;stroke-width:0px"
               id="path67" />
            <path
               class="point plotly-customdata"
               transform="translate(536.02,132.53)"
               d="M 3,0 A 3,3 0 1 1 0,-3 3,3 0 0 1 3,0 Z"
               style="opacity:0.7;fill:#ef553b;fill-opacity:1;stroke-width:0px"
               id="path68" />
            <path
               class="point plotly-customdata"
               transform="translate(331.58,77.56)"
               d="M 3,0 A 3,3 0 1 1 0,-3 3,3 0 0 1 3,0 Z"
               style="opacity:0.7;fill:#ef553b;fill-opacity:1;stroke-width:0px"
               id="path69" />
            <path
               class="point plotly-customdata"
               transform="translate(123.48,113.23)"
               d="M 3,0 A 3,3 0 1 1 0,-3 3,3 0 0 1 3,0 Z"
               style="opacity:0.7;fill:#ef553b;fill-opacity:1;stroke-width:0px"
               id="path70" />
            <path
               class="point plotly-customdata"
               transform="translate(364.6,70.81)"
               d="M 3,0 A 3,3 0 1 1 0,-3 3,3 0 0 1 3,0 Z"
               style="opacity:0.7;fill:#ef553b;fill-opacity:1;stroke-width:0px"
               id="path71" />
            <path
               class="point plotly-customdata"
               transform="translate(544.64,86.16)"
               d="M 3,0 A 3,3 0 1 1 0,-3 3,3 0 0 1 3,0 Z"
               style="opacity:0.7;fill:#ef553b;fill-opacity:1;stroke-width:0px"
               id="path72" />
            <path
               class="point plotly-customdata"
               transform="translate(477.06,127.58)"
               d="M 3,0 A 3,3 0 1 1 0,-3 3,3 0 0 1 3,0 Z"
               style="opacity:0.7;fill:#ef553b;fill-opacity:1;stroke-width:0px"
               id="path73" />
            <path
               class="point plotly-customdata"
               transform="translate(243.1,101.41)"
               d="M 3,0 A 3,3 0 1 1 0,-3 3,3 0 0 1 3,0 Z"
               style="opacity:0.7;fill:#ef553b;fill-opacity:1;stroke-width:0px"
               id="path74" />
            <path
               class="point plotly-customdata"
               transform="translate(359.52,95.92)"
               d="M 3,0 A 3,3 0 1 1 0,-3 3,3 0 0 1 3,0 Z"
               style="opacity:0.7;fill:#ef553b;fill-opacity:1;stroke-width:0px"
               id="path75" />
            <path
               class="point plotly-customdata"
               transform="translate(366.21,142.86)"
               d="M 3,0 A 3,3 0 1 1 0,-3 3,3 0 0 1 3,0 Z"
               style="opacity:0.7;fill:#ef553b;fill-opacity:1;stroke-width:0px"
               id="path76" />
            <path
               class="point plotly-customdata"
               transform="translate(440.42,24.75)"
               d="M 3,0 A 3,3 0 1 1 0,-3 3,3 0 0 1 3,0 Z"
               style="opacity:0.7;fill:#ef553b;fill-opacity:1;stroke-width:0px"
               id="path77" />
            <path
               class="point plotly-customdata"
               transform="translate(564.35,130.41)"
               d="M 3,0 A 3,3 0 1 1 0,-3 3,3 0 0 1 3,0 Z"
               style="opacity:0.7;fill:#ef553b;fill-opacity:1;stroke-width:0px"
               id="path78" />
            <path
               class="point plotly-customdata"
               transform="translate(321.94,55.66)"
               d="M 3,0 A 3,3 0 1 1 0,-3 3,3 0 0 1 3,0 Z"
               style="opacity:0.7;fill:#ef553b;fill-opacity:1;stroke-width:0px"
               id="path79" />
            <path
               class="point plotly-customdata"
               transform="translate(529.91,39.66)"
               d="M 3,0 A 3,3 0 1 1 0,-3 3,3 0 0 1 3,0 Z"
               style="opacity:0.7;fill:#ef553b;fill-opacity:1;stroke-width:0px"
               id="path80" />
            <path
               class="point plotly-customdata"
               transform="translate(368.94,41.43)"
               d="M 3,0 A 3,3 0 1 1 0,-3 3,3 0 0 1 3,0 Z"
               style="opacity:0.7;fill:#ef553b;fill-opacity:1;stroke-width:0px"
               id="path81" />
            <path
               class="point plotly-customdata"
               transform="translate(481.75,134.12)"
               d="M 3,0 A 3,3 0 1 1 0,-3 3,3 0 0 1 3,0 Z"
               style="opacity:0.7;fill:#ef553b;fill-opacity:1;stroke-width:0px"
               id="path82" />
          </g>
          <g
             class="text"
             id="g83" />
        </g>
      </g>
    </g>
  </g>
  <path
     style="fill:none;fill-opacity:1;stroke:#000000;stroke-width:2;stroke-linecap:round;marker-end:url(#ArrowWide)"
     d="M 298.07778,534.87172 178.23579,654.71371"
     id="path7" />
  <rect
     style="fill:#e5ecf6;fill-opacity:1;stroke-width:2;stroke-linecap:round"
     id="rect8"
     width="347.34177"
     height="52.658226"
     x="590.39398"
     y="3.5522304" />
  <path
     d="M 624.30411,35.418259 V 19.280351 h 1.94955 v 7.007535 h 8.59966 v -7.007535 h 1.94955 v 16.137908 h -1.94955 v -7.397444 h -8.59966 v 7.397444 z m 20.18863,0.259939 q -1.5813,0 -2.78352,-0.758157 -1.19139,-0.768987 -1.8629,-2.112008 -0.66068,-1.34302 -0.66068,-3.086781 0,-1.754591 0.66068,-3.108442 0.67151,-1.353851 1.8629,-2.122839 1.20222,-0.768987 2.78352,-0.768987 1.59213,0 2.78352,0.768987 1.19139,0.768988 1.85207,2.122839 0.67151,1.353851 0.67151,3.108442 0,1.743761 -0.67151,3.086781 -0.66068,1.343021 -1.85207,2.112008 -1.19139,0.758157 -2.78352,0.758157 z m 0,-1.667945 q 1.08308,0 1.85207,-0.530709 0.76899,-0.53071 1.18056,-1.494652 0.41157,-0.974773 0.41157,-2.26364 0,-1.310528 -0.41157,-2.27447 -0.41157,-0.974773 -1.18056,-1.516313 -0.76899,-0.541541 -1.85207,-0.541541 -1.07225,0 -1.85207,0.541541 -0.76898,0.53071 -1.18056,1.505482 -0.41157,0.974773 -0.41157,2.285301 0,1.299698 0.41157,2.26364 0.41158,0.963942 1.18056,1.494652 0.76899,0.530709 1.85207,0.530709 z m 9.56361,1.408006 -3.55251,-11.437336 h 1.92788 l 1.4405,5.025496 q 0.33576,1.158897 0.63902,2.371947 0.31409,1.213051 0.62819,2.382779 h -0.25994 q 0.31409,-1.169728 0.62818,-2.382779 0.3141,-1.21305 0.64985,-2.371947 l 1.45133,-5.025496 h 1.81958 l 1.42966,5.025496 q 0.33576,1.158897 0.63902,2.371947 0.3141,1.213051 0.62819,2.382779 h -0.29243 q 0.32492,-1.169728 0.63901,-2.382779 0.32493,-1.21305 0.66068,-2.371947 l 1.47299,-5.025496 h 1.92789 l -3.55251,11.437336 h -1.92788 l -1.50548,-5.198789 q -0.21662,-0.779819 -0.43324,-1.581299 -0.20578,-0.80148 -0.41157,-1.60296 -0.20578,-0.81231 -0.4224,-1.592129 h 0.48739 q -0.21662,0.779819 -0.43323,1.592129 -0.20579,0.80148 -0.42241,1.60296 -0.20578,0.80148 -0.43323,1.581299 l -1.53797,5.198789 z m 24.70507,-11.437336 v 1.581298 h -6.19522 v -1.581298 z m -4.15903,-3.119273 h 1.84124 v 11.783921 q 0,0.66068 0.27077,0.93145 0.2816,0.259939 0.9856,0.259939 0.24911,0 0.53071,0 0.29244,0 0.53071,0 v 1.581299 q -0.2816,0 -0.61735,0 -0.33576,0 -0.61736,0 -1.47299,0 -2.19865,-0.639018 -0.72567,-0.649849 -0.72567,-1.938715 z m 10.57087,14.816548 q -1.5813,0 -2.78352,-0.758157 -1.19138,-0.768987 -1.86289,-2.112008 -0.66068,-1.34302 -0.66068,-3.086781 0,-1.754591 0.66068,-3.108442 0.67151,-1.353851 1.86289,-2.122839 1.20222,-0.768987 2.78352,-0.768987 1.59213,0 2.78352,0.768987 1.19139,0.768988 1.85207,2.122839 0.67151,1.353851 0.67151,3.108442 0,1.743761 -0.67151,3.086781 -0.66068,1.343021 -1.85207,2.112008 -1.19139,0.758157 -2.78352,0.758157 z m 0,-1.667945 q 1.08308,0 1.85207,-0.530709 0.76899,-0.53071 1.18056,-1.494652 0.41157,-0.974773 0.41157,-2.26364 0,-1.310528 -0.41157,-2.27447 -0.41157,-0.974773 -1.18056,-1.516313 -0.76899,-0.541541 -1.85207,-0.541541 -1.07225,0 -1.85207,0.541541 -0.76898,0.53071 -1.18055,1.505482 -0.41157,0.974773 -0.41157,2.285301 0,1.299698 0.41157,2.26364 0.41157,0.963942 1.18055,1.494652 0.76899,0.530709 1.85207,0.530709 z m 17.71921,1.667945 q -1.5813,0 -2.78352,-0.758157 -1.19139,-0.768987 -1.8629,-2.112008 -0.66068,-1.34302 -0.66068,-3.086781 0,-1.754591 0.66068,-3.108442 0.67151,-1.353851 1.8629,-2.122839 1.20222,-0.768987 2.78352,-0.768987 0.97477,0 1.79791,0.303262 0.83397,0.292432 1.46216,0.833973 0.63902,0.530709 1.03976,1.256374 0.40074,0.725664 0.51988,1.592129 h -1.8629 q -0.0975,-0.509048 -0.33576,-0.93145 -0.23827,-0.422402 -0.61735,-0.725664 -0.36825,-0.314094 -0.86647,-0.487387 -0.49822,-0.173293 -1.13723,-0.173293 -1.07225,0 -1.85207,0.541541 -0.76899,0.53071 -1.18056,1.505482 -0.41157,0.974773 -0.41157,2.285301 0,1.299698 0.41157,2.26364 0.41157,0.963942 1.18056,1.494652 0.76899,0.530709 1.85207,0.530709 0.63901,0 1.1264,-0.162462 0.48739,-0.162462 0.83397,-0.465725 0.35742,-0.314093 0.5957,-0.736495 0.23828,-0.433232 0.36825,-0.953111 h 1.89539 q -0.11914,0.844803 -0.51988,1.570467 -0.40074,0.725665 -1.03976,1.267205 -0.63902,0.541541 -1.47299,0.844803 -0.82314,0.303263 -1.78708,0.303263 z m 11.5998,0 q -1.5813,0 -2.78352,-0.758157 -1.19139,-0.768987 -1.8629,-2.112008 -0.66068,-1.34302 -0.66068,-3.086781 0,-1.754591 0.66068,-3.108442 0.67151,-1.353851 1.8629,-2.122839 1.20222,-0.768987 2.78352,-0.768987 1.59213,0 2.78352,0.768987 1.19138,0.768988 1.85206,2.122839 0.67151,1.353851 0.67151,3.108442 0,1.743761 -0.67151,3.086781 -0.66068,1.343021 -1.85206,2.112008 -1.19139,0.758157 -2.78352,0.758157 z m 0,-1.667945 q 1.08308,0 1.85207,-0.530709 0.76898,-0.53071 1.18055,-1.494652 0.41157,-0.974773 0.41157,-2.26364 0,-1.310528 -0.41157,-2.27447 -0.41157,-0.974773 -1.18055,-1.516313 -0.76899,-0.541541 -1.85207,-0.541541 -1.07225,0 -1.85207,0.541541 -0.76899,0.53071 -1.18056,1.505482 -0.41157,0.974773 -0.41157,2.285301 0,1.299698 0.41157,2.26364 0.41157,0.963942 1.18056,1.494652 0.76899,0.530709 1.85207,0.530709 z m 12.17383,1.667945 q -1.5813,0 -2.78352,-0.758157 -1.19139,-0.768987 -1.8629,-2.112008 -0.66068,-1.34302 -0.66068,-3.086781 0,-1.754591 0.66068,-3.108442 0.67151,-1.353851 1.8629,-2.122839 1.20222,-0.768987 2.78352,-0.768987 1.59212,0 2.78351,0.768987 1.19139,0.768988 1.85207,2.122839 0.67151,1.353851 0.67151,3.108442 0,1.743761 -0.67151,3.086781 -0.66068,1.343021 -1.85207,2.112008 -1.19139,0.758157 -2.78351,0.758157 z m 0,-1.667945 q 1.08308,0 1.85206,-0.530709 0.76899,-0.53071 1.18056,-1.494652 0.41157,-0.974773 0.41157,-2.26364 0,-1.310528 -0.41157,-2.27447 -0.41157,-0.974773 -1.18056,-1.516313 -0.76898,-0.541541 -1.85206,-0.541541 -1.07225,0 -1.85207,0.541541 -0.76899,0.53071 -1.18056,1.505482 -0.41157,0.974773 -0.41157,2.285301 0,1.299698 0.41157,2.26364 0.41157,0.963942 1.18056,1.494652 0.76898,0.530709 1.85207,0.530709 z m 9.1737,-2.707702 v -2.176993 h 0.1408 l 5.31792,-5.144635 h 2.38278 l -5.56703,5.415405 h -0.1733 z m -1.7221,4.115708 V 19.280351 h 1.84124 v 16.137908 z m 7.5924,0 -4.65725,-5.61036 1.29969,-1.278036 5.69701,6.888396 z m 12.6937,0.173293 q -1.13723,0 -2.03619,-0.38991 -0.89896,-0.389909 -1.42967,-1.158896 -0.51988,-0.779819 -0.51988,-1.917054 0,-0.985603 0.37908,-1.60296 0.38991,-0.617356 1.02893,-0.963942 0.64985,-0.357416 1.46216,-0.54154 0.82314,-0.184124 1.67877,-0.292432 1.09392,-0.151631 1.7221,-0.227447 0.62819,-0.07582 0.88813,-0.249109 0.27077,-0.173293 0.27077,-0.606525 v -0.108308 q 0,-0.628187 -0.30326,-1.104743 -0.29243,-0.487386 -0.86647,-0.758157 -0.5632,-0.281601 -1.36468,-0.281601 -0.79065,0 -1.408,0.270771 -0.60653,0.259939 -0.97478,0.714833 -0.35741,0.454894 -0.40074,1.028927 h -1.87373 q 0.0542,-1.050589 0.64985,-1.862899 0.5957,-0.823142 1.62462,-1.299698 1.02893,-0.476555 2.38278,-0.476555 0.99644,0 1.79792,0.27077 0.81231,0.27077 1.37551,0.768988 0.57403,0.498217 0.87729,1.191389 0.30327,0.693172 0.30327,1.537975 v 7.88483 H 757.848 v -1.624622 h -0.0433 q -0.20579,0.411571 -0.60653,0.833973 -0.40074,0.41157 -1.08308,0.693171 -0.67151,0.270771 -1.71127,0.270771 z m 0.25994,-1.646284 q 1.12641,0 1.83041,-0.40074 0.704,-0.41157 1.02893,-1.061419 0.32492,-0.649849 0.32492,-1.397174 v -1.429667 q -0.10831,0.09748 -0.40074,0.184123 -0.2816,0.08665 -0.704,0.173293 -0.41157,0.07582 -0.89896,0.151632 -0.47656,0.07581 -0.96394,0.1408 -0.66068,0.08665 -1.25638,0.303263 -0.58486,0.205785 -0.95311,0.595694 -0.36824,0.379079 -0.36824,1.028927 0,0.53071 0.2816,0.920619 0.29243,0.379079 0.82314,0.584864 0.53071,0.205785 1.25637,0.205785 z m 13.27857,6.000269 V 23.980923 h 1.79792 v 1.689606 h 0.0217 q 0.36825,-0.639017 0.93145,-1.061419 0.5632,-0.422402 1.25637,-0.628187 0.69317,-0.216616 1.42967,-0.216616 1.49465,0 2.61023,0.747326 1.11557,0.747326 1.73292,2.090346 0.61736,1.33219 0.61736,3.097612 0,1.754591 -0.61736,3.097612 -0.61735,1.332189 -1.73292,2.090346 -1.11558,0.747326 -2.61023,0.747326 -0.7365,0 -1.39717,-0.216616 -0.66068,-0.205786 -1.21306,-0.639018 -0.55237,-0.433233 -0.96394,-1.093912 h -0.0217 v 6.260208 z m 5.15547,-5.967776 q 0.99643,0 1.75459,-0.487387 0.75816,-0.487386 1.19139,-1.440497 0.43323,-0.953112 0.43323,-2.350286 0,-1.408006 -0.43323,-2.361117 -0.43323,-0.953111 -1.19139,-1.440498 -0.75816,-0.487386 -1.75459,-0.487386 -1.06142,0 -1.84124,0.53071 -0.77982,0.530709 -1.20222,1.494651 -0.4224,0.963943 -0.4224,2.26364 0,1.288866 0.4224,2.252808 0.4224,0.963942 1.20222,1.494652 0.77982,0.53071 1.84124,0.53071 z m 12.10885,1.700437 q -1.67878,0 -2.87016,-0.768987 -1.18056,-0.768988 -1.80875,-2.112008 -0.62819,-1.353852 -0.62819,-3.075951 0,-1.74376 0.66068,-3.097611 0.66068,-1.353852 1.83041,-2.122839 1.16973,-0.779818 2.68604,-0.779818 1.19139,0 2.1445,0.433232 0.96394,0.433232 1.64628,1.234712 0.68235,0.80148 1.03976,1.906223 0.36825,1.093912 0.36825,2.426101 v 0.509049 h -9.40114 v -1.581299 h 8.37221 l -0.79065,0.552372 q 0,-1.169728 -0.4224,-2.025362 -0.41157,-0.866465 -1.16973,-1.33219 -0.75815,-0.476555 -1.78708,-0.476555 -1.0181,0 -1.77625,0.476555 -0.74733,0.465725 -1.16973,1.33219 -0.41157,0.855634 -0.41157,2.025362 v 0.779818 q 0,1.180558 0.40074,2.090346 0.41157,0.909788 1.19139,1.429667 0.77982,0.509048 1.89539,0.509048 0.81231,0 1.42967,-0.249108 0.61735,-0.25994 1.01809,-0.714834 0.41157,-0.454894 0.58487,-1.050588 h 1.84123 q -0.21661,1.093911 -0.89895,1.927884 -0.68234,0.823141 -1.71127,1.288866 -1.0181,0.465725 -2.26364,0.465725 z m 7.16999,-0.259939 V 23.980923 h 1.7546 v 1.797915 h 0.0433 q 0.31409,-0.888127 0.99643,-1.429667 0.68234,-0.541541 1.75459,-0.541541 0.24911,0 0.4549,0.02166 0.21661,0.02166 0.32492,0.04332 v 1.841238 q -0.10831,-0.03249 -0.4224,-0.07582 -0.30326,-0.05415 -0.704,-0.05415 -0.62819,0 -1.16973,0.292432 -0.54154,0.292432 -0.86646,0.909788 -0.32493,0.617356 -0.32493,1.592129 v 7.040027 z m 12.48793,-11.437336 v 1.581298 h -6.19523 v -1.581298 z m -4.15903,11.437336 V 21.944731 q 0,-0.823142 0.36824,-1.418836 0.36825,-0.595695 1.03976,-0.920619 0.68234,-0.324925 1.60296,-0.324925 0.37908,0 0.71483,0 0.33576,0 0.43324,0 v 1.581299 q -0.0975,0 -0.44407,0 -0.33575,0 -0.53071,0 -0.72566,0 -1.03975,0.314093 -0.30327,0.314094 -0.30327,1.050589 v 13.191927 z m 10.46257,0.259939 q -1.67878,0 -2.87017,-0.768987 -1.18056,-0.768988 -1.80874,-2.112008 -0.62819,-1.353852 -0.62819,-3.075951 0,-1.74376 0.66068,-3.097611 0.66068,-1.353852 1.83041,-2.122839 1.16972,-0.779818 2.68604,-0.779818 1.19139,0 2.1445,0.433232 0.96394,0.433232 1.64628,1.234712 0.68234,0.80148 1.03976,1.906223 0.36825,1.093912 0.36825,2.426101 v 0.509049 h -9.40115 v -1.581299 h 8.37222 l -0.79065,0.552372 q 0,-1.169728 -0.4224,-2.025362 -0.41157,-0.866465 -1.16973,-1.33219 -0.75816,-0.476555 -1.78708,-0.476555 -1.0181,0 -1.77626,0.476555 -0.74732,0.465725 -1.16972,1.33219 -0.41157,0.855634 -0.41157,2.025362 v 0.779818 q 0,1.180558 0.40074,2.090346 0.41157,0.909788 1.19138,1.429667 0.77982,0.509048 1.8954,0.509048 0.81231,0 1.42966,-0.249108 0.61736,-0.25994 1.0181,-0.714834 0.41157,-0.454894 0.58486,-1.050588 h 1.84124 q -0.21662,1.093911 -0.89896,1.927884 -0.68234,0.823141 -1.71126,1.288866 -1.0181,0.465725 -2.26364,0.465725 z m 11.89222,0 q -1.58129,0 -2.78351,-0.758157 -1.19139,-0.768987 -1.8629,-2.112008 -0.66068,-1.34302 -0.66068,-3.086781 0,-1.754591 0.66068,-3.108442 0.67151,-1.353851 1.8629,-2.122839 1.20222,-0.768987 2.78351,-0.768987 0.97478,0 1.79792,0.303262 0.83397,0.292432 1.46216,0.833973 0.63902,0.530709 1.03976,1.256374 0.40074,0.725664 0.51987,1.592129 h -1.8629 q -0.0975,-0.509048 -0.33575,-0.93145 -0.23828,-0.422402 -0.61736,-0.725664 -0.36824,-0.314094 -0.86646,-0.487387 -0.49822,-0.173293 -1.13724,-0.173293 -1.07225,0 -1.85206,0.541541 -0.76899,0.53071 -1.18056,1.505482 -0.41157,0.974773 -0.41157,2.285301 0,1.299698 0.41157,2.26364 0.41157,0.963942 1.18056,1.494652 0.76898,0.530709 1.85206,0.530709 0.63902,0 1.12641,-0.162462 0.48738,-0.162462 0.83397,-0.465725 0.35742,-0.314093 0.59569,-0.736495 0.23828,-0.433232 0.36825,-0.953111 h 1.89539 q -0.11913,0.844803 -0.51987,1.570467 -0.40074,0.725665 -1.03976,1.267205 -0.63902,0.541541 -1.47299,0.844803 -0.82314,0.303263 -1.78709,0.303263 z m 11.87057,-11.697275 v 1.581298 h -6.19523 v -1.581298 z m -4.15903,-3.119273 h 1.84123 v 11.783921 q 0,0.66068 0.27077,0.93145 0.2816,0.259939 0.98561,0.259939 0.24911,0 0.53071,0 0.29243,0 0.53071,0 v 1.581299 q -0.2816,0 -0.61736,0 -0.33575,0 -0.61736,0 -1.47299,0 -2.19865,-0.639018 -0.72566,-0.649849 -0.72566,-1.938715 z m 15.59637,14.816548 q -1.22388,0 -2.22031,-0.40074 -0.99644,-0.40074 -1.6138,-1.213051 -0.61735,-0.823141 -0.69317,-2.068684 h 1.81958 q 0.0975,1.018096 0.77982,1.559636 0.68234,0.541541 1.88456,0.541541 1.19139,0 1.87373,-0.498217 0.69317,-0.498218 0.69317,-1.256374 0,-0.649849 -0.47656,-1.039758 -0.47655,-0.389909 -1.24554,-0.563202 l -1.84124,-0.433233 q -1.59213,-0.379078 -2.41527,-1.191389 -0.81231,-0.812311 -0.81231,-2.057854 0,-0.974773 0.51988,-1.722099 0.53071,-0.758156 1.46216,-1.180558 0.94228,-0.433232 2.16616,-0.433232 1.19139,0 2.13367,0.454894 0.95311,0.444063 1.50549,1.267204 0.5632,0.823142 0.59569,1.960377 h -1.79791 q -0.0108,-0.909788 -0.67152,-1.505483 -0.66067,-0.595694 -1.76542,-0.595694 -1.05059,0 -1.67877,0.509048 -0.62819,0.509048 -0.62819,1.245543 0,0.649849 0.47656,1.050589 0.47655,0.389909 1.29969,0.584863 l 1.84124,0.433233 q 1.64628,0.389909 2.41527,1.169727 0.76899,0.768988 0.76899,2.0037 0,1.06142 -0.57403,1.819576 -0.57404,0.758157 -1.57047,1.158897 -0.98561,0.40074 -2.23115,0.40074 z m 11.75142,-11.697275 v 1.581298 h -6.19522 v -1.581298 z m -4.15903,-3.119273 h 1.84124 v 11.783921 q 0,0.66068 0.27077,0.93145 0.2816,0.259939 0.9856,0.259939 0.24911,0 0.53071,0 0.29244,0 0.53071,0 v 1.581299 q -0.2816,0 -0.61735,0 -0.33576,0 -0.61736,0 -1.47299,0 -2.19865,-0.639018 -0.72567,-0.649849 -0.72567,-1.938715 z m 10.57088,14.816548 q -1.67878,0 -2.87016,-0.768987 -1.18056,-0.768988 -1.80875,-2.112008 -0.62819,-1.353852 -0.62819,-3.075951 0,-1.74376 0.66068,-3.097611 0.66068,-1.353852 1.83041,-2.122839 1.16973,-0.779818 2.68604,-0.779818 1.19139,0 2.1445,0.433232 0.96394,0.433232 1.64628,1.234712 0.68234,0.80148 1.03976,1.906223 0.36825,1.093912 0.36825,2.426101 v 0.509049 h -9.40114 v -1.581299 h 8.37221 l -0.79065,0.552372 q 0,-1.169728 -0.4224,-2.025362 -0.41157,-0.866465 -1.16973,-1.33219 -0.75815,-0.476555 -1.78708,-0.476555 -1.0181,0 -1.77625,0.476555 -0.74733,0.465725 -1.16973,1.33219 -0.41157,0.855634 -0.41157,2.025362 v 0.779818 q 0,1.180558 0.40074,2.090346 0.41157,0.909788 1.19139,1.429667 0.77982,0.509048 1.89539,0.509048 0.81231,0 1.42967,-0.249108 0.61735,-0.25994 1.01809,-0.714834 0.41157,-0.454894 0.58487,-1.050588 h 1.84123 q -0.21661,1.093911 -0.89895,1.927884 -0.68234,0.823141 -1.71127,1.288866 -1.0181,0.465725 -2.26364,0.465725 z m 10.76582,-0.08665 q -1.13723,0 -2.03619,-0.38991 -0.89896,-0.389909 -1.42967,-1.158896 -0.51988,-0.779819 -0.51988,-1.917054 0,-0.985603 0.37908,-1.60296 0.38991,-0.617356 1.02893,-0.963942 0.64985,-0.357416 1.46216,-0.54154 0.82314,-0.184124 1.67877,-0.292432 1.09392,-0.151631 1.7221,-0.227447 0.62819,-0.07582 0.88813,-0.249109 0.27077,-0.173293 0.27077,-0.606525 v -0.108308 q 0,-0.628187 -0.30326,-1.104743 -0.29244,-0.487386 -0.86647,-0.758157 -0.5632,-0.281601 -1.36468,-0.281601 -0.79065,0 -1.40801,0.270771 -0.60652,0.259939 -0.97477,0.714833 -0.35742,0.454894 -0.40074,1.028927 h -1.87373 q 0.0542,-1.050589 0.64985,-1.862899 0.59569,-0.823142 1.62462,-1.299698 1.02893,-0.476555 2.38278,-0.476555 0.99643,0 1.79791,0.27077 0.81231,0.27077 1.37552,0.768988 0.57403,0.498217 0.87729,1.191389 0.30327,0.693172 0.30327,1.537975 v 7.88483 h -1.81958 v -1.624622 h -0.0433 q -0.20579,0.411571 -0.60653,0.833973 -0.40074,0.41157 -1.08308,0.693171 -0.67151,0.270771 -1.71127,0.270771 z m 0.25994,-1.646284 q 1.12641,0 1.83041,-0.40074 0.704,-0.41157 1.02892,-1.061419 0.32493,-0.649849 0.32493,-1.397174 v -1.429667 q -0.10831,0.09748 -0.40074,0.184123 -0.2816,0.08665 -0.704,0.173293 -0.41157,0.07582 -0.89896,0.151632 -0.47656,0.07581 -0.96394,0.1408 -0.66068,0.08665 -1.25638,0.303263 -0.58486,0.205785 -0.95311,0.595694 -0.36825,0.379079 -0.36825,1.028927 0,0.53071 0.28161,0.920619 0.29243,0.379079 0.82314,0.584864 0.53071,0.205785 1.25637,0.205785 z m 9.45529,-2.642717 v -2.176993 h 0.1408 l 5.31793,-5.144635 h 2.38278 l -5.56704,5.415405 h -0.17329 z m -1.7221,4.115708 V 19.280351 h 1.84124 v 16.137908 z m 7.5924,0 -4.65725,-5.61036 1.2997,-1.278036 5.69701,6.888396 z m 6.8559,-4.332324 v -1.213051 q 0,-1.20222 0.32492,-1.841238 0.33576,-0.639018 0.90979,-1.061419 0.58486,-0.433233 1.32136,-0.963942 0.92062,-0.671511 1.27803,-1.364683 0.36825,-0.704002 0.36825,-1.418836 0,-0.768987 -0.35742,-1.321359 -0.35741,-0.563202 -1.01809,-0.866464 -0.66068,-0.303263 -1.5813,-0.303263 -0.99644,0 -1.71127,0.40074 -0.71483,0.389909 -1.09391,1.126404 -0.36825,0.736495 -0.36825,1.787084 h -1.93871 q 0,-1.516314 0.63901,-2.642718 0.63902,-1.126404 1.78709,-1.754591 1.15889,-0.628187 2.68604,-0.628187 1.42967,0 2.51275,0.54154 1.09391,0.53071 1.71127,1.483821 0.61735,0.942281 0.61735,2.176993 0,1.169728 -0.59569,2.176993 -0.5957,1.007266 -1.7221,1.787084 -0.72567,0.498217 -1.13724,0.877295 -0.41157,0.368248 -0.58486,0.812311 -0.16246,0.444063 -0.16246,1.169728 v 1.039758 z m 0.94228,4.516447 q -0.56321,0 -0.96395,-0.389909 -0.3899,-0.40074 -0.3899,-0.963942 0,-0.574033 0.3899,-0.963942 0.40074,-0.389909 0.96395,-0.389909 0.57403,0 0.96394,0.389909 0.38991,0.389909 0.38991,0.963942 0,0.563202 -0.38991,0.963942 -0.38991,0.389909 -0.96394,0.389909 z"
     id="text8"
     style="font-size:22.1815px;line-height:1.5;font-family:Inter;-inkscape-font-specification:Inter;text-align:center;text-anchor:middle;stroke-width:3.32725;stroke-linecap:round"
     aria-label="How to cook a perfect steak?" />
  <path
     style="fill:none;fill-opacity:1;stroke:#000000;stroke-width:2;stroke-linecap:round;marker-end:url(#marker10)"
     d="M 662.98778,208.76172 764.06491,80.223497"
     id="path9"
     sodipodi:nodetypes="cc" />
</svg>
