<?xml version="1.0" encoding="UTF-8" standalone="no"?>
<svg
   class="main-svg"
   width="1512"
   height="1080"
   viewBox="0 0 1512 1080"
   version="1.1"
   id="svg119"
   sodipodi:docname="english_arabic_concept_same_location_vector_space.svg"
   inkscape:version="1.4.2 (ebf0e940d0, 2025-05-08)"
   xml:space="preserve"
   xmlns:inkscape="http://www.inkscape.org/namespaces/inkscape"
   xmlns:sodipodi="http://sodipodi.sourceforge.net/DTD/sodipodi-0.dtd"
   xmlns="http://www.w3.org/2000/svg"
   xmlns:svg="http://www.w3.org/2000/svg"><sodipodi:namedview
     id="namedview119"
     pagecolor="#ffffff"
     bordercolor="#000000"
     borderopacity="0.25"
     inkscape:showpageshadow="2"
     inkscape:pageopacity="0.0"
     inkscape:pagecheckerboard="0"
     inkscape:deskcolor="#d1d1d1"
     inkscape:zoom="1.143"
     inkscape:cx="707.78653"
     inkscape:cy="325.02187"
     inkscape:window-width="2560"
     inkscape:window-height="1371"
     inkscape:window-x="0"
     inkscape:window-y="0"
     inkscape:window-maximized="1"
     inkscape:current-layer="svg119"
     showguides="true" /><rect
     x="0"
     y="0"
     width="1512"
     height="1080"
     style="fill:#ffffff;fill-opacity:1;stroke-width:1"
     id="rect1" /><defs
     id="defs-6c5022"><inkscape:path-effect
       effect="bspline"
       id="path-effect154"
       is_visible="true"
       lpeversion="1.3"
       weight="33.333333"
       steps="2"
       helper_size="0"
       apply_no_weight="true"
       apply_with_weight="true"
       only_selected="false"
       uniform="false" /><inkscape:path-effect
       effect="bspline"
       id="path-effect152"
       is_visible="true"
       lpeversion="1.3"
       weight="33.333333"
       steps="2"
       helper_size="0"
       apply_no_weight="true"
       apply_with_weight="true"
       only_selected="false"
       uniform="false" /><inkscape:path-effect
       effect="bspline"
       id="path-effect150"
       is_visible="true"
       lpeversion="1.3"
       weight="33.333333"
       steps="2"
       helper_size="0"
       apply_no_weight="true"
       apply_with_weight="true"
       only_selected="false"
       uniform="false" /><inkscape:path-effect
       effect="bspline"
       id="path-effect148"
       is_visible="true"
       lpeversion="1.3"
       weight="33.333333"
       steps="2"
       helper_size="0"
       apply_no_weight="true"
       apply_with_weight="true"
       only_selected="false"
       uniform="false" /><inkscape:path-effect
       effect="bspline"
       id="path-effect146"
       is_visible="true"
       lpeversion="1.3"
       weight="33.333333"
       steps="2"
       helper_size="0"
       apply_no_weight="true"
       apply_with_weight="true"
       only_selected="false"
       uniform="false" /><inkscape:path-effect
       effect="bspline"
       id="path-effect144"
       is_visible="true"
       lpeversion="1.3"
       weight="33.333333"
       steps="2"
       helper_size="0"
       apply_no_weight="true"
       apply_with_weight="true"
       only_selected="false"
       uniform="false" /><inkscape:path-effect
       effect="bspline"
       id="path-effect142"
       is_visible="true"
       lpeversion="1.3"
       weight="33.333333"
       steps="2"
       helper_size="0"
       apply_no_weight="true"
       apply_with_weight="true"
       only_selected="false"
       uniform="false" /><inkscape:path-effect
       effect="bspline"
       id="path-effect140"
       is_visible="true"
       lpeversion="1.3"
       weight="33.333333"
       steps="2"
       helper_size="0"
       apply_no_weight="true"
       apply_with_weight="true"
       only_selected="false"
       uniform="false" /><inkscape:path-effect
       effect="bspline"
       id="path-effect138"
       is_visible="true"
       lpeversion="1.3"
       weight="33.333333"
       steps="2"
       helper_size="0"
       apply_no_weight="true"
       apply_with_weight="true"
       only_selected="false"
       uniform="false" /><inkscape:path-effect
       effect="bspline"
       id="path-effect136"
       is_visible="true"
       lpeversion="1.3"
       weight="33.333333"
       steps="2"
       helper_size="0"
       apply_no_weight="true"
       apply_with_weight="true"
       only_selected="false"
       uniform="false" /></defs><path
     class="xlines-below"
     id="path32"
     d=""
     style="stroke-width:1" /><path
     class="ylines-below"
     id="path33"
     d=""
     style="stroke-width:1" /><path
     class="xlines-above crisp"
     d="M 0,0"
     style="fill:none;stroke-width:1"
     id="path68" /><path
     class="ylines-above crisp"
     d="M 0,0"
     style="fill:none;stroke-width:1"
     id="path69" /><defs
     id="topdefs-6c5022" /><rect
     class="scrollbar"
     rx="43.200001"
     ry="6.48"
     width="0"
     height="0"
     style="fill:#808ba4;fill-opacity:1;stroke-width:1"
     x="1303.0416"
     y="216"
     id="rect114" /><rect
     class="bg"
     x="261.5134"
     y="205.73682"
     width="1108.08"
     height="691.20001"
     style="fill:#e5ecf6;fill-opacity:1;stroke-width:0"
     id="rect7" /><path
     class="xgrid crisp"
     d="m 400.207,205.73681 v 691.2"
     style="stroke:#ffffff;stroke-width:1px;stroke-opacity:1"
     id="path17" /><path
     class="xgrid crisp"
     d="m 632.3422,205.73681 v 691.2"
     style="stroke:#ffffff;stroke-width:1px;stroke-opacity:1"
     id="path18" /><path
     class="xgrid crisp"
     d="m 864.4774,205.73681 v 691.2"
     style="stroke:#ffffff;stroke-width:1px;stroke-opacity:1"
     id="path19" /><path
     class="xgrid crisp"
     d="m 1096.6126,205.73681 v 691.2"
     style="stroke:#ffffff;stroke-width:1px;stroke-opacity:1"
     id="path20" /><path
     class="xgrid crisp"
     d="m 1328.7478,205.73681 v 691.2"
     style="stroke:#ffffff;stroke-width:1px;stroke-opacity:1"
     id="path21" /><path
     class="ygrid crisp"
     d="m 261.5134,842.15921 h 1108.08"
     style="stroke:#ffffff;stroke-width:1px;stroke-opacity:1"
     id="path22" /><path
     class="ygrid crisp"
     d="m 261.5134,727.72241 h 1108.08"
     style="stroke:#ffffff;stroke-width:1px;stroke-opacity:1"
     id="path23" /><path
     class="ygrid crisp"
     d="m 261.5134,613.30721 h 1108.08"
     style="stroke:#ffffff;stroke-width:1px;stroke-opacity:1"
     id="path24" /><path
     class="ygrid crisp"
     d="m 261.5134,498.89201 h 1108.08"
     style="stroke:#ffffff;stroke-width:1px;stroke-opacity:1"
     id="path25" /><path
     class="ygrid crisp"
     d="m 261.5134,384.47681 h 1108.08"
     style="stroke:#ffffff;stroke-width:1px;stroke-opacity:1"
     id="path26" /><path
     class="ygrid crisp"
     d="m 261.5134,270.04001 h 1108.08"
     style="stroke:#ffffff;stroke-width:1px;stroke-opacity:1"
     id="path27" /><path
     class="point plotly-customdata"
     d="m 488.7886,527.18801 a 6.48,6.48 0 1 1 -6.48,-6.48 6.48,6.48 0 0 1 6.48,6.48 z"
     style="fill:#636efa;fill-opacity:1;stroke-width:0px;stroke-miterlimit:2"
     id="path39" /><path
     class="point plotly-customdata"
     d="m 332.275,449.32001 a 6.48,6.48 0 1 1 -6.48,-6.48 6.48,6.48 0 0 1 6.48,6.48 z"
     style="fill:#636efa;fill-opacity:1;stroke-width:0px;stroke-miterlimit:2"
     id="path40" /><path
     class="point plotly-customdata"
     d="m 1312.1158,660.43841 a 6.48,6.48 0 1 1 -6.48,-6.48 6.48,6.48 0 0 1 6.48,6.48 z"
     style="fill:#636efa;fill-opacity:1;stroke-width:0px;stroke-miterlimit:2"
     id="path41" /><path
     class="point plotly-customdata"
     d="m 1050.6694,345.31601 a 6.48,6.48 0 1 1 -6.48,-6.48 6.48,6.48 0 0 1 6.48,6.48 z"
     style="fill:#636efa;fill-opacity:1;stroke-width:0px;stroke-miterlimit:2"
     id="path42" /><path
     class="point plotly-customdata"
     d="m 1223.491,262.60961 a 6.48,6.48 0 1 1 -6.48,-6.48 6.48,6.48 0 0 1 6.48,6.48 z"
     style="fill:#636efa;fill-opacity:1;stroke-width:0px;stroke-miterlimit:2"
     id="path43" /><path
     class="point plotly-customdata"
     d="m 1054.039,261.81041 a 6.48,6.48 0 1 1 -6.48,-6.48 6.48,6.48 0 0 1 6.48,6.48 z"
     style="fill:#636efa;fill-opacity:1;stroke-width:0px;stroke-miterlimit:2"
     id="path44" /><path
     class="point plotly-customdata"
     d="m 1007.0806,536.19521 a 6.48,6.48 0 1 1 -6.48,-6.48 6.48,6.48 0 0 1 6.48,6.48 z"
     style="fill:#636efa;fill-opacity:1;stroke-width:0px;stroke-miterlimit:2"
     id="path45" /><path
     class="point plotly-customdata"
     d="m 1084.2358,773.96801 a 6.48,6.48 0 1 1 -6.48,-6.48 6.48,6.48 0 0 1 6.48,6.48 z"
     style="fill:#636efa;fill-opacity:1;stroke-width:0px;stroke-miterlimit:2"
     id="path46" /><path
     class="point plotly-customdata"
     d="m 958.7614,404.71601 a 6.48,6.48 0 1 1 -6.48,-6.48 6.48,6.48 0 0 1 6.48,6.48 z"
     style="fill:#636efa;fill-opacity:1;stroke-width:0px;stroke-miterlimit:2"
     id="path47" /><path
     class="point plotly-customdata"
     d="m 1106.3974,825.26801 a 6.48,6.48 0 1 1 -6.48,-6.48 6.48,6.48 0 0 1 6.48,6.48 z"
     style="fill:#636efa;fill-opacity:1;stroke-width:0px;stroke-miterlimit:2"
     id="path48" /><path
     class="point plotly-customdata"
     d="m 490.4302,528.28961 a 6.48,6.48 0 1 1 -6.48,-6.48 6.48,6.48 0 0 1 6.48,6.48 z"
     style="fill:#ef553b;fill-opacity:1;stroke-width:0px;stroke-miterlimit:2"
     id="path53" /><path
     class="point plotly-customdata"
     d="m 331.4974,450.03281 a 6.48,6.48 0 1 1 -6.48,-6.48 6.48,6.48 0 0 1 6.48,6.48 z"
     style="fill:#ef553b;fill-opacity:1;stroke-width:0px;stroke-miterlimit:2"
     id="path54" /><path
     class="point plotly-customdata"
     d="m 1312.5694,660.74081 a 6.48,6.48 0 1 1 -6.48,-6.48 6.48,6.48 0 0 1 6.48,6.48 z"
     style="fill:#ef553b;fill-opacity:1;stroke-width:0px;stroke-miterlimit:2"
     id="path55" /><path
     class="point plotly-customdata"
     d="m 1022.827,348.51281 a 6.48,6.48 0 1 1 -6.48,-6.48 6.48,6.48 0 0 1 6.48,6.48 z"
     style="fill:#ef553b;fill-opacity:1;stroke-width:0px;stroke-miterlimit:2"
     id="path56" /><path
     class="point plotly-customdata"
     d="m 1235.2198,251.74481 a 6.48,6.48 0 1 1 -6.48,-6.48 6.48,6.48 0 0 1 6.48,6.48 z"
     style="fill:#ef553b;fill-opacity:1;stroke-width:0px;stroke-miterlimit:2"
     id="path57" /><path
     class="point plotly-customdata"
     d="m 1042.0726,248.39681 a 6.48,6.48 0 1 1 -6.48,-6.48 6.48,6.48 0 0 1 6.48,6.48 z"
     style="fill:#ef553b;fill-opacity:1;stroke-width:0px;stroke-miterlimit:2"
     id="path58" /><path
     class="point plotly-customdata"
     d="m 1011.595,533.75441 a 6.48,6.48 0 1 1 -6.48,-6.48 6.48,6.48 0 0 1 6.48,6.48 z"
     style="fill:#ef553b;fill-opacity:1;stroke-width:0px;stroke-miterlimit:2"
     id="path59" /><path
     class="point plotly-customdata"
     d="m 1075.9414,788.95841 a 6.48,6.48 0 1 1 -6.48,-6.48 6.48,6.48 0 0 1 6.48,6.48 z"
     style="fill:#ef553b;fill-opacity:1;stroke-width:0px;stroke-miterlimit:2"
     id="path60" /><path
     class="point plotly-customdata"
     d="m 965.371,380.07041 a 6.48,6.48 0 1 1 -6.48,-6.48 6.48,6.48 0 0 1 6.48,6.48 z"
     style="fill:#ef553b;fill-opacity:1;stroke-width:0px;stroke-miterlimit:2"
     id="path61" /><path
     class="point plotly-customdata"
     d="m 1085.1646,854.27681 a 6.48,6.48 0 1 1 -6.48,-6.48 6.48,6.48 0 0 1 6.48,6.48 z"
     style="fill:#ef553b;fill-opacity:1;stroke-width:0px;stroke-miterlimit:2"
     id="path62" /><path
     d="m 394.93356,905.61578 v 19.40107 h -2.26563 v -16.97919 h -0.013 l -4.83074,3.20313 v -2.39584 l 4.84376,-3.22917 z m 10.10418,19.71357 q -2.14844,0 -3.72397,-1.22396 -1.5625,-1.23698 -2.42188,-3.47657 -0.85937,-2.23959 -0.85937,-5.29949 0,-3.07292 0.85937,-5.3125 0.85938,-2.25261 2.42188,-3.47657 1.57553,-1.23698 3.72397,-1.23698 2.14844,0 3.72396,1.23698 1.57552,1.22396 2.42188,3.47657 0.85937,2.23958 0.85937,5.3125 0,3.0599 -0.85937,5.29949 -0.84636,2.23959 -2.42188,3.47657 -1.57552,1.22396 -3.72396,1.22396 z m 0,-2.08334 q 1.48437,0 2.55208,-0.95052 1.08073,-0.96354 1.65365,-2.73438 0.58594,-1.77084 0.58594,-4.23178 0,-2.47396 -0.58594,-4.24479 -0.57292,-1.78386 -1.65365,-2.73438 -1.06771,-0.96354 -2.55208,-0.96354 -1.48438,0 -2.56511,0.96354 -1.06771,0.95052 -1.65365,2.73438 -0.57292,1.77083 -0.57292,4.24479 0,2.46094 0.57292,4.23178 0.58594,1.77084 1.65365,2.73438 1.08073,0.95052 2.56511,0.95052 z"
     id="text69"
     style="font-size:26.6667px;font-family:Inter;-inkscape-font-specification:Inter;text-anchor:middle;white-space:pre"
     aria-label="10" /><path
     d="m 617.79136,925.01685 v -1.96615 l 6.90105,-6.30209 q 1.23698,-1.13282 2.00521,-1.99219 0.78126,-0.85938 1.14584,-1.67969 0.36458,-0.82032 0.36458,-1.8099 0,-1.19792 -0.48177,-2.07032 -0.48177,-0.87239 -1.36719,-1.34114 -0.88542,-0.46875 -2.1224,-0.46875 -1.32812,0 -2.26562,0.55989 -0.92448,0.54688 -1.41928,1.5625 -0.49479,1.00261 -0.49479,2.38282 h -2.1875 q 0,-1.94011 0.78125,-3.42448 0.79427,-1.48438 2.22656,-2.31772 1.4323,-0.84635 3.34636,-0.84635 1.82292,0 3.21615,0.75521 1.39323,0.74219 2.18751,2.07031 0.79427,1.31511 0.79427,3.04688 0,1.25 -0.45573,2.35678 -0.45573,1.09375 -1.39323,2.20052 -0.92448,1.10677 -2.35678,2.40886 l -5.2474,4.76563 v 0.026 h 9.57033 v 2.08334 z m 22.03128,0.3125 q -2.14844,0 -3.72396,-1.22396 -1.5625,-1.23698 -2.42188,-3.47657 -0.85938,-2.23959 -0.85938,-5.29949 0,-3.07292 0.85938,-5.3125 0.85938,-2.25261 2.42188,-3.47657 1.57552,-1.23698 3.72396,-1.23698 2.14844,0 3.72396,1.23698 1.57553,1.22396 2.42188,3.47657 0.85938,2.23958 0.85938,5.3125 0,3.0599 -0.85938,5.29949 -0.84635,2.23959 -2.42188,3.47657 -1.57552,1.22396 -3.72396,1.22396 z m 0,-2.08334 q 1.48438,0 2.55209,-0.95052 1.08073,-0.96354 1.65365,-2.73438 0.58593,-1.77084 0.58593,-4.23178 0,-2.47396 -0.58593,-4.24479 -0.57292,-1.78386 -1.65365,-2.73438 -1.06771,-0.96354 -2.55209,-0.96354 -1.48438,0 -2.56511,0.96354 -1.06771,0.95052 -1.65364,2.73438 -0.57292,1.77083 -0.57292,4.24479 0,2.46094 0.57292,4.23178 0.58593,1.77084 1.65364,2.73438 1.08073,0.95052 2.56511,0.95052 z"
     id="text70"
     style="font-size:26.6667px;font-family:Inter;-inkscape-font-specification:Inter;text-anchor:middle;white-space:pre"
     aria-label="20" /><path
     d="m 856.39141,925.32935 q -2.00521,0 -3.54167,-0.8073 -1.53646,-0.82031 -2.40886,-2.26562 -0.8724,-1.44532 -0.8724,-3.33334 h 2.3698 q 0,1.36719 0.52083,2.34375 0.52084,0.97656 1.51042,1.4974 0.98958,0.50781 2.36979,0.50781 1.32813,0 2.33074,-0.45573 1.01562,-0.45573 1.57552,-1.28906 0.57292,-0.84636 0.57292,-1.97917 0,-1.04167 -0.61198,-1.8099 -0.59896,-0.76823 -1.67969,-1.19792 -1.06771,-0.42969 -2.50001,-0.42969 h -1.5625 v -2.08333 h 1.5625 q 1.25001,0 2.18751,-0.39063 0.95052,-0.39062 1.47135,-1.09375 0.53386,-0.71615 0.53386,-1.66667 0,-1.09375 -0.49479,-1.875 -0.4948,-0.79427 -1.39324,-1.21094 -0.88541,-0.42969 -2.09635,-0.42969 -1.23698,0 -2.13542,0.46875 -0.88542,0.46875 -1.36719,1.34115 -0.48177,0.8724 -0.48177,2.09636 h -2.26563 q 0,-1.75782 0.79427,-3.09896 0.80729,-1.35417 2.21355,-2.10938 1.41927,-0.75521 3.25521,-0.75521 1.78386,0 3.20313,0.70313 1.41927,0.70312 2.23958,1.92708 0.82032,1.22396 0.82032,2.8125 0,1.47136 -0.9375,2.6172 -0.92448,1.13281 -2.55209,1.6276 v 0.0391 q 1.23698,0.20834 2.14844,0.84636 0.92448,0.63802 1.43229,1.58854 0.50782,0.9375 0.50782,2.08334 0,1.69271 -0.88542,3.00782 -0.8724,1.30208 -2.39584,2.04427 -1.51042,0.72917 -3.4375,0.72917 z m 16.06773,0 q -2.14844,0 -3.72397,-1.22396 -1.5625,-1.23698 -2.42187,-3.47657 -0.85938,-2.23959 -0.85938,-5.29949 0,-3.07292 0.85938,-5.3125 0.85937,-2.25261 2.42187,-3.47657 1.57553,-1.23698 3.72397,-1.23698 2.14844,0 3.72396,1.23698 1.57552,1.22396 2.42188,3.47657 0.85937,2.23958 0.85937,5.3125 0,3.0599 -0.85937,5.29949 -0.84636,2.23959 -2.42188,3.47657 -1.57552,1.22396 -3.72396,1.22396 z m 0,-2.08334 q 1.48437,0 2.55208,-0.95052 1.08073,-0.96354 1.65365,-2.73438 0.58594,-1.77084 0.58594,-4.23178 0,-2.47396 -0.58594,-4.24479 -0.57292,-1.78386 -1.65365,-2.73438 -1.06771,-0.96354 -2.55208,-0.96354 -1.48438,0 -2.56511,0.96354 -1.06771,0.95052 -1.65365,2.73438 -0.57292,1.77083 -0.57292,4.24479 0,2.46094 0.57292,4.23178 0.58594,1.77084 1.65365,2.73438 1.08073,0.95052 2.56511,0.95052 z"
     id="text71"
     style="font-size:26.6667px;font-family:Inter;-inkscape-font-specification:Inter;text-anchor:middle;white-space:pre"
     aria-label="30" /><path
     d="m 1080.8769,920.32934 v -1.92709 l 9.2838,-12.78647 h 1.4323 v 2.63021 h -0.8333 l -7.2266,9.97397 v 0.026 h 12.461 v 2.08334 z m 9.9088,4.68751 v -5.26043 -0.91146 -13.22918 h 2.2396 v 19.40107 z m 14.0625,0.3125 q -2.1484,0 -3.7239,-1.22396 -1.5625,-1.23698 -2.4219,-3.47657 -0.8594,-2.23959 -0.8594,-5.29949 0,-3.07292 0.8594,-5.3125 0.8594,-2.25261 2.4219,-3.47657 1.5755,-1.23698 3.7239,-1.23698 2.1485,0 3.724,1.23698 1.5755,1.22396 2.4219,3.47657 0.8594,2.23958 0.8594,5.3125 0,3.0599 -0.8594,5.29949 -0.8464,2.23959 -2.4219,3.47657 -1.5755,1.22396 -3.724,1.22396 z m 0,-2.08334 q 1.4844,0 2.5521,-0.95052 1.0808,-0.96354 1.6537,-2.73438 0.5859,-1.77084 0.5859,-4.23178 0,-2.47396 -0.5859,-4.24479 -0.5729,-1.78386 -1.6537,-2.73438 -1.0677,-0.96354 -2.5521,-0.96354 -1.4843,0 -2.5651,0.96354 -1.0677,0.95052 -1.6536,2.73438 -0.5729,1.77083 -0.5729,4.24479 0,2.46094 0.5729,4.23178 0.5859,1.77084 1.6536,2.73438 1.0808,0.95052 2.5651,0.95052 z"
     id="text72"
     style="font-size:26.6667px;font-family:Inter;-inkscape-font-specification:Inter;text-anchor:middle;white-space:pre"
     aria-label="40" /><path
     d="m 1320.6033,925.27726 q -1.862,0 -3.3464,-0.76823 -1.4844,-0.78125 -2.3698,-2.10938 -0.8854,-1.32812 -0.9635,-3.00781 h 2.3437 q 0.1042,1.09375 0.6771,1.95313 0.5859,0.85937 1.5234,1.35416 0.9506,0.4948 2.1355,0.4948 1.263,0 2.2005,-0.58594 0.9505,-0.58594 1.4844,-1.60157 0.5338,-1.02864 0.5338,-2.34375 0,-1.3151 -0.5078,-2.33073 -0.5078,-1.01563 -1.4193,-1.58854 -0.9114,-0.58594 -2.1224,-0.58594 -1.6015,0 -2.7474,0.65104 -1.1458,0.63802 -1.6015,1.875 h -2.2526 l 0.651,-11.06772 h 11.1979 v 2.08334 h -9.0755 l -0.4687,6.28907 h 0.026 q 0.9245,-0.98959 2.0573,-1.45834 1.1328,-0.48177 2.5,-0.48177 1.3411,0 2.4479,0.48177 1.1068,0.48177 1.9011,1.36719 0.8072,0.88542 1.2369,2.09636 0.4427,1.19791 0.4427,2.64323 0,1.95313 -0.8203,3.45052 -0.8073,1.4974 -2.2656,2.34376 -1.4583,0.84635 -3.3984,0.84635 z m 15.8333,0.0521 q -2.1484,0 -3.7239,-1.22396 -1.5626,-1.23698 -2.4219,-3.47657 -0.8594,-2.23959 -0.8594,-5.29949 0,-3.07292 0.8594,-5.3125 0.8593,-2.25261 2.4219,-3.47657 1.5755,-1.23698 3.7239,-1.23698 2.1485,0 3.724,1.23698 1.5755,1.22396 2.4219,3.47657 0.8593,2.23958 0.8593,5.3125 0,3.0599 -0.8593,5.29949 -0.8464,2.23959 -2.4219,3.47657 -1.5755,1.22396 -3.724,1.22396 z m 0,-2.08334 q 1.4844,0 2.5521,-0.95052 1.0807,-0.96354 1.6536,-2.73438 0.586,-1.77084 0.586,-4.23178 0,-2.47396 -0.586,-4.24479 -0.5729,-1.78386 -1.6536,-2.73438 -1.0677,-0.96354 -2.5521,-0.96354 -1.4844,0 -2.5651,0.96354 -1.0677,0.95052 -1.6536,2.73438 -0.573,1.77083 -0.573,4.24479 0,2.46094 0.573,4.23178 0.5859,1.77084 1.6536,2.73438 1.0807,0.95052 2.5651,0.95052 z"
     id="text73"
     style="font-size:26.6667px;font-family:Inter;-inkscape-font-specification:Inter;text-anchor:middle;white-space:pre"
     aria-label="50" /><path
     d="m 212.47692,851.2312 v -1.96615 l 6.90105,-6.30209 q 1.23698,-1.13281 2.00521,-1.99219 0.78125,-0.85937 1.14583,-1.67969 0.36459,-0.82031 0.36459,-1.8099 0,-1.19791 -0.48178,-2.07031 -0.48177,-0.8724 -1.36718,-1.34115 -0.88542,-0.46875 -2.1224,-0.46875 -1.32813,0 -2.26563,0.5599 -0.92448,0.54687 -1.41927,1.5625 -0.4948,1.0026 -0.4948,2.38281 h -2.1875 q 0,-1.9401 0.78125,-3.42448 0.79427,-1.48438 2.22657,-2.31771 1.43229,-0.84636 3.34636,-0.84636 1.82291,0 3.21615,0.75521 1.39323,0.74219 2.1875,2.07032 0.79427,1.3151 0.79427,3.04688 0,1.25 -0.45573,2.35677 -0.45573,1.09375 -1.39323,2.20053 -0.92448,1.10677 -2.35677,2.40885 l -5.24741,4.76563 v 0.0261 h 9.57033 v 2.08333 z m 22.03127,0.3125 q -2.14844,0 -3.72396,-1.22396 -1.5625,-1.23698 -2.42188,-3.47657 -0.85937,-2.23958 -0.85937,-5.29948 0,-3.07292 0.85937,-5.31251 0.85938,-2.2526 2.42188,-3.47656 1.57552,-1.23699 3.72396,-1.23699 2.14844,0 3.72397,1.23699 1.57552,1.22396 2.42188,3.47656 0.85937,2.23959 0.85937,5.31251 0,3.0599 -0.85937,5.29948 -0.84636,2.23959 -2.42188,3.47657 -1.57553,1.22396 -3.72397,1.22396 z m 0,-2.08333 q 1.48438,0 2.55209,-0.95053 1.08073,-0.96354 1.65365,-2.73437 0.58594,-1.77084 0.58594,-4.23178 0,-2.47396 -0.58594,-4.2448 -0.57292,-1.78385 -1.65365,-2.73438 -1.06771,-0.96354 -2.55209,-0.96354 -1.48437,0 -2.5651,0.96354 -1.06771,0.95053 -1.65365,2.73438 -0.57292,1.77084 -0.57292,4.2448 0,2.46094 0.57292,4.23178 0.58594,1.77083 1.65365,2.73437 1.08073,0.95053 2.5651,0.95053 z"
     id="text75"
     style="font-size:26.6667px;font-family:Inter;-inkscape-font-specification:Inter;text-anchor:end;white-space:pre"
     aria-label="20" /><path
     d="m 213.45348,736.79443 v -1.96614 l 6.90105,-6.3021 q 1.23698,-1.13281 2.00521,-1.99219 0.78125,-0.85937 1.14584,-1.67969 0.36458,-0.82031 0.36458,-1.80989 0,-1.19792 -0.48177,-2.07032 -0.48177,-0.8724 -1.36719,-1.34115 -0.88542,-0.46875 -2.1224,-0.46875 -1.32813,0 -2.26563,0.5599 -0.92448,0.54688 -1.41927,1.5625 -0.49479,1.00261 -0.49479,2.38282 h -2.18751 q 0,-1.94011 0.78126,-3.42449 0.79427,-1.48437 2.22656,-2.31771 1.43229,-0.84635 3.34636,-0.84635 1.82292,0 3.21615,0.75521 1.39323,0.74218 2.1875,2.07031 0.79427,1.31511 0.79427,3.04688 0,1.25 -0.45573,2.35677 -0.45573,1.09376 -1.39323,2.20053 -0.92448,1.10677 -2.35677,2.40885 l -5.2474,4.76564 v 0.026 h 9.57032 v 2.08333 z m 21.57555,0.26042 q -1.86198,0 -3.34636,-0.76823 -1.48438,-0.78125 -2.3698,-2.10938 -0.88541,-1.32812 -0.96354,-3.00781 h 2.34375 q 0.10417,1.09375 0.67709,1.95312 0.58594,0.85938 1.52344,1.35417 0.95052,0.49479 2.13542,0.49479 1.26302,0 2.20052,-0.58593 0.95052,-0.58594 1.48438,-1.60157 0.53385,-1.02865 0.53385,-2.34375 0,-1.31511 -0.50781,-2.33073 -0.50781,-1.01563 -1.41927,-1.58855 -0.91146,-0.58594 -2.1224,-0.58594 -1.60157,0 -2.7474,0.65105 -1.14584,0.63802 -1.60156,1.875 h -2.25261 l 0.65104,-11.06772 h 11.19793 v 2.08333 h -9.07553 l -0.46875,6.28907 h 0.026 q 0.92448,-0.98958 2.05729,-1.45833 1.13282,-0.48177 2.50001,-0.48177 1.34115,0 2.44792,0.48177 1.10677,0.48177 1.90104,1.36719 0.80729,0.88542 1.23698,2.09635 0.44271,1.19792 0.44271,2.64324 0,1.95312 -0.82031,3.45052 -0.8073,1.4974 -2.26563,2.34376 -1.45834,0.84635 -3.39844,0.84635 z"
     id="text76"
     style="font-size:26.6667px;font-family:Inter;-inkscape-font-specification:Inter;text-anchor:end;white-space:pre"
     aria-label="25" /><path
     d="m 218.44047,622.69171 q -2.00522,0 -3.54168,-0.80729 -1.53646,-0.82031 -2.40885,-2.26563 -0.8724,-1.44531 -0.8724,-3.33334 h 2.36979 q 0,1.36719 0.52084,2.34376 0.52083,0.97656 1.51042,1.49739 0.98958,0.50782 2.36979,0.50782 1.32813,0 2.33073,-0.45573 1.01563,-0.45573 1.57553,-1.28907 0.57291,-0.84635 0.57291,-1.97917 0,-1.04166 -0.61198,-1.80989 -0.59895,-0.76823 -1.67969,-1.19792 -1.06771,-0.42969 -2.5,-0.42969 h -1.5625 v -2.08334 h 1.5625 q 1.25,0 2.1875,-0.39062 0.95053,-0.39063 1.47136,-1.09375 0.53386,-0.71615 0.53386,-1.66667 0,-1.09375 -0.4948,-1.875 -0.49479,-0.79428 -1.39323,-1.21094 -0.88542,-0.42969 -2.09636,-0.42969 -1.23698,0 -2.13541,0.46875 -0.88542,0.46875 -1.36719,1.34115 -0.48178,0.87239 -0.48178,2.09635 h -2.26562 q 0,-1.75781 0.79427,-3.09896 0.80729,-1.35417 2.21354,-2.10938 1.41928,-0.75521 3.25522,-0.75521 1.78385,0 3.20312,0.70313 1.41928,0.70313 2.23959,1.92709 0.82031,1.22396 0.82031,2.8125 0,1.47136 -0.9375,2.61719 -0.92448,1.13281 -2.55208,1.62761 v 0.0391 q 1.23698,0.20833 2.14844,0.84635 0.92448,0.63803 1.43229,1.58855 0.50781,0.9375 0.50781,2.08333 0,1.69271 -0.88541,3.00782 -0.8724,1.30209 -2.39584,2.04427 -1.51042,0.72917 -3.4375,0.72917 z m 16.06772,0 q -2.14844,0 -3.72396,-1.22396 -1.5625,-1.23698 -2.42188,-3.47656 -0.85937,-2.23959 -0.85937,-5.29949 0,-3.07292 0.85937,-5.31251 0.85938,-2.2526 2.42188,-3.47656 1.57552,-1.23699 3.72396,-1.23699 2.14844,0 3.72397,1.23699 1.57552,1.22396 2.42188,3.47656 0.85937,2.23959 0.85937,5.31251 0,3.0599 -0.85937,5.29949 -0.84636,2.23958 -2.42188,3.47656 -1.57553,1.22396 -3.72397,1.22396 z m 0,-2.08333 q 1.48438,0 2.55209,-0.95053 1.08073,-0.96354 1.65365,-2.73437 0.58594,-1.77084 0.58594,-4.23178 0,-2.47396 -0.58594,-4.2448 -0.57292,-1.78385 -1.65365,-2.73438 -1.06771,-0.96354 -2.55209,-0.96354 -1.48437,0 -2.5651,0.96354 -1.06771,0.95053 -1.65365,2.73438 -0.57292,1.77084 -0.57292,4.2448 0,2.46094 0.57292,4.23178 0.58594,1.77083 1.65365,2.73437 1.08073,0.95053 2.5651,0.95053 z"
     id="text77"
     style="font-size:26.6667px;font-family:Inter;-inkscape-font-specification:Inter;text-anchor:end;white-space:pre"
     aria-label="30" /><path
     d="m 219.41703,508.27649 q -2.00521,0 -3.54167,-0.80729 -1.53646,-0.82032 -2.40886,-2.26563 -0.8724,-1.44532 -0.8724,-3.33334 h 2.3698 q 0,1.36719 0.52083,2.34375 0.52084,0.97657 1.51042,1.4974 0.98959,0.50782 2.3698,0.50782 1.32812,0 2.33073,-0.45573 1.01562,-0.45573 1.57552,-1.28907 0.57292,-0.84635 0.57292,-1.97917 0,-1.04167 -0.61198,-1.8099 -0.59896,-0.76823 -1.67969,-1.19791 -1.06771,-0.42969 -2.5,-0.42969 h -1.56251 v -2.08334 h 1.56251 q 1.25,0 2.1875,-0.39062 0.95052,-0.39063 1.47135,-1.09375 0.53386,-0.71615 0.53386,-1.66667 0,-1.09375 -0.49479,-1.87501 -0.4948,-0.79427 -1.39323,-1.21094 -0.88542,-0.42968 -2.09636,-0.42968 -1.23698,0 -2.13542,0.46875 -0.88542,0.46875 -1.36719,1.34115 -0.48177,0.87239 -0.48177,2.09635 h -2.26563 q 0,-1.75781 0.79427,-3.09896 0.8073,-1.35417 2.21355,-2.10938 1.41927,-0.75521 3.25521,-0.75521 1.78386,0 3.20313,0.70313 1.41927,0.70312 2.23958,1.92708 0.82032,1.22396 0.82032,2.81251 0,1.47135 -0.9375,2.61719 -0.92448,1.13281 -2.55209,1.6276 v 0.0391 q 1.23698,0.20833 2.14844,0.84635 0.92448,0.63802 1.43229,1.58855 0.50782,0.9375 0.50782,2.08333 0,1.69271 -0.88542,3.00782 -0.8724,1.30208 -2.39584,2.04427 -1.51042,0.72917 -3.4375,0.72917 z m 15.612,-0.0521 q -1.86198,0 -3.34636,-0.76823 -1.48438,-0.78125 -2.3698,-2.10938 -0.88541,-1.32813 -0.96354,-3.00782 h 2.34375 q 0.10417,1.09375 0.67709,1.95313 0.58594,0.85938 1.52344,1.35417 0.95052,0.49479 2.13542,0.49479 1.26302,0 2.20052,-0.58594 0.95052,-0.58594 1.48438,-1.60156 0.53385,-1.02865 0.53385,-2.34376 0,-1.3151 -0.50781,-2.33073 -0.50781,-1.01562 -1.41927,-1.58854 -0.91146,-0.58594 -2.1224,-0.58594 -1.60157,0 -2.7474,0.65104 -1.14584,0.63802 -1.60156,1.87501 h -2.25261 l 0.65104,-11.06773 h 11.19793 v 2.08334 h -9.07553 l -0.46875,6.28907 h 0.026 q 0.92448,-0.98959 2.05729,-1.45834 1.13282,-0.48177 2.50001,-0.48177 1.34115,0 2.44792,0.48177 1.10677,0.48178 1.90104,1.36719 0.80729,0.88542 1.23698,2.09636 0.44271,1.19792 0.44271,2.64323 0,1.95313 -0.82031,3.45053 -0.8073,1.4974 -2.26563,2.34375 -1.45834,0.84636 -3.39844,0.84636 z"
     id="text78"
     style="font-size:26.6667px;font-family:Inter;-inkscape-font-specification:Inter;text-anchor:end;white-space:pre"
     aria-label="35" /><path
     d="m 210.53681,388.86132 v -1.92708 l 9.28387,-12.78648 h 1.43229 v 2.63021 h -0.83334 l -7.22657,9.97397 v 0.026 h 12.46096 v 2.08333 z m 9.90887,4.68751 v -5.26043 -0.91145 -13.22919 h 2.23958 v 19.40107 z m 14.06251,0.3125 q -2.14844,0 -3.72396,-1.22396 -1.5625,-1.23698 -2.42188,-3.47657 -0.85937,-2.23958 -0.85937,-5.29948 0,-3.07292 0.85937,-5.31251 0.85938,-2.25261 2.42188,-3.47657 1.57552,-1.23698 3.72396,-1.23698 2.14844,0 3.72397,1.23698 1.57552,1.22396 2.42187,3.47657 0.85938,2.23959 0.85938,5.31251 0,3.0599 -0.85938,5.29948 -0.84635,2.23959 -2.42187,3.47657 -1.57553,1.22396 -3.72397,1.22396 z m 0,-2.08334 q 1.48438,0 2.55209,-0.95052 1.08073,-0.96354 1.65365,-2.73438 0.58594,-1.77083 0.58594,-4.23177 0,-2.47397 -0.58594,-4.2448 -0.57292,-1.78386 -1.65365,-2.73438 -1.06771,-0.96354 -2.55209,-0.96354 -1.48437,0 -2.5651,0.96354 -1.06771,0.95052 -1.65365,2.73438 -0.57292,1.77083 -0.57292,4.2448 0,2.46094 0.57292,4.23177 0.58594,1.77084 1.65365,2.73438 1.08073,0.95052 2.5651,0.95052 z"
     id="text79"
     style="font-size:26.6667px;font-family:Inter;-inkscape-font-specification:Inter;text-anchor:end;white-space:pre"
     aria-label="40" /><path
     d="m 211.51337,274.42452 v -1.92708 l 9.28387,-12.78648 h 1.43229 v 2.63022 h -0.83333 l -7.22657,9.97397 v 0.026 h 12.46095 v 2.08333 z m 9.90887,4.68751 v -5.26042 -0.91146 -13.22919 h 2.23959 v 19.40107 z m 13.60679,0.26042 q -1.86198,0 -3.34636,-0.76823 -1.48438,-0.78125 -2.3698,-2.10938 -0.88541,-1.32813 -0.96354,-3.00782 h 2.34375 q 0.10417,1.09375 0.67709,1.95313 0.58594,0.85938 1.52344,1.35417 0.95052,0.49479 2.13542,0.49479 1.26302,0 2.20052,-0.58594 0.95052,-0.58594 1.48438,-1.60156 0.53385,-1.02865 0.53385,-2.34375 0,-1.31511 -0.50781,-2.33074 -0.50781,-1.01562 -1.41927,-1.58854 -0.91146,-0.58594 -2.1224,-0.58594 -1.60157,0 -2.7474,0.65104 -1.14584,0.63803 -1.60157,1.87501 h -2.2526 l 0.65104,-11.06773 h 11.19793 v 2.08334 h -9.07553 l -0.46875,6.28907 h 0.026 q 0.92448,-0.98958 2.05729,-1.45833 1.13282,-0.48178 2.50001,-0.48178 1.34114,0 2.44792,0.48178 1.10677,0.48177 1.90104,1.36718 0.80729,0.88542 1.23698,2.09636 0.44271,1.19792 0.44271,2.64323 0,1.95313 -0.82031,3.45053 -0.8073,1.4974 -2.26563,2.34375 -1.45834,0.84636 -3.39844,0.84636 z"
     id="text80"
     style="font-size:26.6667px;font-family:Inter;-inkscape-font-specification:Inter;text-anchor:end;white-space:pre"
     aria-label="45" /><g
     id="g133"
     transform="translate(-1283.2416,14.87785)"><rect
       style="fill:#ffffff;stroke:none;stroke-width:5"
       id="rect132"
       width="235.70226"
       height="130.22395"
       x="1604.755"
       y="250.85896" /><g
       id="g132"
       transform="translate(0,5.2070847)"><path
         d="m 1670.3666,294.92886 v -23.28125 h 15.1406 v 2.5 h -12.3281 v 7.60938 h 11.4219 v 2.5 h -11.4219 v 8.17187 h 12.3281 v 2.5 z m 20.8594,-9.65625 v 9.65625 h -2.6563 v -16.5 h 2.5938 v 4 h -0.75 q 0.8125,-2.23437 2.25,-3.26562 1.4531,-1.04688 3.4062,-1.04688 1.6719,0 3.0469,0.73438 1.375,0.71875 2.1875,2.17187 0.8281,1.45313 0.8281,3.65625 v 10.25 h -2.6562 v -10.0625 q 0,-2.14062 -1.0313,-3.21875 -1.0156,-1.09375 -2.875,-1.09375 -1.2031,0 -2.1875,0.48438 -0.9844,0.48437 -1.5781,1.53125 -0.5781,1.03125 -0.5781,2.70312 z m 21.75,16.40625 q -1.8594,0 -3.3594,-0.57812 -1.4844,-0.5625 -2.4375,-1.6875 -0.9375,-1.10938 -1.1406,-2.73438 h 2.7187 q 0.2344,0.89063 0.8281,1.46875 0.5938,0.59375 1.4532,0.89063 0.875,0.29687 1.9375,0.29687 2.1562,0 3.3906,-1.15625 1.2344,-1.14062 1.2344,-3.25 v -2.5 h -0.016 q -0.6093,0.95313 -1.4062,1.57813 -0.7969,0.625 -1.75,0.92187 -0.9531,0.3125 -2.0469,0.3125 -2.1406,0 -3.7656,-1.07812 -1.6094,-1.09375 -2.5,-3.01563 -0.8906,-1.9375 -0.8906,-4.46875 0,-2.54687 0.8906,-4.46875 0.8906,-1.9375 2.5,-3.01562 1.625,-1.07813 3.7656,-1.07813 1.0781,0 2.0469,0.29688 0.9844,0.29687 1.7969,0.9375 0.8281,0.64062 1.3906,1.65625 h 0.016 v -2.57813 h 2.5938 v 16.5 q 0,2.4375 -1.0157,3.92188 -1,1.48437 -2.6562,2.15625 -1.6563,0.67187 -3.5781,0.67187 z m -0.1875,-8.82812 q 1.5312,0 2.6562,-0.76563 1.125,-0.76562 1.7344,-2.15625 0.6094,-1.39062 0.6094,-3.25 0,-1.875 -0.6094,-3.26562 -0.6094,-1.39063 -1.7344,-2.15625 -1.125,-0.76563 -2.6562,-0.76563 -1.4219,0 -2.5313,0.70313 -1.0937,0.70312 -1.7187,2.07812 -0.625,1.375 -0.625,3.40625 0,2.01563 0.625,3.39063 0.625,1.375 1.7187,2.07812 1.1094,0.70313 2.5313,0.70313 z m 14.0312,-21.20313 v 23.28125 h -2.6562 v -23.28125 z m 3.9375,23.28125 v -16.5 h 2.6563 v 16.5 z m 1.3281,-19.71875 q -0.75,0 -1.2812,-0.53125 -0.5313,-0.53125 -0.5313,-1.28125 0,-0.75 0.5313,-1.28125 0.5312,-0.53125 1.2812,-0.53125 0.75,0 1.2813,0.53125 0.5312,0.53125 0.5312,1.28125 0,0.75 -0.5312,1.28125 -0.5313,0.53125 -1.2813,0.53125 z m 11.0157,20.09375 q -1.7657,0 -3.2032,-0.57812 -1.4375,-0.57813 -2.3281,-1.75 -0.8906,-1.1875 -1,-2.98438 h 2.625 q 0.1406,1.46875 1.125,2.25 0.9844,0.78125 2.7188,0.78125 1.7187,0 2.7031,-0.71875 1,-0.71875 1,-1.8125 0,-0.9375 -0.6875,-1.5 -0.6875,-0.5625 -1.7969,-0.8125 l -2.6562,-0.625 q -2.2969,-0.54687 -3.4844,-1.71875 -1.1719,-1.17187 -1.1719,-2.96875 0,-1.40625 0.75,-2.48437 0.7656,-1.09375 2.1094,-1.70313 1.3594,-0.625 3.125,-0.625 1.7187,0 3.0781,0.65625 1.375,0.64063 2.1719,1.82813 0.8125,1.1875 0.8594,2.82812 h -2.5938 q -0.016,-1.3125 -0.9687,-2.17187 -0.9532,-0.85938 -2.5469,-0.85938 -1.5156,0 -2.4219,0.73438 -0.9062,0.73437 -0.9062,1.79687 0,0.9375 0.6875,1.51563 0.6875,0.5625 1.875,0.84375 l 2.6562,0.625 q 2.375,0.5625 3.4844,1.6875 1.1094,1.10937 1.1094,2.89062 0,1.53125 -0.8282,2.625 -0.8281,1.09375 -2.2656,1.67188 -1.4219,0.57812 -3.2187,0.57812 z m 12.0937,-10.03125 v 9.65625 h -2.6562 v -23.28125 h 2.6562 v 10.78125 h -0.8125 q 0.8125,-2.23437 2.25,-3.26562 1.4531,-1.04688 3.4063,-1.04688 1.6718,0 3.0468,0.73438 1.375,0.71875 2.1875,2.17187 0.8282,1.45313 0.8282,3.65625 v 10.25 h -2.6563 v -10.0625 q 0,-2.14062 -1.0312,-3.21875 -1.0157,-1.09375 -2.875,-1.09375 -1.2032,0 -2.1875,0.48438 -0.9844,0.48437 -1.5782,1.53125 -0.5781,1.03125 -0.5781,2.70312 z"
         id="text100"
         style="font-size:32px;font-family:Inter;-inkscape-font-specification:Inter;white-space:pre"
         class="legendtext"
         aria-label="English" /><path
         class="scatterpts"
         d="m 1639.6857,286.632 a 6.48,6.48 0 1 1 -6.48,-6.48 6.48,6.48 0 0 1 6.48,6.48 z"
         style="fill:#636efa;fill-opacity:1;stroke-width:0px"
         id="path101" /><path
         d="m 1668.3666,349.5676 8.5937,-23.28125 h 3.1875 l 8.5,23.28125 h -3 l -4.8906,-14.03125 q -0.4844,-1.39063 -1.0937,-3.17188 -0.5938,-1.79687 -1.5157,-4.70312 h 0.8125 q -0.9218,2.90625 -1.5312,4.70312 -0.5938,1.78125 -1.0938,3.17188 l -5.0312,14.03125 z m 4.4375,-6.53125 v -2.5 h 11.4062 v 2.5 z m 18.125,6.53125 v -16.5 h 2.5312 v 2.59375 h 0.062 q 0.4532,-1.28125 1.4375,-2.0625 0.9844,-0.78125 2.5313,-0.78125 0.3594,0 0.6562,0.0312 0.3125,0.0312 0.4688,0.0625 v 2.65625 q -0.1563,-0.0469 -0.6094,-0.10938 -0.4375,-0.0781 -1.0156,-0.0781 -0.9063,0 -1.6875,0.42187 -0.7813,0.42188 -1.25,1.3125 -0.4688,0.89063 -0.4688,2.29688 v 10.15625 z m 14.8437,0.25 q -1.6406,0 -2.9375,-0.5625 -1.2968,-0.5625 -2.0625,-1.67188 -0.75,-1.125 -0.75,-2.76562 0,-1.42188 0.5469,-2.3125 0.5625,-0.89063 1.4844,-1.39063 0.9375,-0.51562 2.1094,-0.78125 1.1875,-0.26562 2.4218,-0.42187 1.5782,-0.21875 2.4844,-0.32813 0.9063,-0.10937 1.2813,-0.35937 0.3906,-0.25 0.3906,-0.875 v -0.15625 q 0,-0.90625 -0.4375,-1.59375 -0.4219,-0.70313 -1.25,-1.09375 -0.8125,-0.40625 -1.9688,-0.40625 -1.1406,0 -2.0312,0.39062 -0.875,0.375 -1.4063,1.03125 -0.5156,0.65625 -0.5781,1.48438 h -2.7031 q 0.078,-1.51563 0.9375,-2.6875 0.8594,-1.1875 2.3437,-1.875 1.4844,-0.6875 3.4375,-0.6875 1.4375,0 2.5938,0.39062 1.1719,0.39063 1.9844,1.10938 0.8281,0.71875 1.2656,1.71875 0.4375,1 0.4375,2.21875 v 11.375 h -2.625 v -2.34375 h -0.062 q -0.2969,0.59375 -0.875,1.20312 -0.5781,0.59375 -1.5625,1 -0.9688,0.39063 -2.4688,0.39063 z m 0.375,-2.375 q 1.625,0 2.6407,-0.57813 1.0156,-0.59375 1.4843,-1.53125 0.4688,-0.9375 0.4688,-2.01562 v -2.0625 q -0.1563,0.14062 -0.5781,0.26562 -0.4063,0.125 -1.0157,0.25 -0.5937,0.10938 -1.2968,0.21875 -0.6875,0.10938 -1.3907,0.20313 -0.9531,0.125 -1.8125,0.4375 -0.8437,0.29687 -1.375,0.85937 -0.5312,0.54688 -0.5312,1.48438 0,0.76562 0.4062,1.32812 0.4219,0.54688 1.1875,0.84375 0.7657,0.29688 1.8125,0.29688 z m 19,2.4375 q -1.0625,0 -2.0312,-0.3125 -0.9688,-0.29688 -1.7813,-0.92188 -0.8125,-0.625 -1.4062,-1.57812 h -0.031 v 2.5 h -2.5937 v -23.28125 h 2.6562 v 9.21875 h 0.031 q 0.5312,-0.92188 1.3281,-1.53125 0.7969,-0.60938 1.7813,-0.90625 0.9843,-0.3125 2.0468,-0.3125 2.1563,0 3.7657,1.07812 1.6093,1.07813 2.5,3.01563 0.8906,1.92187 0.8906,4.46875 0,2.53125 -0.8906,4.46875 -0.8907,1.92187 -2.5,3.01562 -1.6094,1.07813 -3.7657,1.07813 z m -0.4062,-2.39063 q 1.4375,0 2.5312,-0.70312 1.0938,-0.70313 1.7188,-2.07813 0.625,-1.375 0.625,-3.39062 0,-2.03125 -0.625,-3.40625 -0.625,-1.375 -1.7188,-2.07813 -1.0937,-0.70312 -2.5312,-0.70312 -1.5313,0 -2.6563,0.76562 -1.125,0.76563 -1.7343,2.15625 -0.6094,1.39063 -0.6094,3.26563 0,1.85937 0.6094,3.25 0.6093,1.39062 1.7343,2.15625 1.125,0.76562 2.6563,0.76562 z m 10.6562,2.07813 v -16.5 h 2.6563 v 16.5 z m 1.3282,-19.71875 q -0.75,0 -1.2813,-0.53125 -0.5312,-0.53125 -0.5312,-1.28125 0,-0.75 0.5312,-1.28125 0.5313,-0.53125 1.2813,-0.53125 0.75,0 1.2812,0.53125 0.5313,0.53125 0.5313,1.28125 0,0.75 -0.5313,1.28125 -0.5312,0.53125 -1.2812,0.53125 z m 12.0781,20.09375 q -2.2813,0 -4.0156,-1.09375 -1.7188,-1.10938 -2.6875,-3.04688 -0.9532,-1.9375 -0.9532,-4.45312 0,-2.53125 0.9532,-4.48438 0.9687,-1.95312 2.6875,-3.0625 1.7343,-1.10937 4.0156,-1.10937 1.4062,0 2.5937,0.4375 1.2032,0.42187 2.1094,1.20312 0.9219,0.76563 1.5,1.8125 0.5781,1.04688 0.75,2.29688 h -2.6875 q -0.1406,-0.73438 -0.4844,-1.34375 -0.3437,-0.60938 -0.8906,-1.04688 -0.5312,-0.45312 -1.25,-0.70312 -0.7187,-0.25 -1.6406,-0.25 -1.5469,0 -2.6719,0.78125 -1.1094,0.76562 -1.7031,2.17187 -0.5938,1.40625 -0.5938,3.29688 0,1.875 0.5938,3.26562 0.5937,1.39063 1.7031,2.15625 1.1094,0.76563 2.6719,0.76563 0.9219,0 1.625,-0.23438 0.7031,-0.23437 1.2031,-0.67187 0.5156,-0.45313 0.8594,-1.0625 0.3437,-0.625 0.5312,-1.375 h 2.7344 q -0.1719,1.21875 -0.75,2.26562 -0.5781,1.04688 -1.5,1.82813 -0.9219,0.78125 -2.125,1.21875 -1.1875,0.4375 -2.5781,0.4375 z"
         id="text106"
         style="font-size:32px;font-family:Inter;-inkscape-font-specification:Inter;white-space:pre"
         class="legendtext"
         aria-label="Arabic" /><path
         class="scatterpts"
         d="m 1639.6857,338.08322 a 6.48,6.48 0 1 1 -6.48,-6.48 6.48,6.48 0 0 1 6.48,6.48 z"
         style="fill:#ef553b;fill-opacity:1;stroke-width:0px"
         id="path108" /></g></g><path
     d="m 714.15915,972.4856 v 3.60937 h -10.82813 v -3.60937 z m -7.98438,-4.5 h 4.60938 v 15.90625 q 0,0.82812 0.32812,1.15625 0.34375,0.32812 1.28125,0.32812 0.39063,0 0.92188,0 0.54687,0 0.84375,0 v 3.60938 q -0.42188,0 -1.17188,0 -0.75,0 -1.51562,0 -2.71875,0 -4.01563,-1.0625 -1.28125,-1.0625 -1.28125,-3.3125 z m 20.54596,9.98437 v 3.6875 h -10.57812 v -3.6875 z m 12.375,11.39063 q -2.98437,0 -5.09375,-0.9375 -2.10937,-0.95313 -3.23437,-2.75 -1.125,-1.79688 -1.125,-4.32813 h 4.64062 q 0.0312,1.28125 0.60938,2.1875 0.59375,0.90625 1.67187,1.39063 1.07813,0.48437 2.5625,0.48437 1.34375,0 2.32813,-0.35937 1,-0.375 1.54687,-1.04688 0.5625,-0.67187 0.5625,-1.57812 0,-0.75 -0.4375,-1.29688 -0.42187,-0.5625 -1.34375,-0.98437 -0.90625,-0.42188 -2.39062,-0.73438 l -2.45313,-0.53125 q -3.46875,-0.75 -5.15625,-2.35937 -1.6875,-1.60938 -1.6875,-4.10938 0,-2.125 1.10938,-3.70312 1.10937,-1.59375 3.09375,-2.48438 2,-0.89062 4.64062,-0.89062 2.67188,0 4.625,0.90625 1.95313,0.90625 3.03125,2.59375 1.09375,1.67187 1.17188,4.01562 h -4.5 q -0.125,-1.65625 -1.28125,-2.60937 -1.15625,-0.95313 -3.03125,-0.95313 -1.17188,0 -2.09375,0.375 -0.90625,0.35938 -1.4375,1.01563 -0.51563,0.65625 -0.51563,1.5 0,0.71875 0.40625,1.25 0.40625,0.51562 1.29688,0.90625 0.89062,0.39062 2.3125,0.70312 l 2.23437,0.48438 q 1.85938,0.40625 3.21875,1 1.35938,0.57812 2.23438,1.39062 0.875,0.79688 1.29687,1.84375 0.42188,1.04688 0.42188,2.35938 0,2.23437 -1.125,3.875 -1.10938,1.625 -3.1875,2.5 -2.0625,0.875 -4.92188,0.875 z m 12.0625,-0.375 v -23.28125 h 5.0625 l 7.48438,11.90625 q 0.34375,0.54687 0.875,1.46875 0.53125,0.92187 1.10937,1.98437 0.59375,1.04688 1.125,2.03125 l -0.54687,1.23438 q -0.0469,-1.0625 -0.0937,-2.4375 -0.0469,-1.39063 -0.0625,-2.67188 -0.0156,-1.28125 -0.0156,-2 v -11.51562 h 4.79688 v 23.28125 h -5.07813 l -6.78125,-10.78125 q -0.42187,-0.67188 -1.0625,-1.75 -0.64062,-1.09375 -1.4375,-2.46875 -0.78125,-1.39063 -1.625,-2.9375 l 0.84375,-0.54688 q 0.0937,1.71875 0.14063,3.23438 0.0469,1.5 0.0625,2.65625 0.0156,1.14062 0.0156,1.79687 v 10.79688 z m 23.20313,0 v -23.28125 h 16.70312 v 4.125 h -11.89062 v 5.39062 h 11 v 4.01563 h -11 v 5.625 h 11.89062 v 4.125 z m 33.76562,0.375 q -2.46875,0 -4.34375,-1.07813 -1.85937,-1.09375 -2.90625,-3.03125 -1.03125,-1.95312 -1.03125,-4.5 0,-2.5625 1.03125,-4.5 1.04688,-1.95312 2.90625,-3.04687 1.875,-1.09375 4.34375,-1.09375 1.625,0 3,0.48437 1.375,0.46875 2.39063,1.34375 1.03125,0.875 1.64062,2.07813 0.60938,1.1875 0.71875,2.64062 h -4.45312 q -0.0937,-0.64062 -0.35938,-1.15625 -0.25,-0.51562 -0.65625,-0.89062 -0.40625,-0.375 -0.96875,-0.57813 -0.54687,-0.20312 -1.25,-0.20312 -1.15625,0 -1.98437,0.60937 -0.82813,0.59375 -1.28125,1.70313 -0.4375,1.09375 -0.4375,2.60937 0,1.5 0.4375,2.59375 0.45312,1.09375 1.28125,1.70313 0.82812,0.59375 1.98437,0.59375 0.70313,0 1.25,-0.20313 0.54688,-0.20312 0.9375,-0.57812 0.40625,-0.375 0.65625,-0.89063 0.25,-0.53125 0.35938,-1.1875 h 4.48437 q -0.0781,1.4375 -0.6875,2.64063 -0.59375,1.1875 -1.625,2.07812 -1.03125,0.89063 -2.42187,1.375 -1.375,0.48438 -3.01563,0.48438 z m 17.85938,0 q -2.48438,0 -4.375,-1.07813 -1.89063,-1.07812 -2.95313,-3.01562 -1.04687,-1.9375 -1.04687,-4.51563 0,-2.59375 1.04687,-4.53125 1.0625,-1.9375 2.95313,-3.01562 1.89062,-1.09375 4.375,-1.09375 2.51562,0 4.39062,1.09375 1.89063,1.07812 2.9375,3.01562 1.0625,1.9375 1.0625,4.53125 0,2.57813 -1.0625,4.51563 -1.04687,1.9375 -2.9375,3.01562 -1.875,1.07813 -4.39062,1.07813 z m 0,-3.73438 q 1.125,0 1.96875,-0.57812 0.84375,-0.59375 1.3125,-1.6875 0.46875,-1.09375 0.46875,-2.60938 0,-1.54687 -0.46875,-2.64062 -0.46875,-1.09375 -1.3125,-1.67188 -0.84375,-0.59375 -1.96875,-0.59375 -1.10938,0 -1.95313,0.59375 -0.84375,0.57813 -1.3125,1.67188 -0.46875,1.09375 -0.46875,2.64062 0,1.53125 0.46875,2.625 0.46875,1.07813 1.3125,1.67188 0.84375,0.57812 1.95313,0.57812 z m 10.92187,3.35938 v -16.5 h 4.4375 v 3.71875 h -0.28125 q 0.4375,-1.375 1.23438,-2.26563 0.79687,-0.90625 1.84375,-1.34375 1.04687,-0.45312 2.20312,-0.45312 1.89063,0 3.28125,1.09375 1.39063,1.07812 1.6875,2.96875 h -0.48437 q 0.3125,-1.26563 1.10937,-2.17188 0.79688,-0.90625 1.9375,-1.39062 1.15625,-0.5 2.5,-0.5 1.59375,0 2.84375,0.6875 1.26563,0.6875 1.98438,2.01562 0.71875,1.3125 0.71875,3.20313 v 10.9375 h -4.59375 v -10.09375 q 0,-1.48438 -0.8125,-2.21875 -0.79688,-0.73438 -1.98438,-0.73438 -0.875,0 -1.53125,0.39063 -0.65625,0.39062 -1.01562,1.09375 -0.34375,0.6875 -0.34375,1.625 v 9.9375 h -4.4375 v -10.21875 q 0,-1.28125 -0.76563,-2.04688 -0.76562,-0.78125 -1.98437,-0.78125 -0.8125,0 -1.48438,0.39063 -0.65625,0.375 -1.0625,1.125 -0.39062,0.73437 -0.39062,1.79687 v 9.73438 z m 28.28125,6.53125 V 972.4856 h 4.54688 v 2.23437 h 0.0469 q 0.51563,-0.85937 1.23438,-1.42187 0.73437,-0.57813 1.65625,-0.85938 0.9375,-0.29687 2,-0.29687 2.10937,0 3.70312,1.09375 1.60938,1.07812 2.5,3.01562 0.90625,1.92188 0.90625,4.46875 0,2.57813 -0.89062,4.51563 -0.89063,1.9375 -2.48438,3.01562 -1.59375,1.07813 -3.76562,1.07813 -1.07813,0 -2,-0.3125 -0.90625,-0.3125 -1.625,-0.9375 -0.70313,-0.625 -1.17188,-1.5625 h -0.0469 v 9 z m 8.26563,-9.9375 q 1.125,0 1.9375,-0.5625 0.82812,-0.57813 1.28125,-1.65625 0.46875,-1.09375 0.46875,-2.64063 0,-1.54687 -0.46875,-2.625 -0.45313,-1.07812 -1.28125,-1.65625 -0.8125,-0.57812 -1.9375,-0.57812 -1.15625,0 -2.04688,0.60937 -0.875,0.59375 -1.35937,1.6875 -0.46875,1.07813 -0.46875,2.5625 0,1.46875 0.46875,2.5625 0.48437,1.09375 1.35937,1.70313 0.89063,0.59375 2.04688,0.59375 z m 18.51562,3.78125 q -2.48437,0 -4.375,-1.07813 -1.89062,-1.07812 -2.95312,-3.01562 -1.04688,-1.9375 -1.04688,-4.51563 0,-2.59375 1.04688,-4.53125 1.0625,-1.9375 2.95312,-3.01562 1.89063,-1.09375 4.375,-1.09375 2.51563,0 4.39063,1.09375 1.89062,1.07812 2.9375,3.01562 1.0625,1.9375 1.0625,4.53125 0,2.57813 -1.0625,4.51563 -1.04688,1.9375 -2.9375,3.01562 -1.875,1.07813 -4.39063,1.07813 z m 0,-3.73438 q 1.125,0 1.96875,-0.57812 0.84375,-0.59375 1.3125,-1.6875 0.46875,-1.09375 0.46875,-2.60938 0,-1.54687 -0.46875,-2.64062 -0.46875,-1.09375 -1.3125,-1.67188 -0.84375,-0.59375 -1.96875,-0.59375 -1.10937,0 -1.95312,0.59375 -0.84375,0.57813 -1.3125,1.67188 -0.46875,1.09375 -0.46875,2.64062 0,1.53125 0.46875,2.625 0.46875,1.07813 1.3125,1.67188 0.84375,0.57812 1.95312,0.57812 z m 15.53125,-5.8125 v 9.17188 h -4.60937 v -16.5 h 4.53125 v 4.29687 h -0.78125 q 0.78125,-2.1875 2.23437,-3.40625 1.45313,-1.23437 3.70313,-1.23437 1.76562,0 3.0625,0.76562 1.29687,0.75 2,2.20313 0.71875,1.45312 0.71875,3.54687 v 10.32813 h -4.59375 v -9.48438 q 0,-1.65625 -0.79688,-2.51562 -0.78125,-0.875 -2.23437,-0.875 -0.95313,0 -1.6875,0.39062 -0.73438,0.39063 -1.14063,1.21875 -0.40625,0.8125 -0.40625,2.09375 z m 21.65625,9.54688 q -2.5,0 -4.35937,-1.09375 -1.84375,-1.10938 -2.875,-3.0625 -1.01563,-1.95313 -1.01563,-4.45313 0,-2.53125 1.03125,-4.46875 1.04688,-1.95312 2.875,-3.0625 1.82813,-1.10937 4.1875,-1.10937 1.82813,0 3.3125,0.625 1.48438,0.60937 2.5625,1.76562 1.07813,1.14063 1.65625,2.70313 0.59375,1.5625 0.59375,3.45312 v 1.23438 h -14.57812 v -2.9375 h 12.35937 l -2.07812,0.70312 q 0,-1.25 -0.45313,-2.15625 -0.45312,-0.90625 -1.29687,-1.39062 -0.82813,-0.5 -1.98438,-0.5 -1.14062,0 -1.96875,0.5 -0.82812,0.48437 -1.28125,1.39062 -0.45312,0.90625 -0.45312,2.15625 v 2 q 0,1.28125 0.45312,2.25 0.46875,0.95313 1.34375,1.48438 0.875,0.51562 2.10938,0.51562 0.90625,0 1.59375,-0.25 0.70312,-0.26562 1.17187,-0.73437 0.48438,-0.48438 0.6875,-1.125 h 4.20313 q -0.29688,1.64062 -1.39063,2.89062 -1.09375,1.25 -2.75,1.96875 -1.65625,0.70313 -3.65625,0.70313 z m 15.04688,-9.54688 v 9.17188 h -4.60938 v -16.5 h 4.53125 v 4.29687 h -0.78125 q 0.78125,-2.1875 2.23438,-3.40625 1.45312,-1.23437 3.70312,-1.23437 1.76563,0 3.0625,0.76562 1.29688,0.75 2,2.20313 0.71875,1.45312 0.71875,3.54687 v 10.32813 h -4.59375 v -9.48438 q 0,-1.65625 -0.79687,-2.51562 -0.78125,-0.875 -2.23438,-0.875 -0.95312,0 -1.6875,0.39062 -0.73437,0.39063 -1.14062,1.21875 -0.40625,0.8125 -0.40625,2.09375 z m 23.60937,-7.32812 v 3.60937 h -10.82812 v -3.60937 z m -7.98437,-4.5 h 4.60937 v 15.90625 q 0,0.82812 0.32813,1.15625 0.34375,0.32812 1.28125,0.32812 0.39062,0 0.92187,0 0.54688,0 0.84375,0 v 3.60938 q -0.42187,0 -1.17187,0 -0.75,0 -1.51563,0 -2.71875,0 -4.01562,-1.0625 -1.28125,-1.0625 -1.28125,-3.3125 z m 26.26562,-2.28125 v 23.28125 h -4.625 v -18.85938 h -0.0312 l -5.46875,3.46875 v -4.21875 l 5.76563,-3.67187 z"
     id="text116"
     style="font-weight:bold;font-size:32px;font-family:Inter;-inkscape-font-specification:'Inter Bold';text-anchor:middle;white-space:pre"
     class="xtitle"
     aria-label="t-SNE component 1" /><path
     d="m -663.89261,149.56285 v 3.60938 h -10.82812 v -3.60938 z m -7.98437,-4.5 h 4.60937 v 15.90625 q 0,0.82813 0.32813,1.15625 0.34375,0.32813 1.28125,0.32813 0.39062,0 0.92187,0 0.54688,0 0.84375,0 v 3.60937 q -0.42187,0 -1.17187,0 -0.75,0 -1.51563,0 -2.71875,0 -4.01562,-1.0625 -1.28125,-1.0625 -1.28125,-3.3125 z m 20.54596,9.98438 v 3.6875 h -10.57813 v -3.6875 z m 12.375,11.39062 q -2.98438,0 -5.09375,-0.9375 -2.10938,-0.95312 -3.23438,-2.75 -1.125,-1.79687 -1.125,-4.32812 h 4.64063 q 0.0312,1.28125 0.60937,2.1875 0.59375,0.90625 1.67188,1.39062 1.07812,0.48438 2.5625,0.48438 1.34375,0 2.32812,-0.35938 1,-0.375 1.54688,-1.04687 0.5625,-0.67188 0.5625,-1.57813 0,-0.75 -0.4375,-1.29687 -0.42188,-0.5625 -1.34375,-0.98438 -0.90625,-0.42187 -2.39063,-0.73437 l -2.45312,-0.53125 q -3.46875,-0.75 -5.15625,-2.35938 -1.6875,-1.60937 -1.6875,-4.10937 0,-2.125 1.10937,-3.70313 1.10938,-1.59375 3.09375,-2.48437 2,-0.89063 4.64063,-0.89063 2.67187,0 4.625,0.90625 1.95312,0.90625 3.03125,2.59375 1.09375,1.67188 1.17187,4.01563 h -4.5 q -0.125,-1.65625 -1.28125,-2.60938 -1.15625,-0.95312 -3.03125,-0.95312 -1.17187,0 -2.09375,0.375 -0.90625,0.35937 -1.4375,1.01562 -0.51562,0.65625 -0.51562,1.5 0,0.71875 0.40625,1.25 0.40625,0.51563 1.29687,0.90625 0.89063,0.39063 2.3125,0.70313 l 2.23438,0.48437 q 1.85937,0.40625 3.21875,1 1.35937,0.57813 2.23437,1.39063 0.875,0.79687 1.29688,1.84375 0.42187,1.04687 0.42187,2.35937 0,2.23438 -1.125,3.875 -1.10937,1.625 -3.1875,2.5 -2.0625,0.875 -4.92187,0.875 z m 12.0625,-0.375 V 142.7816 h 5.0625 l 7.48437,11.90625 q 0.34375,0.54688 0.875,1.46875 0.53125,0.92188 1.10938,1.98438 0.59375,1.04687 1.125,2.03125 l -0.54688,1.23437 q -0.0469,-1.0625 -0.0937,-2.4375 -0.0469,-1.39062 -0.0625,-2.67187 -0.0156,-1.28125 -0.0156,-2 V 142.7816 h 4.79687 v 23.28125 h -5.07812 l -6.78125,-10.78125 q -0.42188,-0.67187 -1.0625,-1.75 -0.64063,-1.09375 -1.4375,-2.46875 -0.78125,-1.39062 -1.625,-2.9375 l 0.84375,-0.54687 q 0.0937,1.71875 0.14062,3.23437 0.0469,1.5 0.0625,2.65625 0.0156,1.14063 0.0156,1.79688 v 10.79687 z m 23.20312,0 V 142.7816 h 16.70313 v 4.125 h -11.89063 v 5.39063 h 11 v 4.01562 h -11 v 5.625 h 11.89063 v 4.125 z m 33.76563,0.375 q -2.46875,0 -4.34375,-1.07812 -1.85938,-1.09375 -2.90625,-3.03125 -1.03125,-1.95313 -1.03125,-4.5 0,-2.5625 1.03125,-4.5 1.04687,-1.95313 2.90625,-3.04688 1.875,-1.09375 4.34375,-1.09375 1.625,0 3,0.48438 1.375,0.46875 2.39062,1.34375 1.03125,0.875 1.64063,2.07812 0.60937,1.1875 0.71875,2.64063 h -4.45313 q -0.0937,-0.64063 -0.35937,-1.15625 -0.25,-0.51563 -0.65625,-0.89063 -0.40625,-0.375 -0.96875,-0.57812 -0.54688,-0.20313 -1.25,-0.20313 -1.15625,0 -1.98438,0.60938 -0.82812,0.59375 -1.28125,1.70312 -0.4375,1.09375 -0.4375,2.60938 0,1.5 0.4375,2.59375 0.45313,1.09375 1.28125,1.70312 0.82813,0.59375 1.98438,0.59375 0.70312,0 1.25,-0.20312 0.54687,-0.20313 0.9375,-0.57813 0.40625,-0.375 0.65625,-0.89062 0.25,-0.53125 0.35937,-1.1875 h 4.48438 q -0.0781,1.4375 -0.6875,2.64062 -0.59375,1.1875 -1.625,2.07813 -1.03125,0.89062 -2.42188,1.375 -1.375,0.48437 -3.01562,0.48437 z m 17.85937,0 q -2.48437,0 -4.375,-1.07812 -1.89062,-1.07813 -2.95312,-3.01563 -1.04688,-1.9375 -1.04688,-4.51562 0,-2.59375 1.04688,-4.53125 1.0625,-1.9375 2.95312,-3.01563 1.89063,-1.09375 4.375,-1.09375 2.51563,0 4.39063,1.09375 1.89062,1.07813 2.9375,3.01563 1.0625,1.9375 1.0625,4.53125 0,2.57812 -1.0625,4.51562 -1.04688,1.9375 -2.9375,3.01563 -1.875,1.07812 -4.39063,1.07812 z m 0,-3.73437 q 1.125,0 1.96875,-0.57813 0.84375,-0.59375 1.3125,-1.6875 0.46875,-1.09375 0.46875,-2.60937 0,-1.54688 -0.46875,-2.64063 -0.46875,-1.09375 -1.3125,-1.67187 -0.84375,-0.59375 -1.96875,-0.59375 -1.10937,0 -1.95312,0.59375 -0.84375,0.57812 -1.3125,1.67187 -0.46875,1.09375 -0.46875,2.64063 0,1.53125 0.46875,2.625 0.46875,1.07812 1.3125,1.67187 0.84375,0.57813 1.95312,0.57813 z m 10.92188,3.35937 v -16.5 h 4.4375 v 3.71875 h -0.28125 q 0.4375,-1.375 1.23437,-2.26562 0.79688,-0.90625 1.84375,-1.34375 1.04688,-0.45313 2.20313,-0.45313 1.89062,0 3.28125,1.09375 1.39062,1.07813 1.6875,2.96875 h -0.48438 q 0.3125,-1.26562 1.10938,-2.17187 0.79687,-0.90625 1.9375,-1.39063 1.15625,-0.5 2.5,-0.5 1.59375,0 2.84375,0.6875 1.26562,0.6875 1.98437,2.01563 0.71875,1.3125 0.71875,3.20312 v 10.9375 h -4.59375 V 155.9691 q 0,-1.48437 -0.8125,-2.21875 -0.79687,-0.73437 -1.98437,-0.73437 -0.875,0 -1.53125,0.39062 -0.65625,0.39063 -1.01563,1.09375 -0.34375,0.6875 -0.34375,1.625 v 9.9375 h -4.4375 V 155.8441 q 0,-1.28125 -0.76562,-2.04687 -0.76563,-0.78125 -1.98438,-0.78125 -0.8125,0 -1.48437,0.39062 -0.65625,0.375 -1.0625,1.125 -0.39063,0.73438 -0.39063,1.79688 v 9.73437 z m 28.28125,6.53125 v -23.03125 h 4.54687 v 2.23438 h 0.0469 q 0.51562,-0.85938 1.23437,-1.42188 0.73438,-0.57812 1.65625,-0.85937 0.9375,-0.29688 2,-0.29688 2.10938,0 3.70313,1.09375 1.60937,1.07813 2.5,3.01563 0.90625,1.92187 0.90625,4.46875 0,2.57812 -0.89063,4.51562 -0.89062,1.9375 -2.48437,3.01563 -1.59375,1.07812 -3.76563,1.07812 -1.07812,0 -2,-0.3125 -0.90625,-0.3125 -1.625,-0.9375 -0.70312,-0.625 -1.17187,-1.5625 h -0.0469 v 9 z m 8.26562,-9.9375 q 1.125,0 1.9375,-0.5625 0.82813,-0.57812 1.28125,-1.65625 0.46875,-1.09375 0.46875,-2.64062 0,-1.54688 -0.46875,-2.625 -0.45312,-1.07813 -1.28125,-1.65625 -0.8125,-0.57813 -1.9375,-0.57813 -1.15625,0 -2.04687,0.60938 -0.875,0.59375 -1.35938,1.6875 -0.46875,1.07812 -0.46875,2.5625 0,1.46875 0.46875,2.5625 0.48438,1.09375 1.35938,1.70312 0.89062,0.59375 2.04687,0.59375 z m 18.51563,3.78125 q -2.48438,0 -4.375,-1.07812 -1.89063,-1.07813 -2.95313,-3.01563 -1.04687,-1.9375 -1.04687,-4.51562 0,-2.59375 1.04687,-4.53125 1.0625,-1.9375 2.95313,-3.01563 1.89062,-1.09375 4.375,-1.09375 2.51562,0 4.39062,1.09375 1.89063,1.07813 2.9375,3.01563 1.0625,1.9375 1.0625,4.53125 0,2.57812 -1.0625,4.51562 -1.04687,1.9375 -2.9375,3.01563 -1.875,1.07812 -4.39062,1.07812 z m 0,-3.73437 q 1.125,0 1.96875,-0.57813 0.84375,-0.59375 1.3125,-1.6875 0.46875,-1.09375 0.46875,-2.60937 0,-1.54688 -0.46875,-2.64063 -0.46875,-1.09375 -1.3125,-1.67187 -0.84375,-0.59375 -1.96875,-0.59375 -1.10938,0 -1.95313,0.59375 -0.84375,0.57812 -1.3125,1.67187 -0.46875,1.09375 -0.46875,2.64063 0,1.53125 0.46875,2.625 0.46875,1.07812 1.3125,1.67187 0.84375,0.57813 1.95313,0.57813 z m 15.53125,-5.8125 v 9.17187 h -4.60938 v -16.5 h 4.53125 v 4.29688 h -0.78125 q 0.78125,-2.1875 2.23438,-3.40625 1.45312,-1.23438 3.70312,-1.23438 1.76563,0 3.0625,0.76563 1.29688,0.75 2,2.20312 0.71875,1.45313 0.71875,3.54688 v 10.32812 h -4.59375 v -9.48437 q 0,-1.65625 -0.79687,-2.51563 -0.78125,-0.875 -2.23438,-0.875 -0.95312,0 -1.6875,0.39063 -0.73437,0.39062 -1.14062,1.21875 -0.40625,0.8125 -0.40625,2.09375 z m 21.65625,9.54687 q -2.5,0 -4.35938,-1.09375 -1.84375,-1.10937 -2.875,-3.0625 -1.01562,-1.95312 -1.01562,-4.45312 0,-2.53125 1.03125,-4.46875 1.04687,-1.95313 2.875,-3.0625 1.82812,-1.10938 4.1875,-1.10938 1.82812,0 3.3125,0.625 1.48437,0.60938 2.5625,1.76563 1.07812,1.14062 1.65625,2.70312 0.59375,1.5625 0.59375,3.45313 v 1.23437 h -14.57813 v -2.9375 h 12.35938 l -2.07813,0.70313 q 0,-1.25 -0.45312,-2.15625 -0.45313,-0.90625 -1.29688,-1.39063 -0.82812,-0.5 -1.98437,-0.5 -1.14063,0 -1.96875,0.5 -0.82813,0.48438 -1.28125,1.39063 -0.45313,0.90625 -0.45313,2.15625 v 2 q 0,1.28125 0.45313,2.25 0.46875,0.95312 1.34375,1.48437 0.875,0.51563 2.10937,0.51563 0.90625,0 1.59375,-0.25 0.70313,-0.26563 1.17188,-0.73438 0.48437,-0.48437 0.6875,-1.125 h 4.20312 q -0.29687,1.64063 -1.39062,2.89063 -1.09375,1.25 -2.75,1.96875 -1.65625,0.70312 -3.65625,0.70312 z m 15.04687,-9.54687 v 9.17187 h -4.60937 v -16.5 h 4.53125 v 4.29688 h -0.78125 q 0.78125,-2.1875 2.23437,-3.40625 1.45313,-1.23438 3.70313,-1.23438 1.76562,0 3.0625,0.76563 1.29687,0.75 2,2.20312 0.71875,1.45313 0.71875,3.54688 v 10.32812 h -4.59375 v -9.48437 q 0,-1.65625 -0.79688,-2.51563 -0.78125,-0.875 -2.23437,-0.875 -0.95313,0 -1.6875,0.39063 -0.73438,0.39062 -1.14063,1.21875 -0.40625,0.8125 -0.40625,2.09375 z m 23.60938,-7.32813 v 3.60938 h -10.82813 v -3.60938 z m -7.98438,-4.5 h 4.60938 v 15.90625 q 0,0.82813 0.32812,1.15625 0.34375,0.32813 1.28125,0.32813 0.39063,0 0.92188,0 0.54687,0 0.84375,0 v 3.60937 q -0.42188,0 -1.17188,0 -0.75,0 -1.51562,0 -2.71875,0 -4.01563,-1.0625 -1.28125,-1.0625 -1.28125,-3.3125 z m 16.78125,21 v -3.53125 l 8.53125,-7.29687 q 1.03125,-0.90625 1.84375,-1.70313 0.8125,-0.79687 1.26563,-1.67187 0.46875,-0.875 0.46875,-1.95313 0,-1.10937 -0.46875,-1.92187 -0.45313,-0.82813 -1.29688,-1.28125 -0.82812,-0.45313 -1.98437,-0.45313 -1.25,0 -2.15625,0.54688 -0.89063,0.54687 -1.39063,1.5625 -0.48437,1 -0.48437,2.42187 h -4.42188 q 0,-2.53125 1.03125,-4.40625 1.04688,-1.89062 2.9375,-2.92187 1.89063,-1.04688 4.48438,-1.04688 2.39062,0 4.25,0.89063 1.85937,0.89062 2.90625,2.53125 1.0625,1.625 1.0625,3.82812 0,1.625 -0.60938,2.96875 -0.60937,1.34375 -1.76562,2.60938 -1.14063,1.25 -2.76563,2.64062 l -4.9375,4.29688 v 0.0312 h 10.1875 v 3.85937 z"
     id="text117"
     style="font-weight:bold;font-size:32px;font-family:Inter;-inkscape-font-specification:'Inter Bold';text-anchor:middle;white-space:pre"
     class="ytitle"
     transform="rotate(-90)"
     aria-label="t-SNE component 2" /><path
     style="fill:#1a1a1a;stroke:none;stroke-width:5;opacity:0.15165141"
     d="m 951.72779,368.99364 c -7.47525,6.67617 -18.55923,19.66763 -20.18309,30.10728 -1.62386,10.43965 6.21211,18.32716 14.95051,20.13149 8.7384,1.80433 18.3787,-2.47452 24.92602,-8.71256 6.54732,-6.23805 10.00133,-14.43488 8.73821,-22.91551 -1.26312,-8.48063 -7.2432,-17.24453 -12.16659,-21.44613 -4.92339,-4.2016 -8.78982,-3.84073 -16.26506,2.83543 z"
     id="path136"
     inkscape:path-effect="#path-effect136"
     inkscape:original-d="m 955.33652,362.67835 c -11.08398,12.99146 -22.16797,25.98292 -33.25195,38.97439 7.83627,7.88783 15.67224,15.77534 23.50836,23.66302 9.64068,-4.27902 19.28098,-8.55787 28.92147,-12.8368 3.45415,-8.19716 6.90816,-16.39399 10.36224,-24.59099 -5.98032,-8.76426 -11.9604,-17.52816 -17.94059,-26.29224 -3.86659,0.36088 -7.73302,0.72174 -11.59953,1.08262 z" /><path
     style="opacity:0.151651;fill:#1a1a1a;stroke:none;stroke-width:5"
     d="m 951.72779,368.99364 c -7.47525,6.67617 -18.55923,19.66763 -20.18309,30.10728 -1.62386,10.43965 6.21211,18.32716 14.95051,20.13149 8.7384,1.80433 18.3787,-2.47452 24.92602,-8.71256 6.54732,-6.23805 10.00133,-14.43488 8.73821,-22.91551 -1.26312,-8.48063 -7.2432,-17.24453 -12.16659,-21.44613 -4.92339,-4.2016 -8.78982,-3.84073 -16.26506,2.83543 z"
     id="path137"
     inkscape:path-effect="#path-effect138"
     inkscape:original-d="m 955.33652,362.67835 c -11.08398,12.99146 -22.16797,25.98292 -33.25195,38.97439 7.83627,7.88783 15.67224,15.77534 23.50836,23.66302 9.64068,-4.27902 19.28098,-8.55787 28.92147,-12.8368 3.45415,-8.19716 6.90816,-16.39399 10.36224,-24.59099 -5.98032,-8.76426 -11.9604,-17.52816 -17.94059,-26.29224 -3.86659,0.36088 -7.73302,0.72174 -11.59953,1.08262 z"
     transform="rotate(63.496968,1030.3917,430.24559)" /><path
     style="opacity:0.151651;fill:#1a1a1a;stroke:none;stroke-width:5.41595"
     d="m 951.72779,368.99364 c -7.47525,6.67617 -18.55923,19.66763 -20.18309,30.10728 -1.62386,10.43965 6.21211,18.32716 14.95051,20.13149 8.7384,1.80433 18.3787,-2.47452 24.92602,-8.71256 6.54732,-6.23805 10.00133,-14.43488 8.73821,-22.91551 -1.26312,-8.48063 -7.2432,-17.24453 -12.16659,-21.44613 -4.92339,-4.2016 -8.78982,-3.84073 -16.26506,2.83543 z"
     id="path138"
     inkscape:path-effect="#path-effect140"
     inkscape:original-d="m 955.33652,362.67835 c -11.08398,12.99146 -22.16797,25.98292 -33.25195,38.97439 7.83627,7.88783 15.67224,15.77534 23.50836,23.66302 9.64068,-4.27902 19.28098,-8.55787 28.92147,-12.8368 3.45415,-8.19716 6.90816,-16.39399 10.36224,-24.59099 -5.98032,-8.76426 -11.9604,-17.52816 -17.94059,-26.29224 -3.86659,0.36088 -7.73302,0.72174 -11.59953,1.08262 z"
     transform="matrix(0.00761669,0.92316754,-0.92316754,0.00761669,1401.0741,-629.87134)" /><path
     style="opacity:0.151651;fill:#1a1a1a;stroke:none;stroke-width:6.0906"
     d="m 951.72779,368.99364 c -7.47525,6.67617 -18.55923,19.66763 -20.18309,30.10728 -1.62386,10.43965 6.21211,18.32716 14.95051,20.13149 8.7384,1.80433 18.3787,-2.47452 24.92602,-8.71256 6.54732,-6.23805 10.00133,-14.43488 8.73821,-22.91551 -1.26312,-8.48063 -7.2432,-17.24453 -12.16659,-21.44613 -4.92339,-4.2016 -8.78982,-3.84073 -16.26506,2.83543 z"
     id="path140"
     inkscape:path-effect="#path-effect142"
     inkscape:original-d="m 955.33652,362.67835 c -11.08398,12.99146 -22.16797,25.98292 -33.25195,38.97439 7.83627,7.88783 15.67224,15.77534 23.50836,23.66302 9.64068,-4.27902 19.28098,-8.55787 28.92147,-12.8368 3.45415,-8.19716 6.90816,-16.39399 10.36224,-24.59099 -5.98032,-8.76426 -11.9604,-17.52816 -17.94059,-26.29224 -3.86659,0.36088 -7.73302,0.72174 -11.59953,1.08262 z"
     transform="matrix(0.81319304,0.11248851,-0.11248851,0.81319304,490.48169,-171.24925)" /><path
     style="opacity:0.151651;fill:#1a1a1a;stroke:none;stroke-width:6.0906"
     d="m 951.72779,368.99364 c -7.47525,6.67617 -18.55923,19.66763 -20.18309,30.10728 -1.62386,10.43965 6.21211,18.32716 14.95051,20.13149 8.7384,1.80433 18.3787,-2.47452 24.92602,-8.71256 6.54732,-6.23805 10.00133,-14.43488 8.73821,-22.91551 -1.26312,-8.48063 -7.2432,-17.24453 -12.16659,-21.44613 -4.92339,-4.2016 -8.78982,-3.84073 -16.26506,2.83543 z"
     id="path142"
     inkscape:path-effect="#path-effect144"
     inkscape:original-d="m 955.33652,362.67835 c -11.08398,12.99146 -22.16797,25.98292 -33.25195,38.97439 7.83627,7.88783 15.67224,15.77534 23.50836,23.66302 9.64068,-4.27902 19.28098,-8.55787 28.92147,-12.8368 3.45415,-8.19716 6.90816,-16.39399 10.36224,-24.59099 -5.98032,-8.76426 -11.9604,-17.52816 -17.94059,-26.29224 -3.86659,0.36088 -7.73302,0.72174 -11.59953,1.08262 z"
     transform="matrix(0.81891285,-0.057605,0.057605,0.81891285,269.22408,515.38003)" /><path
     style="opacity:0.151651;fill:#1a1a1a;stroke:none;stroke-width:4.89905"
     d="m 946.2415,386.92251 c -6.4914,6.94231 -14.72565,9.96525 -15.94751,15.70682 -1.22187,5.74156 4.56863,14.20114 11.87285,15.77934 7.30422,1.57819 16.12129,-3.7252 23.78317,-11.29926 7.66189,-7.57406 14.16767,-17.41788 13.35498,-25.93853 -0.81269,-8.52064 -8.94375,-15.71706 -15.38378,-13.88457 -6.44002,1.8325 -11.18831,12.69389 -17.67971,19.6362 z"
     id="path144"
     inkscape:path-effect="#path-effect146"
     inkscape:original-d="m 947.9845,390.84183 c -8.2344,3.02299 -16.46865,6.04593 -24.70322,9.06898 5.79085,8.46008 11.58135,16.91966 17.37219,25.37975 8.81759,-5.3037 17.63466,-10.60709 26.45225,-15.91079 6.50618,-9.84442 13.01196,-19.68824 19.51814,-29.53267 -8.13156,-7.19686 -16.26262,-14.39328 -24.39418,-21.59014 -4.74849,10.86185 -9.49679,21.72324 -14.24518,32.58487 z"
     transform="matrix(-1.01809,0.07161577,-0.07161577,-1.01809,2090.8463,1171.2289)"
     sodipodi:nodetypes="ccccccc" /><path
     style="opacity:0.151651;fill:#1a1a1a;stroke:none;stroke-width:8.14879"
     d="m 951.72779,368.99364 c -7.47525,6.67617 -18.55923,19.66763 -20.18309,30.10728 -1.62386,10.43965 6.21211,18.32716 14.95051,20.13149 8.7384,1.80433 18.3787,-2.47452 24.92602,-8.71256 6.54732,-6.23805 10.00133,-14.43488 8.73821,-22.91551 -1.26312,-8.48063 -7.2432,-17.24453 -12.16659,-21.44613 -4.92339,-4.2016 -8.78982,-3.84073 -16.26506,2.83543 z"
     id="path146"
     inkscape:path-effect="#path-effect148"
     inkscape:original-d="m 955.33652,362.67835 c -11.08398,12.99146 -22.16797,25.98292 -33.25195,38.97439 7.83627,7.88783 15.67224,15.77534 23.50836,23.66302 9.64068,-4.27902 19.28098,-8.55787 28.92147,-12.8368 3.45415,-8.19716 6.90816,-16.39399 10.36224,-24.59099 -5.98032,-8.76426 -11.9604,-17.52816 -17.94059,-26.29224 -3.86659,0.36088 -7.73302,0.72174 -11.59953,1.08262 z"
     transform="matrix(0.61207501,-0.04305535,0.04305535,0.61207501,400.65505,335.52411)" /><path
     style="opacity:0.151651;fill:#1a1a1a;stroke:none;stroke-width:8.14879"
     d="m 951.72779,368.99364 c -7.47525,6.67617 -18.55923,19.66763 -20.18309,30.10728 -1.62386,10.43965 6.21211,18.32716 14.95051,20.13149 8.7384,1.80433 18.3787,-2.47452 24.92602,-8.71256 6.54732,-6.23805 10.00133,-14.43488 8.73821,-22.91551 -1.26312,-8.48063 -7.2432,-17.24453 -12.16659,-21.44613 -4.92339,-4.2016 -8.78982,-3.84073 -16.26506,2.83543 z"
     id="path148"
     inkscape:path-effect="#path-effect150"
     inkscape:original-d="m 955.33652,362.67835 c -11.08398,12.99146 -22.16797,25.98292 -33.25195,38.97439 7.83627,7.88783 15.67224,15.77534 23.50836,23.66302 9.64068,-4.27902 19.28098,-8.55787 28.92147,-12.8368 3.45415,-8.19716 6.90816,-16.39399 10.36224,-24.59099 -5.98032,-8.76426 -11.9604,-17.52816 -17.94059,-26.29224 -3.86659,0.36088 -7.73302,0.72174 -11.59953,1.08262 z"
     transform="matrix(0.61207501,0.04305535,0.04305535,-0.61207501,-118.69415,728.62295)" /><path
     style="opacity:0.151651;fill:#1a1a1a;stroke:none;stroke-width:10.7221"
     d="m 951.72779,368.99364 c -7.47525,6.67617 -18.55923,19.66763 -20.18309,30.10728 -1.62386,10.43965 6.21211,18.32716 14.95051,20.13149 8.7384,1.80433 18.3787,-2.47452 24.92602,-8.71256 6.54732,-6.23805 10.00133,-14.43488 8.73821,-22.91551 -1.26312,-8.48063 -7.2432,-17.24453 -12.16659,-21.44613 -4.92339,-4.2016 -8.78982,-3.84073 -16.26506,2.83543 z"
     id="path150"
     inkscape:path-effect="#path-effect152"
     inkscape:original-d="m 955.33652,362.67835 c -11.08398,12.99146 -22.16797,25.98292 -33.25195,38.97439 7.83627,7.88783 15.67224,15.77534 23.50836,23.66302 9.64068,-4.27902 19.28098,-8.55787 28.92147,-12.8368 3.45415,-8.19716 6.90816,-16.39399 10.36224,-24.59099 -5.98032,-8.76426 -11.9604,-17.52816 -17.94059,-26.29224 -3.86659,0.36088 -7.73302,0.72174 -11.59953,1.08262 z"
     transform="matrix(0.46517637,0.03272202,0.03272202,-0.46517637,-131.77864,602.11016)" /><path
     style="opacity:0.151651;fill:#1a1a1a;stroke:none;stroke-width:10.7221"
     d="m 951.72779,368.99364 c -7.47525,6.67617 -18.55923,19.66763 -20.18309,30.10728 -1.62386,10.43965 6.21211,18.32716 14.95051,20.13149 8.7384,1.80433 18.3787,-2.47452 24.92602,-8.71256 6.54732,-6.23805 10.00133,-14.43488 8.73821,-22.91551 -1.26312,-8.48063 -7.2432,-17.24453 -12.16659,-21.44613 -4.92339,-4.2016 -8.78982,-3.84073 -16.26506,2.83543 z"
     id="path152"
     inkscape:path-effect="#path-effect154"
     inkscape:original-d="m 955.33652,362.67835 c -11.08398,12.99146 -22.16797,25.98292 -33.25195,38.97439 7.83627,7.88783 15.67224,15.77534 23.50836,23.66302 9.64068,-4.27902 19.28098,-8.55787 28.92147,-12.8368 3.45415,-8.19716 6.90816,-16.39399 10.36224,-24.59099 -5.98032,-8.76426 -11.9604,-17.52816 -17.94059,-26.29224 -3.86659,0.36088 -7.73302,0.72174 -11.59953,1.08262 z"
     transform="matrix(0.46517637,0.03272202,0.03272202,-0.46517637,848.20194,813.12307)" /><path
     style="font-weight:bold;font-size:37.3333px;font-family:Inter;-inkscape-font-specification:'Inter Bold';white-space:pre"
     d="m 242.52837,126.3727 v -4.11978 l 9.95312,-8.51302 q 1.20312,-1.05729 2.15104,-1.98698 0.94791,-0.92968 1.47656,-1.95051 0.54687,-1.02084 0.54687,-2.27865 0,-1.29427 -0.54687,-2.24218 -0.52865,-0.96615 -1.51302,-1.49479 -0.96615,-0.52865 -2.3151,-0.52865 -1.45834,0 -2.51563,0.63802 -1.03906,0.63802 -1.62239,1.82292 -0.56511,1.16666 -0.56511,2.82551 H 242.419 q 0,-2.95312 1.20312,-5.14062 1.22135,-2.20572 3.42708,-3.408848 2.20573,-1.221353 5.23177,-1.221353 2.78906,0 4.95832,1.039061 2.16927,1.03906 3.39063,2.95312 1.23958,1.89583 1.23958,4.46614 0,1.89584 -0.71094,3.46354 -0.71093,1.56771 -2.05989,3.04427 -1.33073,1.45833 -3.22656,3.08073 l -5.76041,5.01301 v 0.0365 h 11.8854 v 4.5026 z m 32.50258,0 h -7.01823 v -4.72135 h 6.72656 q 2.73437,0 4.52083,-1.02083 1.78646,-1.03906 2.66146,-3.00781 0.875,-1.98698 0.875,-4.84895 0,-2.86198 -0.875,-4.83073 -0.875,-1.96875 -2.66146,-2.98958 -1.76823,-1.02083 -4.46614,-1.02083 h -6.90885 v -4.721352 h 7.2552 q 4.08333,0 7.07291,1.658852 2.98958,1.64062 4.61198,4.68489 1.62239,3.04427 1.62239,7.21875 0,4.17447 -1.62239,7.23697 -1.6224,3.04427 -4.63021,4.70312 -2.98958,1.65885 -7.16405,1.65885 z M 271.05699,99.211268 V 126.3727 h -5.61458 V 99.211268 Z m 39.50257,7.911452 v 4.21093 h -12.6328 v -4.21093 z m -9.31509,-5.25 h 5.3776 V 120.43 q 0,0.96615 0.38281,1.34896 0.40104,0.38281 1.49479,0.38281 0.45573,0 1.07552,0 0.63802,0 0.98437,0 v 4.21093 q -0.49218,0 -1.36718,0 -0.875,0 -1.76823,0 -3.17187,0 -4.68489,-1.23958 -1.49479,-1.23958 -1.49479,-3.86458 z m 23.97026,11.64843 v 4.30208 h -12.34114 v -4.30208 z m 14.43749,13.28905 q -3.48177,0 -5.9427,-1.09375 -2.46094,-1.11197 -3.77344,-3.20833 -1.3125,-2.09635 -1.3125,-5.04947 h 5.41406 q 0.0365,1.49479 0.71094,2.55208 0.6927,1.05729 1.95052,1.62239 1.25781,0.56511 2.98958,0.56511 1.5677,0 2.71614,-0.41927 1.16667,-0.4375 1.80469,-1.22136 0.65625,-0.78385 0.65625,-1.84114 0,-0.875 -0.51042,-1.51302 -0.49219,-0.65625 -1.56771,-1.14844 -1.05729,-0.49218 -2.78906,-0.85677 l -2.86197,-0.61979 q -4.04688,-0.875 -6.01562,-2.7526 -1.96875,-1.8776 -1.96875,-4.79427 0,-2.47916 1.29427,-4.3203 1.29427,-1.85938 3.60937,-2.89844 2.33333,-1.039061 5.41406,-1.039061 3.11718,0 5.39583,1.05729 2.27864,1.057291 3.53645,3.026041 1.27604,1.95052 1.36719,4.68489 h -5.25 q -0.14583,-1.93229 -1.49479,-3.04427 -1.34896,-1.11198 -3.53645,-1.11198 -1.36719,0 -2.44271,0.4375 -1.05729,0.41927 -1.67708,1.1849 -0.60156,0.76562 -0.60156,1.75 0,0.83854 0.47395,1.45833 0.47396,0.60156 1.51302,1.05729 1.03907,0.45573 2.69792,0.82031 l 2.60677,0.56511 q 2.16927,0.47395 3.7552,1.16666 1.58594,0.67448 2.60677,1.6224 1.02083,0.92968 1.51302,2.15104 0.49219,1.22135 0.49219,2.7526 0,2.60677 -1.3125,4.52083 -1.29427,1.89583 -3.71875,2.91666 -2.40625,1.02083 -5.74218,1.02083 z m 14.07291,-0.4375 V 99.211268 h 5.90624 l 8.73176,13.890612 q 0.40105,0.63802 1.02084,1.71354 0.61979,1.07552 1.29427,2.3151 0.6927,1.22136 1.3125,2.36979 l -0.63802,1.44011 q -0.0547,-1.23959 -0.10938,-2.84375 -0.0547,-1.6224 -0.0729,-3.11719 -0.0182,-1.49479 -0.0182,-2.33333 V 99.211268 h 5.59635 V 126.3727 h -5.92447 l -7.91145,-12.57811 q -0.49219,-0.78385 -1.23958,-2.04167 -0.7474,-1.27604 -1.67709,-2.8802 -0.91145,-1.6224 -1.89583,-3.42708 l 0.98438,-0.63802 q 0.10937,2.0052 0.16406,3.77343 0.0547,1.75 0.0729,3.09896 0.0182,1.33073 0.0182,2.09635 v 12.59634 z m 27.07028,0 V 99.211268 h 19.48696 v 4.812492 h -13.87238 v 6.28906 h 12.83332 v 4.68489 h -12.83332 v 6.5625 h 13.87238 v 4.81249 z m 36.0208,0 -7.1276,-19.24998 h 5.63281 l 3.17187,9.51562 q 0.56511,1.69531 1.05729,3.39062 0.49219,1.69531 0.98438,3.40885 h -1.27604 q 0.47396,-1.71354 0.94791,-3.40885 0.49219,-1.69531 1.02084,-3.39062 l 3.13541,-9.51562 h 5.57812 l -7.14583,19.24998 z m 15.22135,0 v -19.24998 h 5.37759 v 19.24998 z m 2.67968,-21.67446 q -1.33073,0 -2.20573,-0.80208 -0.875,-0.82031 -0.875,-2.05989 0,-1.23959 0.875,-2.041669 0.875,-0.820312 2.1875,-0.820312 1.33073,0 2.20573,0.820312 0.875,0.802079 0.875,2.041669 0,1.23958 -0.875,2.05989 -0.875,0.80208 -2.1875,0.80208 z m 14.49218,22.14842 q -2.4974,0 -4.44791,-0.76562 -1.95052,-0.78386 -3.11719,-2.24219 -1.16666,-1.45833 -1.34896,-3.51822 h 5.28646 q 0.14583,1.25781 1.05729,1.96874 0.91146,0.71094 2.47916,0.71094 1.49479,0 2.33333,-0.5651 0.85677,-0.56511 0.85677,-1.45834 0,-0.76562 -0.65625,-1.23958 -0.63802,-0.47396 -1.82291,-0.69271 l -3.37239,-0.65624 q -2.80729,-0.54688 -4.26562,-1.96875 -1.45834,-1.42188 -1.45834,-3.64583 0,-1.82292 0.98438,-3.1901 1.0026,-1.36719 2.82552,-2.11459 1.84114,-0.74739 4.35676,-0.74739 2.4974,0 4.35677,0.80208 1.85937,0.78385 2.89844,2.24219 1.05729,1.45833 1.11197,3.46354 h -4.97656 q -0.0182,-1.16667 -0.91145,-1.93229 -0.89323,-0.76563 -2.33333,-0.76563 -1.38542,0 -2.16927,0.60156 -0.78386,0.58334 -0.78386,1.44011 0,0.74739 0.61979,1.22135 0.6198,0.47396 1.71354,0.71094 l 3.64584,0.71093 q 2.91666,0.56511 4.28385,1.85938 1.38541,1.27604 1.38541,3.40885 0,1.91406 -1.09375,3.35416 -1.07552,1.42188 -3.00781,2.22396 -1.91406,0.78385 -4.42968,0.78385 z m 18.17446,-0.0729 q -2.04166,0 -3.57291,-0.87499 -1.51302,-0.89323 -2.35156,-2.58854 -0.83854,-1.71354 -0.83854,-4.13802 v -12.04947 h 5.3776 v 11.06509 q 0,1.93229 0.92968,2.95313 0.92969,1.0026 2.60677,1.0026 1.11198,0 1.95052,-0.45573 0.85677,-0.45573 1.33073,-1.42187 0.49219,-0.96615 0.49219,-2.44271 v -10.70051 h 5.35937 v 19.24998 h -5.26823 v -5.01301 h 0.91146 q -0.91146,2.55208 -2.60677,3.99218 -1.67708,1.42187 -4.32031,1.42187 z m 20.98175,-0.0729 q -1.91406,0 -3.40885,-0.63802 -1.49479,-0.63802 -2.35156,-1.91406 -0.85677,-1.29427 -0.85677,-3.20833 0,-1.6224 0.60156,-2.69792 0.60157,-1.09375 1.64063,-1.75 1.05729,-0.67447 2.40625,-1.02083 1.36718,-0.34635 2.86197,-0.47396 1.76823,-0.18229 2.80729,-0.34635 1.03906,-0.16406 1.49479,-0.47396 0.45573,-0.30989 0.45573,-0.92969 v -0.1276 q 0,-0.71094 -0.38281,-1.23958 -0.38281,-0.54688 -1.09375,-0.85677 -0.69271,-0.3099 -1.67708,-0.3099 -0.98438,0 -1.75,0.3099 -0.7474,0.30989 -1.18489,0.875 -0.4375,0.5651 -0.51042,1.3125 h -5.04948 q 0.12761,-1.98698 1.16667,-3.44531 1.05729,-1.45834 2.95312,-2.24219 1.89583,-0.80208 4.53906,-0.80208 1.96875,0 3.51823,0.45573 1.54947,0.4375 2.60677,1.29427 1.07552,0.85677 1.62239,2.07812 0.54687,1.22135 0.54687,2.77083 v 13.05207 h -5.24999 v -2.71614 h -0.0729 q -0.51041,0.94792 -1.25781,1.62239 -0.74739,0.67448 -1.82291,1.0573 -1.07552,0.36458 -2.55209,0.36458 z m 1.4948,-3.73698 q 1.29426,0 2.22395,-0.47396 0.94792,-0.47395 1.45833,-1.29427 0.51042,-0.82031 0.51042,-1.85937 v -1.93229 q -0.23698,0.12761 -0.61979,0.25521 -0.38281,0.10937 -0.89323,0.21875 -0.51042,0.0911 -1.11198,0.20052 -0.60156,0.10937 -1.23958,0.20052 -0.92969,0.14583 -1.67708,0.45573 -0.7474,0.29167 -1.1849,0.80208 -0.4375,0.49219 -0.4375,1.25781 0,0.67448 0.36459,1.16667 0.36458,0.49219 1.03906,0.74739 0.67448,0.25521 1.56771,0.25521 z M 508.49062,99.211268 V 126.3727 h -5.37759 V 99.211268 Z m 3.79166,27.161432 v -19.24998 h 5.3776 v 19.24998 z m 2.67968,-21.67446 q -1.33073,0 -2.20573,-0.80208 -0.875,-0.82031 -0.875,-2.05989 0,-1.23959 0.875,-2.041669 0.875,-0.820312 2.1875,-0.820312 1.33073,0 2.20573,0.820312 0.875,0.802079 0.875,2.041669 0,1.23958 -0.875,2.05989 -0.875,0.80208 -2.1875,0.80208 z m 6.34376,21.67446 v -3.60937 l 9.55208,-11.3203 v -0.0547 h -9.55208 v -4.26562 h 15.87759 v 3.80989 l -9.35155,11.13801 v 0.0547 h 9.49739 v 4.24739 z m 25.55726,0.32813 q -1.91406,0 -3.40885,-0.63802 -1.49479,-0.63802 -2.35156,-1.91406 -0.85677,-1.29427 -0.85677,-3.20833 0,-1.6224 0.60156,-2.69792 0.60156,-1.09375 1.64062,-1.75 1.05729,-0.67447 2.40625,-1.02083 1.36719,-0.34635 2.86198,-0.47396 1.76823,-0.18229 2.80729,-0.34635 1.03906,-0.16406 1.49479,-0.47396 0.45573,-0.30989 0.45573,-0.92969 v -0.1276 q 0,-0.71094 -0.38282,-1.23958 -0.38281,-0.54688 -1.09374,-0.85677 -0.69271,-0.3099 -1.67709,-0.3099 -0.98437,0 -1.75,0.3099 -0.74739,0.30989 -1.18489,0.875 -0.4375,0.5651 -0.51042,1.3125 h -5.04947 q 0.1276,-1.98698 1.16666,-3.44531 1.0573,-1.45834 2.95313,-2.24219 1.89583,-0.80208 4.53906,-0.80208 1.96874,0 3.51822,0.45573 1.54948,0.4375 2.60677,1.29427 1.07552,0.85677 1.62239,2.07812 0.54688,1.22135 0.54688,2.77083 v 13.05207 h -5.25 v -2.71614 h -0.0729 q -0.51042,0.94792 -1.25781,1.62239 -0.7474,0.67448 -1.82292,1.0573 -1.07552,0.36458 -2.55208,0.36458 z m 1.49479,-3.73698 q 1.29427,0 2.22396,-0.47396 0.94791,-0.47395 1.45833,-1.29427 0.51041,-0.82031 0.51041,-1.85937 v -1.93229 q -0.23697,0.12761 -0.61979,0.25521 -0.38281,0.10937 -0.89322,0.21875 -0.51042,0.0911 -1.11198,0.20052 -0.60156,0.10937 -1.23959,0.20052 -0.92968,0.14583 -1.67708,0.45573 -0.74739,0.29167 -1.18489,0.80208 -0.4375,0.49219 -0.4375,1.25781 0,0.67448 0.36458,1.16667 0.36458,0.49219 1.03906,0.74739 0.67448,0.25521 1.56771,0.25521 z m 24.3177,-15.84113 v 4.21093 h -12.63281 v -4.21093 z m -9.3151,-5.25 h 5.3776 V 120.43 q 0,0.96615 0.38281,1.34896 0.40104,0.38281 1.49479,0.38281 0.45573,0 1.07552,0 0.63802,0 0.98438,0 v 4.21093 q -0.49219,0 -1.36719,0 -0.875,0 -1.76823,0 -3.17187,0 -4.68489,-1.23958 -1.49479,-1.23958 -1.49479,-3.86458 z m 12.013,24.49998 v -19.24998 h 5.3776 v 19.24998 z m 2.67969,-21.67446 q -1.33073,0 -2.20573,-0.80208 -0.875,-0.82031 -0.875,-2.05989 0,-1.23959 0.875,-2.041669 0.875,-0.820312 2.1875,-0.820312 1.33072,0 2.20572,0.820312 0.875,0.802079 0.875,2.041669 0,1.23958 -0.875,2.05989 -0.875,0.80208 -2.18749,0.80208 z m 15.42185,22.11196 q -2.89844,0 -5.10417,-1.25781 -2.20572,-1.25781 -3.44531,-3.51822 -1.22135,-2.26042 -1.22135,-5.26823 0,-3.02604 1.22135,-5.28645 1.23959,-2.26042 3.44531,-3.51823 2.20573,-1.27604 5.10417,-1.27604 2.93489,0 5.12239,1.27604 2.20572,1.25781 3.42708,3.51823 1.23958,2.26041 1.23958,5.28645 0,3.00781 -1.23958,5.26823 -1.22136,2.26041 -3.42708,3.51822 -2.1875,1.25781 -5.12239,1.25781 z m 0,-4.35676 q 1.31249,0 2.29687,-0.67448 0.98437,-0.69271 1.53125,-1.96875 0.54687,-1.27604 0.54687,-3.04427 0,-1.80469 -0.54687,-3.08073 -0.54688,-1.27604 -1.53125,-1.95051 -0.98438,-0.69271 -2.29687,-0.69271 -1.29427,0 -2.27865,0.69271 -0.98437,0.67447 -1.53125,1.95051 -0.54687,1.27604 -0.54687,3.08073 0,1.78646 0.54687,3.0625 0.54688,1.25781 1.53125,1.95052 0.98438,0.67448 2.27865,0.67448 z m 18.11978,-6.78125 v 10.70051 h -5.3776 v -19.24998 h 5.28645 v 5.01302 h -0.91145 q 0.91145,-2.55208 2.60677,-3.97396 1.69531,-1.4401 4.3203,-1.4401 2.0599,0 3.57292,0.89323 1.51302,0.875 2.33333,2.57031 0.83854,1.69531 0.83854,4.13801 v 12.04947 h -5.35937 v -11.06509 q 0,-1.93229 -0.92969,-2.93489 -0.91145,-1.02084 -2.60677,-1.02084 -1.11197,0 -1.96874,0.45573 -0.85677,0.45573 -1.33073,1.42188 -0.47396,0.94791 -0.47396,2.4427 z m 33.41403,11.13801 q -2.89844,0 -5.10416,-1.25781 -2.20573,-1.25781 -3.44531,-3.51822 -1.22136,-2.26042 -1.22136,-5.26823 0,-3.02604 1.22136,-5.28645 1.23958,-2.26042 3.44531,-3.51823 2.20572,-1.27604 5.10416,-1.27604 2.93489,0 5.12239,1.27604 2.20573,1.25781 3.42708,3.51823 1.23958,2.26041 1.23958,5.28645 0,3.00781 -1.23958,5.26823 -1.22135,2.26041 -3.42708,3.51822 -2.1875,1.25781 -5.12239,1.25781 z m 0,-4.35676 q 1.3125,0 2.29687,-0.67448 0.98438,-0.69271 1.53125,-1.96875 0.54688,-1.27604 0.54688,-3.04427 0,-1.80469 -0.54688,-3.08073 -0.54687,-1.27604 -1.53125,-1.95051 -0.98437,-0.69271 -2.29687,-0.69271 -1.29427,0 -2.27865,0.69271 -0.98437,0.67447 -1.53124,1.95051 -0.54688,1.27604 -0.54688,3.08073 0,1.78646 0.54688,3.0625 0.54687,1.25781 1.53124,1.95052 0.98438,0.67448 2.27865,0.67448 z m 23.95311,-15.33072 v 4.21093 H 656.1832 v -4.21093 z m -9.29687,19.24998 v -21.74737 q 0,-1.80469 0.69271,-3.00781 0.71094,-1.20313 2.09635,-1.80469 1.38542,-0.601562 3.46354,-0.601562 0.96615,0 1.84115,0 0.875,0 1.20312,0 v 4.210932 q -0.21875,0 -0.82031,0 -0.60156,0 -1.0026,0 -1.14844,0 -1.64063,0.49219 -0.47395,0.47396 -0.47395,1.62239 V 126.3727 Z M 690.21703,99.211268 V 126.3727 h -5.39583 v -22.00258 h -0.0365 l -6.3802,4.04687 v -4.92187 l 6.72656,-4.283852 z m 14.16403,27.598932 q -3.40885,0 -5.88801,-1.69531 -2.46094,-1.71354 -3.79167,-4.84895 -1.3125,-3.13542 -1.3125,-7.45572 0,-4.33854 1.3125,-7.47396 1.33073,-3.13541 3.79167,-4.84895 2.46093,-1.713541 5.88801,-1.713541 3.40885,0 5.86979,1.713541 2.47916,1.69531 3.79166,4.84895 1.33073,3.13542 1.33073,7.47396 0,4.3203 -1.33073,7.45572 -1.3125,3.13541 -3.79166,4.84895 -2.46094,1.69531 -5.86979,1.69531 z m 0,-4.48437 q 1.76823,0 3.04427,-1.14843 1.27604,-1.14844 1.96875,-3.28125 0.69271,-2.13281 0.69271,-5.08593 0,-2.97136 -0.69271,-5.10417 -0.69271,-2.13281 -1.96875,-3.28124 -1.27604,-1.16667 -3.04427,-1.16667 -1.76823,0 -3.06249,1.16667 -1.27605,1.14843 -1.96875,3.28124 -0.67448,2.13281 -0.67448,5.10417 0,2.95312 0.67448,5.08593 0.6927,2.13281 1.96875,3.28125 1.29426,1.14843 3.06249,1.14843 z m 22.16667,4.04687 V 99.211268 h 19.48696 v 4.812492 h -13.87238 v 6.28906 h 12.83332 v 4.68489 h -12.83332 v 6.5625 h 13.87238 v 4.81249 z m 27.94528,-10.70051 v 10.70051 h -5.3776 v -19.24998 h 5.28645 v 5.01302 h -0.91146 q 0.91146,-2.55208 2.60677,-3.97396 1.69531,-1.4401 4.32031,-1.4401 2.05989,0 3.57291,0.89323 1.51302,0.875 2.33333,2.57031 0.83855,1.69531 0.83855,4.13801 v 12.04947 h -5.35938 v -11.06509 q 0,-1.93229 -0.92968,-2.93489 -0.91146,-1.02084 -2.60677,-1.02084 -1.11198,0 -1.96875,0.45573 -0.85677,0.45573 -1.33073,1.42188 -0.47395,0.94791 -0.47395,2.4427 z m 25.57549,18.57551 q -2.73437,0 -4.64843,-0.78386 -1.89583,-0.76562 -2.98958,-2.16927 -1.07552,-1.40364 -1.34896,-3.28124 h 5.17708 q 0.20052,0.72916 0.71094,1.23958 0.52864,0.51042 1.3125,0.76562 0.78385,0.27344 1.78645,0.27344 1.96875,0 3.02604,-1.07552 1.07552,-1.07552 1.07552,-3.15364 v -2.95312 h -0.0182 q -0.5651,1.1302 -1.42187,1.85937 -0.83854,0.72916 -1.93229,1.07552 -1.07552,0.34635 -2.33333,0.34635 -2.51563,0 -4.39323,-1.25781 -1.8776,-1.25781 -2.91666,-3.46354 -1.02083,-2.20572 -1.02083,-5.0677 0,-2.89844 1.03906,-5.12239 1.05729,-2.24219 2.91666,-3.5 1.8776,-1.25781 4.33854,-1.25781 1.25781,0 2.3151,0.34635 1.07552,0.34636 1.93229,1.05729 0.875,0.71094 1.47656,1.78646 h 0.0182 v -2.78906 h 5.30468 v 18.50259 q 0,3.04427 -1.18489,4.9401 -1.1849,1.91406 -3.31771,2.78906 -2.11458,0.89323 -4.90364,0.89323 z m -0.21875,-12.15885 q 1.36719,0 2.36979,-0.67448 1.02083,-0.6927 1.58594,-1.95051 0.5651,-1.25782 0.5651,-2.9349 0,-1.67708 -0.5651,-2.91666 -0.56511,-1.25781 -1.58594,-1.93229 -1.0026,-0.69271 -2.36979,-0.69271 -1.29427,0 -2.26041,0.65625 -0.96615,0.63802 -1.51302,1.8776 -0.52865,1.23958 -0.52865,3.00781 0,1.76823 0.52865,3.00781 0.54687,1.23958 1.51302,1.89583 0.96614,0.65625 2.26041,0.65625 z M 798.66226,99.211268 V 126.3727 h -5.3776 V 99.211268 Z m 3.79165,27.161432 v -19.24998 h 5.3776 v 19.24998 z m 2.67968,-21.67446 q -1.33073,0 -2.20573,-0.80208 -0.87499,-0.82031 -0.87499,-2.05989 0,-1.23959 0.87499,-2.041669 0.875,-0.820312 2.1875,-0.820312 1.33073,0 2.20573,0.820312 0.875,0.802079 0.875,2.041669 0,1.23958 -0.875,2.05989 -0.875,0.80208 -2.1875,0.80208 z m 14.49216,22.14842 q -2.49739,0 -4.44791,-0.76562 -1.95052,-0.78386 -3.11718,-2.24219 -1.16667,-1.45833 -1.34896,-3.51822 h 5.28645 q 0.14584,1.25781 1.05729,1.96874 0.91146,0.71094 2.47917,0.71094 1.49479,0 2.33333,-0.5651 0.85677,-0.56511 0.85677,-1.45834 0,-0.76562 -0.65625,-1.23958 -0.63802,-0.47396 -1.82291,-0.69271 l -3.3724,-0.65624 q -2.80729,-0.54688 -4.26562,-1.96875 -1.45833,-1.42188 -1.45833,-3.64583 0,-1.82292 0.98437,-3.1901 1.00261,-1.36719 2.82552,-2.11459 1.84115,-0.74739 4.35677,-0.74739 2.49739,0 4.35677,0.80208 1.85937,0.78385 2.89843,2.24219 1.05729,1.45833 1.11198,3.46354 h -4.97656 q -0.0182,-1.16667 -0.91146,-1.93229 -0.89322,-0.76563 -2.33333,-0.76563 -1.38541,0 -2.16927,0.60156 -0.78385,0.58334 -0.78385,1.44011 0,0.74739 0.61979,1.22135 0.61979,0.47396 1.71354,0.71094 l 3.64583,0.71093 q 2.91667,0.56511 4.28385,1.85938 1.38542,1.27604 1.38542,3.40885 0,1.91406 -1.09375,3.35416 -1.07552,1.42188 -3.00781,2.22396 -1.91406,0.78385 -4.42969,0.78385 z m 16.78907,-11.17447 v 10.70051 h -5.3776 V 99.211268 h 5.3776 v 12.924472 h -1.0026 q 0.91145,-2.55208 2.60676,-3.97396 1.69532,-1.4401 4.32031,-1.4401 2.0599,0 3.57292,0.89323 1.51302,0.875 2.33333,2.57031 0.83854,1.69531 0.83854,4.13801 v 12.04947 h -5.35937 v -11.06509 q 0,-1.93229 -0.92969,-2.93489 -0.91146,-1.02084 -2.60677,-1.02084 -1.11197,0 -1.96874,0.45573 -0.85677,0.45573 -1.33073,1.42188 -0.47396,0.94791 -0.47396,2.4427 z m 30.36979,11.02864 q -1.91406,0 -3.40885,-0.63802 -1.49479,-0.63802 -2.35156,-1.91406 -0.85677,-1.29427 -0.85677,-3.20833 0,-1.6224 0.60156,-2.69792 0.60156,-1.09375 1.64062,-1.75 1.05729,-0.67447 2.40625,-1.02083 1.36719,-0.34635 2.86198,-0.47396 1.76823,-0.18229 2.80729,-0.34635 1.03906,-0.16406 1.49479,-0.47396 0.45573,-0.30989 0.45573,-0.92969 v -0.1276 q 0,-0.71094 -0.38281,-1.23958 -0.38282,-0.54688 -1.09375,-0.85677 -0.69271,-0.3099 -1.67709,-0.3099 -0.98437,0 -1.74999,0.3099 -0.7474,0.30989 -1.1849,0.875 -0.4375,0.5651 -0.51042,1.3125 h -5.04947 q 0.1276,-1.98698 1.16667,-3.44531 1.05729,-1.45834 2.95312,-2.24219 1.89583,-0.80208 4.53906,-0.80208 1.96874,0 3.51822,0.45573 1.54948,0.4375 2.60677,1.29427 1.07552,0.85677 1.6224,2.07812 0.54687,1.22135 0.54687,2.77083 v 13.05207 h -5.25 v -2.71614 h -0.0729 q -0.51042,0.94792 -1.25781,1.62239 -0.7474,0.67448 -1.82292,1.0573 -1.07552,0.36458 -2.55208,0.36458 z m 1.49479,-3.73698 q 1.29427,0 2.22396,-0.47396 0.94791,-0.47395 1.45833,-1.29427 0.51042,-0.82031 0.51042,-1.85937 v -1.93229 q -0.23698,0.12761 -0.6198,0.25521 -0.38281,0.10937 -0.89322,0.21875 -0.51042,0.0911 -1.11198,0.20052 -0.60156,0.10937 -1.23958,0.20052 -0.92969,0.14583 -1.67709,0.45573 -0.74739,0.29167 -1.18489,0.80208 -0.4375,0.49219 -0.4375,1.25781 0,0.67448 0.36458,1.16667 0.36459,0.49219 1.03906,0.74739 0.67448,0.25521 1.56771,0.25521 z m 18.63017,-7.29166 v 10.70051 h -5.3776 v -19.24998 h 5.28645 v 5.01302 h -0.91145 q 0.91145,-2.55208 2.60677,-3.97396 1.69531,-1.4401 4.3203,-1.4401 2.0599,0 3.57292,0.89323 1.51302,0.875 2.33333,2.57031 0.83854,1.69531 0.83854,4.13801 v 12.04947 h -5.35937 v -11.06509 q 0,-1.93229 -0.92969,-2.93489 -0.91145,-1.02084 -2.60677,-1.02084 -1.11197,0 -1.96874,0.45573 -0.85677,0.45573 -1.33073,1.42188 -0.47396,0.94791 -0.47396,2.4427 z m 23.97133,11.10155 q -2.51562,0 -4.39322,-1.25781 -1.87761,-1.25781 -2.91667,-3.51822 -1.02083,-2.26042 -1.02083,-5.26823 0,-2.97135 1.03906,-5.21353 1.05729,-2.26042 2.91667,-3.51823 1.8776,-1.27604 4.33853,-1.27604 1.25782,0 2.31511,0.34635 1.05729,0.32813 1.89583,1.00261 0.83854,0.67447 1.45833,1.71354 h 0.0182 V 99.211268 h 5.35937 V 126.3727 h -5.28645 v -2.95312 h -0.0182 q -0.56511,1.11198 -1.42188,1.8776 -0.83854,0.7474 -1.93229,1.11198 -1.09375,0.36458 -2.35156,0.36458 z m 1.38542,-4.37499 q 1.36718,0 2.36979,-0.69271 1.02083,-0.71094 1.58593,-1.98698 0.56511,-1.27604 0.56511,-2.98958 0,-1.73177 -0.56511,-2.98958 -0.5651,-1.27604 -1.58593,-1.96875 -1.00261,-0.71093 -2.36979,-0.71093 -1.29427,0 -2.26042,0.67448 -0.96614,0.67447 -1.51302,1.93229 -0.52864,1.25781 -0.52864,3.06249 0,1.80469 0.52864,3.08073 0.54688,1.25781 1.51302,1.93229 0.96615,0.65625 2.26042,0.65625 z M 944.33138,99.211268 V 126.3727 h -5.39583 v -22.00258 h -0.0365 l -6.3802,4.04687 v -4.92187 l 6.72656,-4.283852 z m 14.16406,27.598932 q -3.40885,0 -5.88801,-1.69531 -2.46094,-1.71354 -3.79167,-4.84895 -1.3125,-3.13542 -1.3125,-7.45572 0,-4.33854 1.3125,-7.47396 1.33073,-3.13541 3.79167,-4.84895 2.46093,-1.713541 5.88801,-1.713541 3.40885,0 5.86979,1.713541 2.47916,1.69531 3.79166,4.84895 1.33073,3.13542 1.33073,7.47396 0,4.3203 -1.33073,7.45572 -1.3125,3.13541 -3.79166,4.84895 -2.46094,1.69531 -5.86979,1.69531 z m 0,-4.48437 q 1.76823,0 3.04427,-1.14843 1.27604,-1.14844 1.96875,-3.28125 0.69271,-2.13281 0.69271,-5.08593 0,-2.97136 -0.69271,-5.10417 -0.69271,-2.13281 -1.96875,-3.28124 -1.27604,-1.16667 -3.04427,-1.16667 -1.76823,0 -3.06249,1.16667 -1.27605,1.14843 -1.96875,3.28124 -0.67448,2.13281 -0.67448,5.10417 0,2.95312 0.67448,5.08593 0.6927,2.13281 1.96875,3.28125 1.29426,1.14843 3.06249,1.14843 z m 20.30726,4.04687 9.53385,-27.161432 h 7.21874 l 9.53381,27.161432 h -6.2161 l -4.26562,-13.21613 q -0.78386,-2.60677 -1.6224,-5.35937 -0.82031,-2.77083 -1.78645,-6.28906 h 1.54947 q -1.0026,3.51823 -1.84114,6.28906 -0.82031,2.7526 -1.64062,5.35937 l -4.41146,13.21613 z m 6.05208,-5.92447 v -4.48437 h 14.20051 v 4.48437 z m 22.31252,5.92447 v -19.24998 h 5.1771 v 3.28125 h 0.055 q 0.5286,-1.73177 1.6588,-2.57031 1.1302,-0.83854 3.0443,-0.83854 0.4739,0 0.8567,0.0182 0.4011,0 0.7292,0.0182 v 4.57552 q -0.2917,-0.0182 -0.9661,-0.0547 -0.6563,-0.0365 -1.349,-0.0365 -1.0937,0 -1.9687,0.51041 -0.875,0.49219 -1.3672,1.47656 -0.4922,0.98438 -0.4922,2.44271 v 10.42707 z m 19.5468,0.32813 q -1.9141,0 -3.4089,-0.63802 -1.4948,-0.63802 -2.3516,-1.91406 -0.8567,-1.29427 -0.8567,-3.20833 0,-1.6224 0.6015,-2.69792 0.6016,-1.09375 1.6407,-1.75 1.0572,-0.67447 2.4062,-1.02083 1.3672,-0.34635 2.862,-0.47396 1.7682,-0.18229 2.8073,-0.34635 1.039,-0.16406 1.4948,-0.47396 0.4557,-0.30989 0.4557,-0.92969 v -0.1276 q 0,-0.71094 -0.3828,-1.23958 -0.3828,-0.54688 -1.0938,-0.85677 -0.6927,-0.3099 -1.6771,-0.3099 -0.9843,0 -1.75,0.3099 -0.7473,0.30989 -1.1848,0.875 -0.4375,0.5651 -0.5105,1.3125 h -5.0494 q 0.1276,-1.98698 1.1666,-3.44531 1.0573,-1.45834 2.9532,-2.24219 1.8958,-0.80208 4.539,-0.80208 1.9688,0 3.5182,0.45573 1.5495,0.4375 2.6068,1.29427 1.0755,0.85677 1.6224,2.07812 0.5469,1.22135 0.5469,2.77083 v 13.05207 h -5.25 v -2.71614 h -0.073 q -0.5105,0.94792 -1.2578,1.62239 -0.7474,0.67448 -1.823,1.0573 -1.0755,0.36458 -2.552,0.36458 z m 1.4947,-3.73698 q 1.2943,0 2.224,-0.47396 0.9479,-0.47395 1.4583,-1.29427 0.5104,-0.82031 0.5104,-1.85937 v -1.93229 q -0.2369,0.12761 -0.6197,0.25521 -0.3829,0.10937 -0.8933,0.21875 -0.5104,0.0911 -1.1119,0.20052 -0.6016,0.10937 -1.2396,0.20052 -0.9297,0.14583 -1.6771,0.45573 -0.7474,0.29167 -1.1849,0.80208 -0.4375,0.49219 -0.4375,1.25781 0,0.67448 0.3646,1.16667 0.3646,0.49219 1.039,0.74739 0.6745,0.25521 1.5677,0.25521 z m 24.2813,3.80989 q -1.2579,0 -2.3516,-0.36458 -1.0938,-0.36458 -1.9505,-1.11198 -0.8386,-0.76562 -1.4037,-1.8776 h -0.018 v 2.95312 h -5.3047 V 99.211268 h 5.3776 v 10.572912 h 0.018 q 0.6198,-1.03907 1.4584,-1.71354 0.8385,-0.67448 1.8958,-1.00261 1.0755,-0.34635 2.3151,-0.34635 2.4609,0 4.3203,1.27604 1.8776,1.25781 2.9167,3.51823 1.0573,2.24218 1.0573,5.21353 0,3.00781 -1.0391,5.26823 -1.0391,2.26041 -2.8984,3.51822 -1.8594,1.25781 -4.3932,1.25781 z m -1.3855,-4.37499 q 1.3125,0 2.2604,-0.65625 0.9662,-0.67448 1.4948,-1.93229 0.5469,-1.27604 0.5469,-3.08073 0,-1.80468 -0.5469,-3.06249 -0.5286,-1.25782 -1.4948,-1.93229 -0.9479,-0.67448 -2.2604,-0.67448 -1.3489,0 -2.388,0.71093 -1.0208,0.69271 -1.5859,1.96875 -0.5469,1.25781 -0.5469,2.98958 0,1.71354 0.5469,2.98958 0.5651,1.27604 1.5859,1.98698 1.0391,0.69271 2.388,0.69271 z m 12.6693,3.97395 v -19.24998 h 5.3776 v 19.24998 z m 2.6797,-21.67446 q -1.3307,0 -2.2057,-0.80208 -0.875,-0.82031 -0.875,-2.05989 0,-1.23959 0.875,-2.041669 0.875,-0.820312 2.1875,-0.820312 1.3307,0 2.2057,0.820312 0.875,0.802079 0.875,2.041669 0,1.23958 -0.875,2.05989 -0.875,0.80208 -2.1875,0.80208 z m 15.3125,22.11196 q -2.8802,0 -5.0677,-1.25781 -2.1693,-1.27604 -3.3907,-3.53645 -1.2031,-2.27865 -1.2031,-5.25 0,-2.98958 1.2031,-5.24999 1.2214,-2.27865 3.3907,-3.55469 2.1875,-1.27604 5.0677,-1.27604 1.8958,0 3.5,0.5651 1.6041,0.54688 2.789,1.56771 1.2032,1.02083 1.9141,2.42448 0.7109,1.38541 0.8385,3.08072 h -5.1953 q -0.1094,-0.74739 -0.4192,-1.34895 -0.2917,-0.60156 -0.7657,-1.03906 -0.4739,-0.4375 -1.1302,-0.67448 -0.638,-0.23698 -1.4583,-0.23698 -1.349,0 -2.3151,0.71094 -0.9662,0.6927 -1.4948,1.98697 -0.5104,1.27604 -0.5104,3.04427 0,1.75 0.5104,3.02604 0.5286,1.27604 1.4948,1.98698 0.9661,0.69271 2.3151,0.69271 0.8203,0 1.4583,-0.23698 0.638,-0.23698 1.0938,-0.67448 0.4739,-0.4375 0.7656,-1.03906 0.2917,-0.6198 0.4193,-1.38542 h 5.2317 q -0.091,1.67708 -0.8021,3.08073 -0.6927,1.38541 -1.8958,2.42447 -1.2031,1.03907 -2.8255,1.60417 -1.6042,0.5651 -3.5182,0.5651 z m 38.4088,7.18229 h -5.3593 V 123.4925 h -0.055 q -0.5469,1.09375 -1.3854,1.82291 -0.8203,0.72917 -1.8959,1.09375 -1.0573,0.36458 -2.3151,0.36458 -2.5156,0 -4.3932,-1.25781 -1.8776,-1.25781 -2.9167,-3.51822 -1.0208,-2.26042 -1.0208,-5.26823 0,-2.97135 1.0391,-5.21353 1.0573,-2.26042 2.9166,-3.51823 1.8776,-1.27604 4.3386,-1.27604 1.2578,0 2.3333,0.34635 1.0755,0.32813 1.9141,1.00261 0.8567,0.65625 1.4583,1.65885 h 0.055 v -2.60677 h 5.2864 z m -9.625,-11.59374 q 1.3672,0 2.3698,-0.69271 1.0209,-0.71094 1.586,-1.98698 0.5651,-1.27604 0.5651,-2.98958 0,-1.73177 -0.5651,-2.98958 -0.5651,-1.27604 -1.586,-1.96875 -1.0026,-0.71093 -2.3698,-0.71093 -1.2942,0 -2.2604,0.67448 -0.9661,0.67447 -1.513,1.93229 -0.5286,1.25781 -0.5286,3.06249 0,1.80469 0.5286,3.08073 0.5469,1.25781 1.513,1.93229 0.9662,0.65625 2.2604,0.65625 z m 20.1979,4.37499 q -2.0417,0 -3.5729,-0.87499 -1.513,-0.89323 -2.3516,-2.58854 -0.8385,-1.71354 -0.8385,-4.13802 v -12.04947 h 5.3776 v 11.06509 q 0,1.93229 0.9297,2.95313 0.9297,1.0026 2.6067,1.0026 1.112,0 1.9506,-0.45573 0.8567,-0.45573 1.3307,-1.42187 0.4922,-0.96615 0.4922,-2.44271 v -10.70051 h 5.3594 v 19.24998 h -5.2683 v -5.01301 h 0.9115 q -0.9115,2.55208 -2.6068,3.99218 -1.6771,1.42187 -4.3203,1.42187 z m 23.8802,0.0365 q -2.9167,0 -5.0859,-1.27604 -2.1511,-1.29427 -3.3542,-3.57291 -1.1849,-2.27864 -1.1849,-5.19531 0,-2.95312 1.2031,-5.21354 1.2214,-2.27864 3.3542,-3.57291 2.1328,-1.29427 4.8854,-1.29427 2.1328,0 3.8646,0.72917 1.7317,0.71093 2.9896,2.05989 1.2578,1.33073 1.9323,3.15364 0.6927,1.82292 0.6927,4.02865 v 1.4401 h -17.0078 v -3.42708 h 14.4192 l -2.4245,0.82031 q 0,-1.45833 -0.5286,-2.51562 -0.5286,-1.05729 -1.513,-1.6224 -0.9662,-0.58333 -2.3151,-0.58333 -1.3308,0 -2.2969,0.58333 -0.9661,0.56511 -1.4948,1.6224 -0.5286,1.05729 -0.5286,2.51562 v 2.33333 q 0,1.49479 0.5286,2.625 0.5469,1.11198 1.5677,1.73177 1.0209,0.60156 2.461,0.60156 1.0572,0 1.8593,-0.29167 0.8203,-0.30989 1.3672,-0.85677 0.5651,-0.5651 0.8021,-1.31249 h 4.9036 q -0.3463,1.91406 -1.6224,3.37239 -1.276,1.45833 -3.2083,2.29687 -1.9323,0.82031 -4.2656,0.82031 z m 20.1797,0.0365 q -2.4974,0 -4.4479,-0.76562 -1.9505,-0.78386 -3.1172,-2.24219 -1.1667,-1.45833 -1.349,-3.51822 h 5.2865 q 0.1458,1.25781 1.0573,1.96874 0.9114,0.71094 2.4792,0.71094 1.4947,0 2.3333,-0.5651 0.8568,-0.56511 0.8568,-1.45834 0,-0.76562 -0.6563,-1.23958 -0.638,-0.47396 -1.8229,-0.69271 l -3.3724,-0.65624 q -2.8073,-0.54688 -4.2656,-1.96875 -1.4584,-1.42188 -1.4584,-3.64583 0,-1.82292 0.9844,-3.1901 1.0026,-1.36719 2.8255,-2.11459 1.8412,-0.74739 4.3568,-0.74739 2.4974,0 4.3568,0.80208 1.8593,0.78385 2.8984,2.24219 1.0573,1.45833 1.112,3.46354 h -4.9766 q -0.018,-1.16667 -0.9114,-1.93229 -0.8933,-0.76563 -2.3334,-0.76563 -1.3854,0 -2.1692,0.60156 -0.7839,0.58334 -0.7839,1.44011 0,0.74739 0.6198,1.22135 0.6198,0.47396 1.7135,0.71094 l 3.6459,0.71093 q 2.9166,0.56511 4.2838,1.85938 1.3854,1.27604 1.3854,3.40885 0,1.91406 -1.0937,3.35416 -1.0755,1.42188 -3.0078,2.22396 -1.9141,0.78385 -4.4297,0.78385 z m 22.8411,-19.72394 v 4.21093 h -12.6328 v -4.21093 z m -9.3151,-5.25 h 5.3776 V 120.43 q 0,0.96615 0.3828,1.34896 0.4011,0.38281 1.4948,0.38281 0.4558,0 1.0755,0 0.6381,0 0.9844,0 v 4.21093 q -0.4922,0 -1.3672,0 -0.875,0 -1.7682,0 -3.1719,0 -4.6849,-1.23958 -1.4948,-1.23958 -1.4948,-3.86458 z m 12.013,24.49998 v -19.24998 h 5.3776 v 19.24998 z m 2.6797,-21.67446 q -1.3307,0 -2.2057,-0.80208 -0.875,-0.82031 -0.875,-2.05989 0,-1.23959 0.875,-2.041669 0.875,-0.820312 2.1875,-0.820312 1.3307,0 2.2057,0.820312 0.875,0.802079 0.875,2.041669 0,1.23958 -0.875,2.05989 -0.875,0.80208 -2.1875,0.80208 z m 15.4219,22.11196 q -2.8985,0 -5.1042,-1.25781 -2.2057,-1.25781 -3.4453,-3.51822 -1.2214,-2.26042 -1.2214,-5.26823 0,-3.02604 1.2214,-5.28645 1.2396,-2.26042 3.4453,-3.51823 2.2057,-1.27604 5.1042,-1.27604 2.9349,0 5.1224,1.27604 2.2057,1.25781 3.427,3.51823 1.2396,2.26041 1.2396,5.28645 0,3.00781 -1.2396,5.26823 -1.2213,2.26041 -3.427,3.51822 -2.1875,1.25781 -5.1224,1.25781 z m 0,-4.35676 q 1.3125,0 2.2968,-0.67448 0.9844,-0.69271 1.5313,-1.96875 0.5469,-1.27604 0.5469,-3.04427 0,-1.80469 -0.5469,-3.08073 -0.5469,-1.27604 -1.5313,-1.95051 -0.9843,-0.69271 -2.2968,-0.69271 -1.2943,0 -2.2787,0.69271 -0.9844,0.67447 -1.5312,1.95051 -0.5469,1.27604 -0.5469,3.08073 0,1.78646 0.5469,3.0625 0.5468,1.25781 1.5312,1.95052 0.9844,0.67448 2.2787,0.67448 z m 18.1197,-6.78125 v 10.70051 h -5.3776 v -19.24998 h 5.2865 v 5.01302 h -0.9115 q 0.9115,-2.55208 2.6068,-3.97396 1.6953,-1.4401 4.3203,-1.4401 2.0599,0 3.5729,0.89323 1.513,0.875 2.3333,2.57031 0.8386,1.69531 0.8386,4.13801 v 12.04947 h -5.3594 v -11.06509 q 0,-1.93229 -0.9297,-2.93489 -0.9114,-1.02084 -2.6067,-1.02084 -1.112,0 -1.9688,0.45573 -0.8568,0.45573 -1.3307,1.42188 -0.474,0.94791 -0.474,2.4427 z m 24.4818,11.17447 q -2.4974,0 -4.4479,-0.76562 -1.9506,-0.78386 -3.1172,-2.24219 -1.1667,-1.45833 -1.349,-3.51822 h 5.2865 q 0.1458,1.25781 1.0573,1.96874 0.9114,0.71094 2.4791,0.71094 1.4948,0 2.3334,-0.5651 0.8567,-0.56511 0.8567,-1.45834 0,-0.76562 -0.6562,-1.23958 -0.638,-0.47396 -1.8229,-0.69271 l -3.3724,-0.65624 q -2.8073,-0.54688 -4.2657,-1.96875 -1.4583,-1.42188 -1.4583,-3.64583 0,-1.82292 0.9844,-3.1901 1.0026,-1.36719 2.8255,-2.11459 1.8411,-0.74739 4.3568,-0.74739 2.4974,0 4.3567,0.80208 1.8594,0.78385 2.8985,2.24219 1.0573,1.45833 1.112,3.46354 h -4.9766 q -0.018,-1.16667 -0.9115,-1.93229 -0.8932,-0.76563 -2.3333,-0.76563 -1.3854,0 -2.1693,0.60156 -0.7838,0.58334 -0.7838,1.44011 0,0.74739 0.6198,1.22135 0.6198,0.47396 1.7135,0.71094 l 3.6458,0.71093 q 2.9167,0.56511 4.2839,1.85938 1.3854,1.27604 1.3854,3.40885 0,1.91406 -1.0937,3.35416 -1.0756,1.42188 -3.0079,2.22396 -1.914,0.78385 -4.4296,0.78385 z"
     id="text115-5"
     class="gtitle"
     aria-label="2D t-SNE visualization of 10 English and 10 Arabic questions" /></svg>
